<?xml version="1.0" encoding="UTF-8" standalone="no"?>
<svg width="52px" height="39px" viewBox="0 0 52 39" version="1.1" xmlns="http://www.w3.org/2000/svg" xmlns:xlink="http://www.w3.org/1999/xlink">
    <!-- Generator: Sketch 39.1 (31720) - http://www.bohemiancoding.com/sketch -->
    <title>Group</title>
    <desc>Created with Sketch.</desc>
    <defs></defs>
    <g id="Aurora" stroke="none" stroke-width="1" fill="none" fill-rule="evenodd">
        <g id="NewVM-Copy" transform="translate(-764.000000, -229.000000)" stroke="#FFFFFF" stroke-width="1.8">
            <g id="Group" transform="translate(765.000000, 230.000000)">
                <path d="M18.8958089,29.7224762 C19.2941925,29.2901708 19.6902095,28.8547099 20.0791266,28.4121491 C20.6534302,27.7597466 20.9823925,26.9306353 21.0691691,26.0747021 C21.186712,24.9142619 20.8577497,23.7049112 20.0791266,22.8205784 C19.9536949,22.6770025 19.8251078,22.5365822 19.6980983,22.394584 C18.9810078,21.5915058 18.2481397,20.804205 17.4987051,20.0350485 C16.7895034,19.3077026 16.0661018,18.5945564 15.3277116,17.896399 C14.6768868,17.2818626 14.0165955,16.6767929 13.3428933,16.0835562 C12.8569442,15.656773 12.273963,15.3648879 11.6546934,15.2079011 C10.3128111,14.8671056 8.80210881,15.1589907 7.75053381,16.0835562 C6.28716423,17.3717948 4.87980503,18.7120993 3.52530069,20.1052587 C2.66700091,20.9888026 1.83000084,21.8928573 1.01351162,22.8205784 C-0.337837207,24.3573137 -0.337837207,26.8754138 1.01351162,28.4121491 C3.1182394,30.8040286 5.35944315,33.0452324 7.75053381,35.1491712 C9.28726908,36.501309 11.8061581,36.501309 13.3428933,35.1491712 C13.4596473,35.0458282 13.5748236,34.9416962 13.6907887,34.8375642 C15.5115203,33.2156301 17.2446863,31.5124415 18.8958089,29.7224762 L18.8958089,29.7224762 Z" id="Combined-Shape"></path>
                <path d="M34.3127032,14.1786514 C34.8870067,13.5262489 35.215969,12.6971376 35.3027457,11.8412045 C35.4202886,10.6807642 35.0913262,9.47141352 34.3127032,8.58708075 C34.1872715,8.44350487 34.0586843,8.3030845 33.9316749,8.16108637 C33.2145844,7.35800808 32.4817162,6.57070736 31.7322817,5.80155085 C31.0230799,5.0742049 30.2996784,4.36105875 29.5612881,3.6629013 C28.9104634,3.04836497 28.2501721,2.44329518 27.5764699,1.85005856 C27.0905207,1.42327531 26.5075396,1.13139027 25.8882699,0.974403457 C24.5463877,0.633607955 23.0356854,0.925492991 21.9841104,1.85005856 C20.5207408,3.13829712 19.1133816,4.47860165 17.7588773,5.87176103 C16.9005775,6.75530493 16.0635774,7.65935966 15.2470882,8.58708075 C13.8957394,10.123816 13.8957394,12.6419161 15.2470882,14.1786514 C17.351816,16.5705309 19.5930197,18.8117347 21.9841104,20.9156736 C23.5208456,22.2678113 26.0397346,22.2678113 27.5764699,20.9156736 C27.6932239,20.8123305 27.8084002,20.7081985 27.9243653,20.6040666 C29.7450968,18.9821324 31.4782628,17.2789438 33.1293855,15.4889785 C33.5277691,15.0566731 33.9237861,14.6212122 34.3127032,14.1786514 Z" id="Stroke-3"></path>
                <path d="M48.3606566,28.2266048 C48.9349602,27.5742023 49.2639225,26.7450911 49.3506991,25.8891579 C49.468242,24.7287177 49.1392797,23.519367 48.3606566,22.6350342 C48.235225,22.4914583 48.1066378,22.351038 47.9796283,22.2090398 C47.2625378,21.4059615 46.5296697,20.6186608 45.7802352,19.8495043 C45.0710334,19.1221584 44.3476318,18.4090122 43.6092416,17.7108548 C42.9584168,17.0963184 42.2981256,16.4912486 41.6244233,15.898012 C41.1384742,15.4712288 40.555493,15.1793437 39.9362234,15.0223569 C38.5943411,14.6815614 37.0836388,14.9734465 36.0320638,15.898012 C34.5686943,17.1862506 33.1613351,18.5265551 31.8068307,19.9197145 C30.9485309,20.8032584 30.1115309,21.7073131 29.2950416,22.6350342 C27.9436928,24.1717695 27.9436928,26.6898696 29.2950416,28.2266048 C31.3997694,30.6184844 33.6409732,32.8596881 36.0320638,34.963627 C37.5687991,36.3157647 40.0876881,36.3157647 41.6244233,34.963627 C41.7411774,34.8602839 41.8563536,34.756152 41.9723188,34.65202 C43.7930503,33.0300859 45.5262163,31.3268973 47.1773389,29.536932 C47.5757226,29.1046266 47.9717396,28.6691657 48.3606566,28.2266048 Z" id="Stroke-5"></path>
            </g>
        </g>
    </g>
</svg>