<svg>
    <symbol id='logo-cirros' width="42px" height="32px" viewBox="7 12 42 32" version="1.1" xmlns="http://www.w3.org/2000/svg" xmlns:xlink="http://www.w3.org/1999/xlink">
        <path d="M42.8061866,20.5710649 C41.6309253,17.4178655 38.5457631,15.2277163 35.0815366,15.2277163 C33.8763066,15.2277163 32.7107648,15.4836657 31.6391792,15.9777452 C29.7114591,13.4903383 26.7194431,12 23.4892969,12 C18.3225209,12 14.0143094,15.8246615 13.3096386,20.7695067 C9.63158098,21.7803448 7,25.1149767 7,29.0157751 C7,33.3831141 10.3119528,36.9963744 14.5756162,37.514753 C15.7954256,40.8493848 19.0231419,43.1553593 22.6914799,43.1553593 C25.1440583,43.1553593 27.445983,42.123462 29.061866,40.3715046 C30.3537625,41.2972963 31.9121379,41.8051452 33.5458402,41.8051452 C36.9711883,41.8051452 39.8781579,39.6182358 40.8671269,36.5071547 C45.3527211,36.4974351 49,32.8752652 49,28.4236896 C49,24.6443862 46.4064874,21.4442087 42.8061866,20.5710649 Z M44.6521001,32.227292 C44.0745941,32.6889729 43.2711073,32.9198133 42.24164,32.9198133 C41.2939792,32.9198133 40.454854,32.7424307 39.7250742,32.3852355 L39.7250742,30.634898 C40.3252594,30.9021869 40.8331083,31.0909091 41.2478112,31.2002546 C41.6633239,31.3096 42.0431982,31.3646777 42.3882439,31.3646777 C42.8013268,31.3646777 43.1180237,31.285301 43.3391445,31.1273576 C43.5602654,30.9694141 43.6704208,30.7337139 43.6704208,30.4218768 C43.6704208,30.247734 43.6218228,30.0930304 43.5246268,29.9569561 C43.4274309,29.8208817 43.2848768,29.6904771 43.0961546,29.5649323 C42.9074324,29.4393875 42.5235083,29.2385158 41.9443823,28.9631272 C41.4008948,28.7079878 40.9934817,28.462568 40.7221429,28.2276777 C40.4508042,27.9919775 40.2337332,27.7190188 40.0717399,27.4071817 C39.9097466,27.0953446 39.82875,26.7300498 39.82875,26.312917 C39.82875,25.5264396 40.0952289,24.9084352 40.6281868,24.4589038 C41.1611448,24.0093725 41.8974043,23.7842018 42.8377753,23.7842018 C43.2994562,23.7842018 43.7408879,23.8384695 44.1596405,23.947815 C44.5792031,24.0579705 45.018205,24.2118641 45.475836,24.4103059 L44.8683612,25.8747252 C44.3937208,25.6803332 44.0016971,25.5450688 43.6914799,25.468122 C43.3820727,25.3911752 43.0767154,25.3522968 42.7770278,25.3522968 C42.4206426,25.3522968 42.1468739,25.4357234 41.9565318,25.6017665 C41.7661897,25.7678096 41.6706136,25.9840707 41.6706136,26.2521696 C41.6706136,26.4182127 41.709492,26.5631967 41.7856289,26.6863116 C41.8633857,26.8102364 41.9856906,26.9293015 42.1541636,27.0451267 C42.3218267,27.1609519 42.7203302,27.3683033 43.3480542,27.6688009 C44.1790797,28.0656844 44.7484861,28.4641879 45.0562734,28.8626914 C45.3640606,29.2620049 45.5187642,29.7512246 45.5187642,30.3311606 C45.5187642,31.1330273 45.2296062,31.7656111 44.6521001,32.227292 Z M37.7098777,31.7348324 C36.980098,32.5253597 35.9352413,32.9198133 34.5736877,32.9198133 C33.2113241,32.9198133 32.1656574,32.5253597 31.4366876,31.7348324 C30.7069079,30.9451151 30.342423,29.8103521 30.342423,28.3305434 C30.342423,26.8515447 30.7085278,25.7224515 31.4399275,24.9416438 C32.1713272,24.1616462 33.2194238,23.7720523 34.5850272,23.7720523 C35.9506306,23.7720523 36.9954873,24.164886 37.7187874,24.9513634 C38.4420874,25.7370309 38.8041424,26.8677441 38.8041424,28.3435029 C38.8041424,29.814402 38.4396575,30.9451151 37.7098777,31.7348324 Z M34.5852702,25.3401473 C33.8360512,25.3401473 33.2698847,25.5928569 32.8892004,26.096656 C32.5085162,26.6012651 32.3181741,27.3496741 32.3181741,28.3435029 C32.3181741,29.3357118 32.5068963,30.0833108 32.8835307,30.5863 C33.2601651,31.0884792 33.8239017,31.3395688 34.5731207,31.3395688 C36.0764184,31.3395688 36.8288772,30.3408802 36.8288772,28.3435029 C36.8288772,26.3412659 36.0804682,25.3401473 34.5852702,25.3401473 Z M29.5915841,27.6688009 C29.4417403,27.6274926 29.2594978,27.6072434 29.0440467,27.6072434 C28.4527712,27.6072434 27.9919003,27.7595171 27.661434,28.0632545 C27.3309677,28.3669919 27.1657346,28.7930343 27.1657346,29.3397616 L27.1657346,32.7991283 L25.3117214,32.7991283 L25.3117214,26.0026999 L26.7162032,26.0026999 L26.9891619,27.1455625 L27.0806881,27.1455625 C27.2912794,26.7648783 27.5763875,26.457901 27.9343927,26.2246307 C28.2932079,25.9913604 28.6836117,25.8747252 29.1047942,25.8747252 C29.3558838,25.8747252 29.5648552,25.8933544 29.7308983,25.9298029 L29.5915841,27.6688009 Z M24.3114128,27.6688009 C24.161569,27.6274926 23.9793266,27.6072434 23.7646855,27.6072434 C23.1726,27.6072434 22.7117291,27.7595171 22.3812628,28.0632545 C22.0516064,28.3669919 21.8863733,28.7930343 21.8863733,29.3397616 L21.8863733,32.7991283 L20.0323601,32.7991283 L20.0323601,26.0026999 L21.4360319,26.0026999 L21.7098006,27.1455625 L21.8013268,27.1455625 C22.0119181,26.7648783 22.2962163,26.457901 22.6550314,26.2246307 C23.0138466,25.9913604 23.4034404,25.8747252 23.8254329,25.8747252 C24.0765225,25.8747252 24.2846839,25.8933544 24.451537,25.9298029 L24.3114128,27.6688009 Z M18.2933621,24.9181548 C18.1248891,25.0777182 17.8721796,25.1579049 17.5360435,25.1579049 C16.8637714,25.1579049 16.5268253,24.8533575 16.5268253,24.2458827 C16.5268253,23.6416477 16.8637714,23.3403402 17.5360435,23.3403402 C18.2091256,23.3403402 18.5452617,23.6416477 18.5452617,24.2458827 C18.5452617,24.5334208 18.4618352,24.7577815 18.2933621,24.9181548 Z M16.606202,32.7991283 L18.4602152,32.7991283 L18.4602152,26.0026999 L16.606202,26.0026999 L16.606202,32.7991283 Z M13.5024106,31.4189455 C13.8596058,31.4189455 14.1900721,31.3711575 14.4938095,31.2763914 C14.797547,31.1808154 15.1020943,31.0317815 15.4058318,30.8292899 L15.4058318,32.4160142 C15.1053342,32.6063563 14.8024068,32.7375709 14.4970494,32.8112778 C14.1908821,32.8841748 13.8045281,32.9198133 13.3387974,32.9198133 C11.223165,32.9198133 10.1653489,31.7591314 10.1653489,29.4369576 C10.1653489,28.2819455 10.452887,27.399892 11.0287731,26.7899873 C11.6038493,26.1800825 12.4292051,25.8747252 13.5024106,25.8747252 C14.288888,25.8747252 14.9943688,26.0294288 15.618043,26.337216 L15.0713156,27.7716666 C14.7797277,27.6542215 14.507579,27.5578355 14.2564894,27.4833185 C14.0053998,27.4079917 13.7543102,27.3699232 13.5024106,27.3699232 C12.5385505,27.3699232 12.0558105,28.0551549 12.0558105,29.4256181 C12.0558105,30.754773 12.5385505,31.4189455 13.5024106,31.4189455 Z" id="Combined-Shape" stroke="none" fill="#FFFFFF" fill-rule="evenodd"></path>
    </symbol>
    <symbol id="logo-ubuntu" width="55px" height="55px" viewBox="818 235 55 55" version="1.1" xmlns="http://www.w3.org/2000/svg" xmlns:xlink="http://www.w3.org/1999/xlink">
        <g id="Group-3" stroke="none" stroke-width="1" fill="none" fill-rule="evenodd" transform="translate(818.521361, 235.521361)">
            <path d="M12.1449519,24.71181 C10.3280222,24.71181 8.85602969,26.1839474 8.85602969,28.0007322 C8.85602969,29.8166482 10.3280222,31.2886408 12.1449519,31.2886408 C13.9608679,31.2886408 15.4328604,29.8166482 15.4328604,28.0007322 C15.4328604,26.1839474 13.9608679,24.71181 12.1449519,24.71181 L12.1449519,24.71181 Z M35.6226895,39.6567698 C34.0499093,40.5651622 33.5106373,42.5751235 34.4191745,44.1470348 C35.3265533,45.719815 37.3365145,46.2589422 38.9092947,45.3505498 C40.4819301,44.443171 41.0212022,42.4332098 40.1128097,40.8602848 C39.205431,39.2885182 37.1943112,38.749391 35.6226895,39.6567698 L35.6226895,39.6567698 Z M19.28741,28.0007322 C19.28741,24.7511983 20.901461,21.8803423 23.3711937,20.1418996 L20.9672047,16.1154606 C18.0902667,18.0385359 15.9496869,20.977163 15.0601197,24.4188596 C16.098117,25.2658527 16.7625048,26.5552399 16.7625048,28.0005874 C16.7625048,29.4450661 16.098117,30.7344533 15.0601197,31.5814463 C15.9485284,35.0241566 18.0891082,37.9629285 20.9672047,39.8860038 L23.3711937,35.8585512 C20.901461,34.1211222 19.28741,31.2504109 19.28741,28.0007322 L19.28741,28.0007322 Z M28.8919259,18.3952027 C33.9095885,18.3952027 38.026244,22.242367 38.4583567,27.1486708 L43.1438255,27.0795965 C42.9132882,23.4574668 41.3309505,20.2057607 38.8995925,17.8146599 C37.6493039,18.2870297 36.2051149,18.2147696 34.9568536,17.4952092 C33.7064202,16.7736216 32.9224195,15.5563496 32.7081009,14.2349594 C31.4928563,13.8995797 30.2138954,13.7159608 28.8916363,13.7159608 C26.6185554,13.7159608 24.4694319,14.2498748 22.561272,15.1943249 L24.8460824,19.2886797 C26.0752287,18.7166807 27.4464336,18.3952027 28.8919259,18.3952027 L28.8919259,18.3952027 Z M28.8919259,37.6052481 C27.4464336,37.6052481 26.0752287,37.2836253 24.8462272,36.7117711 L22.5614168,40.8059811 C24.4695767,41.7515896 26.6187002,42.2856485 28.8919259,42.2856485 C30.214185,42.2856485 31.4931459,42.1018848 32.7082457,41.7654914 C32.9225643,40.4441012 33.7068547,39.2279877 34.9569984,38.5050967 C36.2061285,37.7843779 37.6494487,37.7134211 38.8997373,38.1857909 C41.3310953,35.7946901 42.913433,32.542984 43.1439703,28.9208543 L38.4573431,28.8517799 C38.026244,33.7593871 33.9097333,37.6052481 28.8919259,37.6052481 L28.8919259,37.6052481 Z M35.621531,16.3426673 C37.1943112,17.250915 39.2044173,16.7129462 40.1117961,15.140166 C41.0201885,13.5673858 40.4822197,11.5572798 38.9092947,10.6487425 C37.3365145,9.74136376 35.3265533,10.280491 34.4178712,11.8532712 C33.5106373,13.4251825 34.0497645,15.4352886 35.621531,16.3426673 L35.621531,16.3426673 Z" id="Ubuntu" stroke="none" fill="#FFFFFF" fill-rule="evenodd"></path>
        </g>
    </symbol>
    <symbol id='logo-windows' width="33px" height="33px" viewBox="11 11 33 33" version="1.1" xmlns="http://www.w3.org/2000/svg" xmlns:xlink="http://www.w3.org/1999/xlink">
        <path d="M11.8165734,16.352502 L24.8615352,14.5759133 L24.8672376,27.1588348 L11.82849,27.2330866 L11.8165734,16.352502 Z M24.8553211,28.6086324 L24.8654465,41.2025201 L11.8266988,39.4098842 L11.8259678,28.5241565 L24.8553211,28.6086324 Z M26.4366759,14.3435041 L43.7332125,11.8190973 L43.7332125,26.9988022 L26.4366759,27.1361166 L26.4366759,14.3435041 Z M43.7372335,28.7270668 L43.733176,43.838416 L26.4366394,41.3972057 L26.4124042,28.6987741 L43.7372335,28.7270668 Z" id="Win" stroke="none" fill="#FFFFFF" fill-rule="evenodd"></path>
    </symbol>

    
    <symbol id="logo-coreos" width="32px" height="32px" viewBox="12 12 32 32" version="1.1" xmlns="http://www.w3.org/2000/svg" xmlns:xlink="http://www.w3.org/1999/xlink">
        <path d="M33.8843832,31.9672998 C33.7527983,31.9863936 33.6228416,32.0048954 33.4908127,32.0217691 C32.2902673,32.1770363 31.0086101,32.2824226 29.6692271,32.3324515 C29.0927108,32.3539136 28.5040572,32.3669388 27.908595,32.3669388 C27.3113567,32.3669388 26.7244793,32.3540616 26.1461868,32.3324515 C24.808432,32.2824226 23.5258866,32.1770363 22.3263774,32.0217691 C22.2193629,31.1267256 22.1468358,30.1954186 22.1105723,29.2374689 C22.0932546,28.7999382 22.0846698,28.3558948 22.0846698,27.9075589 C22.0846698,27.4587791 22.0932546,27.0156237 22.1105723,26.5772049 C22.1468358,25.6191072 22.2193629,24.6883923 22.3263774,23.7933488 C22.3478395,23.6069986 22.3721139,23.4218325 22.3971283,23.2388866 C23.1807169,17.5515787 25.350313,13.4597187 27.908447,13.4597187 C35.8868709,13.4597187 42.3558432,19.9278029 42.3559912,27.9075589 C42.3559912,29.7127434 38.8804635,31.2657112 33.8843832,31.9672998 M27.908447,12 C19.1356295,12 12,19.1360735 12,27.9075589 C12,36.6796364 19.1356295,43.8152659 27.908447,43.8152659 C36.6786003,43.8152659 43.8148218,36.6796364 43.8148218,27.9075589 C43.8148218,19.1360735 36.6786003,12 27.908447,12 Z M33.4182856,23.2390346 C32.092668,21.6764459 30.118007,20.6835648 27.908595,20.6835648 C27.192353,20.6835648 26.5545587,21.779908 26.1461868,23.4823704 C25.9839629,24.1611647 25.8580026,24.9357244 25.7768907,25.7762986 C25.7129484,26.4499124 25.678461,27.1663025 25.678461,27.9075589 C25.678461,28.6488154 25.7129484,29.3653534 25.7768907,30.0383752 C26.4509486,30.1023175 27.1663025,30.1366568 27.908595,30.1366568 C28.6499995,30.1366568 29.3653534,30.1023175 30.0394113,30.0383752 C31.5211842,29.8977615 32.8003252,29.6128336 33.7064698,29.2374689 C34.6013652,28.8672847 35.130961,28.4063677 35.130961,27.9075589 C35.130813,26.4025478 34.6712281,25.0046992 33.8842351,23.8473741 C33.739329,23.6360094 33.5839138,23.4335256 33.4182856,23.2390346 Z" id="Combined-Shape" stroke="none" fill="#FFFFFF" fill-rule="evenodd"></path>
    </symbol>

    <symbol id='logo-centos' width="40px" height="40px" viewBox="8 8 40 40" version="1.1" xmlns="http://www.w3.org/2000/svg" xmlns:xlink="http://www.w3.org/1999/xlink">
        <path d="M28.1260985,8.2484856 L23.8047164,12.596405 L26.6968114,12.596405 L26.6968114,24.0255808 L28.1260985,25.4637137 L29.540022,24.04141 L29.540022,12.6732234 L32.5238334,12.6732234 L28.1260985,8.2484856 Z M43.4706365,26.5746935 L32.2085988,26.5746935 L30.7518433,28.0398292 L32.0740503,29.3704163 L43.389628,29.3704163 L43.389628,32.539523 L47.8623191,28.0398292 L43.4706365,23.6211438 L43.4706365,26.5746935 Z M31.6865598,30.3022464 L30.4244108,30.3022464 L30.4244108,31.7115142 L38.0238421,39.195485 L34.753242,42.415804 L42.446252,42.415804 L42.446252,34.8112515 L39.3069415,37.9696502 L31.6865598,30.3022464 Z M39.3071743,36.6473966 L42.4460192,33.488998 L42.4460192,30.3021998 L33.0006194,30.3021998 L39.3071743,36.6473966 Z M8.13768093,28.0114762 L12.7202455,32.5246715 L12.7202455,29.3704629 L24.1345232,29.3704629 L25.5144604,28.0114762 L23.9776275,26.4979216 L12.7193144,26.4979216 L12.7193144,23.4996776 L8.13768093,28.0114762 Z M30.4718986,23.1035742 L36.6811502,16.8561462 L33.4501232,13.6050999 L30.4718986,13.6050999 L30.4718986,23.1035742 Z M30.4718986,24.4253156 L30.4718986,25.6423047 L31.8206428,25.6423047 L39.3074071,18.1103806 L42.538434,21.3614268 L42.538434,13.6050999 L34.76395,13.6050999 L37.994977,16.8561462 L30.4718986,24.4253156 Z M33.1347024,25.642491 L42.5382012,25.642491 L42.5382012,22.6833545 L39.3071743,19.4323082 L33.1347024,25.642491 Z M26.6972769,31.9287937 L26.6972769,43.3472615 L23.5351538,43.3472615 L28.0069137,47.7515144 L32.478208,43.3481927 L29.4925343,43.3481927 L29.4925343,32.1015187 L28.0069137,30.6387108 L26.6972769,31.9287937 Z M30.4245971,33.0195214 L30.4245971,42.4160368 L33.4247033,42.4160368 L36.6953034,39.1952523 L30.4245971,33.0195214 Z M24.3593915,25.5661382 L25.7644692,25.5661382 L25.7644692,24.4096726 L18.2567545,16.8563324 L21.5641342,13.5289334 L13.6513772,13.5289334 L13.6513772,21.2736211 L16.8260706,18.1468809 L24.3593915,25.5661382 Z M25.7646089,23.0878381 L25.7646089,13.5288403 L22.8781007,13.5288403 L19.5707209,16.8562393 L25.7646089,23.0878381 Z M16.8261172,19.455121 L13.6514237,22.5818611 L13.6514237,25.5661382 L23.0311787,25.5661382 L16.8261172,19.455121 Z M25.7650745,31.5392082 L25.7650745,30.3021998 L24.5164269,30.3021998 L16.8262103,37.8755593 L13.652448,34.7502158 L13.652448,42.4152918 L21.260725,42.4152918 L17.9910561,39.1954385 L25.7650745,31.5392082 Z M16.8261172,36.5678314 L23.1880744,30.3022464 L13.6523549,30.3022464 L13.6523549,33.442488 L16.8261172,36.5678314 Z M25.7650745,32.846843 L19.3188498,39.1952988 L22.5885187,42.4151522 L25.7650745,42.4151522 L25.7650745,32.846843 Z" id="CentOS" stroke="none" fill="#FFFFFF" fill-rule="evenodd"></path>
    </symbol>

    <symbol id='icon-overview'>
    <g id="Group-3" stroke="none" stroke-width="1" fill="none" fill-rule="evenodd" transform="translate(818.521361, 235.521361)">
        <path d="M34.3583088,35.8097647 C31.8974265,32.3915294 28.8974265,30.5094706 25.9115441,30.5094706 C22.9256618,30.5094706 19.9256618,32.3915294 17.4638971,35.8097647 C16.8453676,36.6700588 16.8453676,37.8259412 17.4638971,38.6853529 C19.9256618,42.1035882 22.9256618,43.9865294 25.9115441,43.9865294 C28.8974265,43.9865294 31.8974265,42.1035882 34.3583088,38.6853529 C34.9777206,37.8259412 34.9777206,36.6700588 34.3583088,35.8097647 Z M32.7833088,37.5515294 C30.6965441,40.4491765 28.2559559,42.0462353 25.9115441,42.0462353 C23.56625,42.0462353 21.1265441,40.4491765 19.0388971,37.5515294 C18.9083088,37.3697647 18.9083088,37.1262353 19.0388971,36.9444706 C21.1265441,34.0459412 23.56625,32.4497647 25.9115441,32.4497647 C28.2559559,32.4497647 30.6965441,34.0459412 32.7833088,36.9444706 C32.9138971,37.1262353 32.9138971,37.3697647 32.7833088,37.5515294 Z M25.9112794,35.4930882 C24.9371618,35.4930882 24.1465735,36.2792647 24.1465735,37.2480882 C24.1465735,38.2177941 24.9371618,39.0022059 25.9112794,39.0022059 C26.8862794,39.0022059 27.6759853,38.2177941 27.6759853,37.2480882 C27.6759853,36.2792647 26.8862794,35.4930882 25.9112794,35.4930882 Z" id="Combined-Shape" stroke="none" fill="#354052" fill-rule="evenodd"></path>
        </g>
    </symbol>


    <symbol id="logo-centos-dark" width="40px" height="40px" viewBox="8 8 40 40" version="1.1" xmlns="http://www.w3.org/2000/svg" xmlns:xlink="http://www.w3.org/1999/xlink">
        <path d="M28.1260985,8.2484856 L23.8047164,12.596405 L26.6968114,12.596405 L26.6968114,24.0255808 L28.1260985,25.4637137 L29.540022,24.04141 L29.540022,12.6732234 L32.5238334,12.6732234 L28.1260985,8.2484856 Z M43.4706365,26.5746935 L32.2085988,26.5746935 L30.7518433,28.0398292 L32.0740503,29.3704163 L43.389628,29.3704163 L43.389628,32.539523 L47.8623191,28.0398292 L43.4706365,23.6211438 L43.4706365,26.5746935 Z M31.6865598,30.3022464 L30.4244108,30.3022464 L30.4244108,31.7115142 L38.0238421,39.195485 L34.753242,42.415804 L42.446252,42.415804 L42.446252,34.8112515 L39.3069415,37.9696502 L31.6865598,30.3022464 Z M39.3071743,36.6473966 L42.4460192,33.488998 L42.4460192,30.3021998 L33.0006194,30.3021998 L39.3071743,36.6473966 Z M8.13768093,28.0114762 L12.7202455,32.5246715 L12.7202455,29.3704629 L24.1345232,29.3704629 L25.5144604,28.0114762 L23.9776275,26.4979216 L12.7193144,26.4979216 L12.7193144,23.4996776 L8.13768093,28.0114762 Z M30.4718986,23.1035742 L36.6811502,16.8561462 L33.4501232,13.6050999 L30.4718986,13.6050999 L30.4718986,23.1035742 Z M30.4718986,24.4253156 L30.4718986,25.6423047 L31.8206428,25.6423047 L39.3074071,18.1103806 L42.538434,21.3614268 L42.538434,13.6050999 L34.76395,13.6050999 L37.994977,16.8561462 L30.4718986,24.4253156 Z M33.1347024,25.642491 L42.5382012,25.642491 L42.5382012,22.6833545 L39.3071743,19.4323082 L33.1347024,25.642491 Z M26.6972769,31.9287937 L26.6972769,43.3472615 L23.5351538,43.3472615 L28.0069137,47.7515144 L32.478208,43.3481927 L29.4925343,43.3481927 L29.4925343,32.1015187 L28.0069137,30.6387108 L26.6972769,31.9287937 Z M30.4245971,33.0195214 L30.4245971,42.4160368 L33.4247033,42.4160368 L36.6953034,39.1952523 L30.4245971,33.0195214 Z M24.3593915,25.5661382 L25.7644692,25.5661382 L25.7644692,24.4096726 L18.2567545,16.8563324 L21.5641342,13.5289334 L13.6513772,13.5289334 L13.6513772,21.2736211 L16.8260706,18.1468809 L24.3593915,25.5661382 Z M25.7646089,23.0878381 L25.7646089,13.5288403 L22.8781007,13.5288403 L19.5707209,16.8562393 L25.7646089,23.0878381 Z M16.8261172,19.455121 L13.6514237,22.5818611 L13.6514237,25.5661382 L23.0311787,25.5661382 L16.8261172,19.455121 Z M25.7650745,31.5392082 L25.7650745,30.3021998 L24.5164269,30.3021998 L16.8262103,37.8755593 L13.652448,34.7502158 L13.652448,42.4152918 L21.260725,42.4152918 L17.9910561,39.1954385 L25.7650745,31.5392082 Z M16.8261172,36.5678314 L23.1880744,30.3022464 L13.6523549,30.3022464 L13.6523549,33.442488 L16.8261172,36.5678314 Z M25.7650745,32.846843 L19.3188498,39.1952988 L22.5885187,42.4151522 L25.7650745,42.4151522 L25.7650745,32.846843 Z" id="CentOS" stroke="none" fill="#354052" fill-rule="evenodd"></path>
    </symbol>

    <symbol id='logo-cirros-dark' width="42px" height="32px" viewBox="7 12 42 32" version="1.1" xmlns="http://www.w3.org/2000/svg" xmlns:xlink="http://www.w3.org/1999/xlink">
        <path d="M42.8061866,20.5710649 C41.6309253,17.4178655 38.5457631,15.2277163 35.0815366,15.2277163 C33.8763066,15.2277163 32.7107648,15.4836657 31.6391792,15.9777452 C29.7114591,13.4903383 26.7194431,12 23.4892969,12 C18.3225209,12 14.0143094,15.8246615 13.3096386,20.7695067 C9.63158098,21.7803448 7,25.1149767 7,29.0157751 C7,33.3831141 10.3119528,36.9963744 14.5756162,37.514753 C15.7954256,40.8493848 19.0231419,43.1553593 22.6914799,43.1553593 C25.1440583,43.1553593 27.445983,42.123462 29.061866,40.3715046 C30.3537625,41.2972963 31.9121379,41.8051452 33.5458402,41.8051452 C36.9711883,41.8051452 39.8781579,39.6182358 40.8671269,36.5071547 C45.3527211,36.4974351 49,32.8752652 49,28.4236896 C49,24.6443862 46.4064874,21.4442087 42.8061866,20.5710649 Z M44.6521001,32.227292 C44.0745941,32.6889729 43.2711073,32.9198133 42.24164,32.9198133 C41.2939792,32.9198133 40.454854,32.7424307 39.7250742,32.3852355 L39.7250742,30.634898 C40.3252594,30.9021869 40.8331083,31.0909091 41.2478112,31.2002546 C41.6633239,31.3096 42.0431982,31.3646777 42.3882439,31.3646777 C42.8013268,31.3646777 43.1180237,31.285301 43.3391445,31.1273576 C43.5602654,30.9694141 43.6704208,30.7337139 43.6704208,30.4218768 C43.6704208,30.247734 43.6218228,30.0930304 43.5246268,29.9569561 C43.4274309,29.8208817 43.2848768,29.6904771 43.0961546,29.5649323 C42.9074324,29.4393875 42.5235083,29.2385158 41.9443823,28.9631272 C41.4008948,28.7079878 40.9934817,28.462568 40.7221429,28.2276777 C40.4508042,27.9919775 40.2337332,27.7190188 40.0717399,27.4071817 C39.9097466,27.0953446 39.82875,26.7300498 39.82875,26.312917 C39.82875,25.5264396 40.0952289,24.9084352 40.6281868,24.4589038 C41.1611448,24.0093725 41.8974043,23.7842018 42.8377753,23.7842018 C43.2994562,23.7842018 43.7408879,23.8384695 44.1596405,23.947815 C44.5792031,24.0579705 45.018205,24.2118641 45.475836,24.4103059 L44.8683612,25.8747252 C44.3937208,25.6803332 44.0016971,25.5450688 43.6914799,25.468122 C43.3820727,25.3911752 43.0767154,25.3522968 42.7770278,25.3522968 C42.4206426,25.3522968 42.1468739,25.4357234 41.9565318,25.6017665 C41.7661897,25.7678096 41.6706136,25.9840707 41.6706136,26.2521696 C41.6706136,26.4182127 41.709492,26.5631967 41.7856289,26.6863116 C41.8633857,26.8102364 41.9856906,26.9293015 42.1541636,27.0451267 C42.3218267,27.1609519 42.7203302,27.3683033 43.3480542,27.6688009 C44.1790797,28.0656844 44.7484861,28.4641879 45.0562734,28.8626914 C45.3640606,29.2620049 45.5187642,29.7512246 45.5187642,30.3311606 C45.5187642,31.1330273 45.2296062,31.7656111 44.6521001,32.227292 Z M37.7098777,31.7348324 C36.980098,32.5253597 35.9352413,32.9198133 34.5736877,32.9198133 C33.2113241,32.9198133 32.1656574,32.5253597 31.4366876,31.7348324 C30.7069079,30.9451151 30.342423,29.8103521 30.342423,28.3305434 C30.342423,26.8515447 30.7085278,25.7224515 31.4399275,24.9416438 C32.1713272,24.1616462 33.2194238,23.7720523 34.5850272,23.7720523 C35.9506306,23.7720523 36.9954873,24.164886 37.7187874,24.9513634 C38.4420874,25.7370309 38.8041424,26.8677441 38.8041424,28.3435029 C38.8041424,29.814402 38.4396575,30.9451151 37.7098777,31.7348324 Z M34.5852702,25.3401473 C33.8360512,25.3401473 33.2698847,25.5928569 32.8892004,26.096656 C32.5085162,26.6012651 32.3181741,27.3496741 32.3181741,28.3435029 C32.3181741,29.3357118 32.5068963,30.0833108 32.8835307,30.5863 C33.2601651,31.0884792 33.8239017,31.3395688 34.5731207,31.3395688 C36.0764184,31.3395688 36.8288772,30.3408802 36.8288772,28.3435029 C36.8288772,26.3412659 36.0804682,25.3401473 34.5852702,25.3401473 Z M29.5915841,27.6688009 C29.4417403,27.6274926 29.2594978,27.6072434 29.0440467,27.6072434 C28.4527712,27.6072434 27.9919003,27.7595171 27.661434,28.0632545 C27.3309677,28.3669919 27.1657346,28.7930343 27.1657346,29.3397616 L27.1657346,32.7991283 L25.3117214,32.7991283 L25.3117214,26.0026999 L26.7162032,26.0026999 L26.9891619,27.1455625 L27.0806881,27.1455625 C27.2912794,26.7648783 27.5763875,26.457901 27.9343927,26.2246307 C28.2932079,25.9913604 28.6836117,25.8747252 29.1047942,25.8747252 C29.3558838,25.8747252 29.5648552,25.8933544 29.7308983,25.9298029 L29.5915841,27.6688009 Z M24.3114128,27.6688009 C24.161569,27.6274926 23.9793266,27.6072434 23.7646855,27.6072434 C23.1726,27.6072434 22.7117291,27.7595171 22.3812628,28.0632545 C22.0516064,28.3669919 21.8863733,28.7930343 21.8863733,29.3397616 L21.8863733,32.7991283 L20.0323601,32.7991283 L20.0323601,26.0026999 L21.4360319,26.0026999 L21.7098006,27.1455625 L21.8013268,27.1455625 C22.0119181,26.7648783 22.2962163,26.457901 22.6550314,26.2246307 C23.0138466,25.9913604 23.4034404,25.8747252 23.8254329,25.8747252 C24.0765225,25.8747252 24.2846839,25.8933544 24.451537,25.9298029 L24.3114128,27.6688009 Z M18.2933621,24.9181548 C18.1248891,25.0777182 17.8721796,25.1579049 17.5360435,25.1579049 C16.8637714,25.1579049 16.5268253,24.8533575 16.5268253,24.2458827 C16.5268253,23.6416477 16.8637714,23.3403402 17.5360435,23.3403402 C18.2091256,23.3403402 18.5452617,23.6416477 18.5452617,24.2458827 C18.5452617,24.5334208 18.4618352,24.7577815 18.2933621,24.9181548 Z M16.606202,32.7991283 L18.4602152,32.7991283 L18.4602152,26.0026999 L16.606202,26.0026999 L16.606202,32.7991283 Z M13.5024106,31.4189455 C13.8596058,31.4189455 14.1900721,31.3711575 14.4938095,31.2763914 C14.797547,31.1808154 15.1020943,31.0317815 15.4058318,30.8292899 L15.4058318,32.4160142 C15.1053342,32.6063563 14.8024068,32.7375709 14.4970494,32.8112778 C14.1908821,32.8841748 13.8045281,32.9198133 13.3387974,32.9198133 C11.223165,32.9198133 10.1653489,31.7591314 10.1653489,29.4369576 C10.1653489,28.2819455 10.452887,27.399892 11.0287731,26.7899873 C11.6038493,26.1800825 12.4292051,25.8747252 13.5024106,25.8747252 C14.288888,25.8747252 14.9943688,26.0294288 15.618043,26.337216 L15.0713156,27.7716666 C14.7797277,27.6542215 14.507579,27.5578355 14.2564894,27.4833185 C14.0053998,27.4079917 13.7543102,27.3699232 13.5024106,27.3699232 C12.5385505,27.3699232 12.0558105,28.0551549 12.0558105,29.4256181 C12.0558105,30.754773 12.5385505,31.4189455 13.5024106,31.4189455 Z" id="Combined-Shape" stroke="none" fill="#354052" fill-rule="evenodd"></path>
    </symbol>

    <symbol id="logo-windows-dark" width="33px" height="33px" viewBox="11 11 33 33" version="1.1" xmlns="http://www.w3.org/2000/svg" xmlns:xlink="http://www.w3.org/1999/xlink">
        <path d="M11.8165734,16.352502 L24.8615352,14.5759133 L24.8672376,27.1588348 L11.82849,27.2330866 L11.8165734,16.352502 Z M24.8553211,28.6086324 L24.8654465,41.2025201 L11.8266988,39.4098842 L11.8259678,28.5241565 L24.8553211,28.6086324 Z M26.4366759,14.3435041 L43.7332125,11.8190973 L43.7332125,26.9988022 L26.4366759,27.1361166 L26.4366759,14.3435041 Z M43.7372335,28.7270668 L43.733176,43.838416 L26.4366394,41.3972057 L26.4124042,28.6987741 L43.7372335,28.7270668 Z" id="Win" stroke="none" fill="#354052" fill-rule="evenodd"></path>
    </symbol>

    <symbol id="logo-ubuntu-dark" width="36px" height="36px" viewBox="8 10 36 36" version="1.1" xmlns="http://www.w3.org/2000/svg" xmlns:xlink="http://www.w3.org/1999/xlink">
        <path d="M12.1449519,24.71181 C10.3280222,24.71181 8.85602969,26.1839474 8.85602969,28.0007322 C8.85602969,29.8166482 10.3280222,31.2886408 12.1449519,31.2886408 C13.9608679,31.2886408 15.4328604,29.8166482 15.4328604,28.0007322 C15.4328604,26.1839474 13.9608679,24.71181 12.1449519,24.71181 L12.1449519,24.71181 Z M35.6226895,39.6567698 C34.0499093,40.5651622 33.5106373,42.5751235 34.4191745,44.1470348 C35.3265533,45.719815 37.3365145,46.2589422 38.9092947,45.3505498 C40.4819301,44.443171 41.0212022,42.4332098 40.1128097,40.8602848 C39.205431,39.2885182 37.1943112,38.749391 35.6226895,39.6567698 L35.6226895,39.6567698 Z M19.28741,28.0007322 C19.28741,24.7511983 20.901461,21.8803423 23.3711937,20.1418996 L20.9672047,16.1154606 C18.0902667,18.0385359 15.9496869,20.977163 15.0601197,24.4188596 C16.098117,25.2658527 16.7625048,26.5552399 16.7625048,28.0005874 C16.7625048,29.4450661 16.098117,30.7344533 15.0601197,31.5814463 C15.9485284,35.0241566 18.0891082,37.9629285 20.9672047,39.8860038 L23.3711937,35.8585512 C20.901461,34.1211222 19.28741,31.2504109 19.28741,28.0007322 L19.28741,28.0007322 Z M28.8919259,18.3952027 C33.9095885,18.3952027 38.026244,22.242367 38.4583567,27.1486708 L43.1438255,27.0795965 C42.9132882,23.4574668 41.3309505,20.2057607 38.8995925,17.8146599 C37.6493039,18.2870297 36.2051149,18.2147696 34.9568536,17.4952092 C33.7064202,16.7736216 32.9224195,15.5563496 32.7081009,14.2349594 C31.4928563,13.8995797 30.2138954,13.7159608 28.8916363,13.7159608 C26.6185554,13.7159608 24.4694319,14.2498748 22.561272,15.1943249 L24.8460824,19.2886797 C26.0752287,18.7166807 27.4464336,18.3952027 28.8919259,18.3952027 L28.8919259,18.3952027 Z M28.8919259,37.6052481 C27.4464336,37.6052481 26.0752287,37.2836253 24.8462272,36.7117711 L22.5614168,40.8059811 C24.4695767,41.7515896 26.6187002,42.2856485 28.8919259,42.2856485 C30.214185,42.2856485 31.4931459,42.1018848 32.7082457,41.7654914 C32.9225643,40.4441012 33.7068547,39.2279877 34.9569984,38.5050967 C36.2061285,37.7843779 37.6494487,37.7134211 38.8997373,38.1857909 C41.3310953,35.7946901 42.913433,32.542984 43.1439703,28.9208543 L38.4573431,28.8517799 C38.026244,33.7593871 33.9097333,37.6052481 28.8919259,37.6052481 L28.8919259,37.6052481 Z M35.621531,16.3426673 C37.1943112,17.250915 39.2044173,16.7129462 40.1117961,15.140166 C41.0201885,13.5673858 40.4822197,11.5572798 38.9092947,10.6487425 C37.3365145,9.74136376 35.3265533,10.280491 34.4178712,11.8532712 C33.5106373,13.4251825 34.0497645,15.4352886 35.621531,16.3426673 L35.621531,16.3426673 Z" id="Ubuntu" stroke="none" fill="#354052" fill-rule="evenodd"></path>
    </symbol>

    <symbol id="logo-coreos-dark" width="32px" height="32px" viewBox="12 12 32 32" version="1.1" xmlns="http://www.w3.org/2000/svg" xmlns:xlink="http://www.w3.org/1999/xlink">
        <path d="M33.8843832,31.9672998 C33.7527983,31.9863936 33.6228416,32.0048954 33.4908127,32.0217691 C32.2902673,32.1770363 31.0086101,32.2824226 29.6692271,32.3324515 C29.0927108,32.3539136 28.5040572,32.3669388 27.908595,32.3669388 C27.3113567,32.3669388 26.7244793,32.3540616 26.1461868,32.3324515 C24.808432,32.2824226 23.5258866,32.1770363 22.3263774,32.0217691 C22.2193629,31.1267256 22.1468358,30.1954186 22.1105723,29.2374689 C22.0932546,28.7999382 22.0846698,28.3558948 22.0846698,27.9075589 C22.0846698,27.4587791 22.0932546,27.0156237 22.1105723,26.5772049 C22.1468358,25.6191072 22.2193629,24.6883923 22.3263774,23.7933488 C22.3478395,23.6069986 22.3721139,23.4218325 22.3971283,23.2388866 C23.1807169,17.5515787 25.350313,13.4597187 27.908447,13.4597187 C35.8868709,13.4597187 42.3558432,19.9278029 42.3559912,27.9075589 C42.3559912,29.7127434 38.8804635,31.2657112 33.8843832,31.9672998 M27.908447,12 C19.1356295,12 12,19.1360735 12,27.9075589 C12,36.6796364 19.1356295,43.8152659 27.908447,43.8152659 C36.6786003,43.8152659 43.8148218,36.6796364 43.8148218,27.9075589 C43.8148218,19.1360735 36.6786003,12 27.908447,12 Z M33.4182856,23.2390346 C32.092668,21.6764459 30.118007,20.6835648 27.908595,20.6835648 C27.192353,20.6835648 26.5545587,21.779908 26.1461868,23.4823704 C25.9839629,24.1611647 25.8580026,24.9357244 25.7768907,25.7762986 C25.7129484,26.4499124 25.678461,27.1663025 25.678461,27.9075589 C25.678461,28.6488154 25.7129484,29.3653534 25.7768907,30.0383752 C26.4509486,30.1023175 27.1663025,30.1366568 27.908595,30.1366568 C28.6499995,30.1366568 29.3653534,30.1023175 30.0394113,30.0383752 C31.5211842,29.8977615 32.8003252,29.6128336 33.7064698,29.2374689 C34.6013652,28.8672847 35.130961,28.4063677 35.130961,27.9075589 C35.130813,26.4025478 34.6712281,25.0046992 33.8842351,23.8473741 C33.739329,23.6360094 33.5839138,23.4335256 33.4182856,23.2390346 Z" id="Combined-Shape" stroke="none" fill="#354052" fill-rule="evenodd"></path>
    </symbol>
</svg>