
<svg>

    <symbol xmlns="http://www.w3.org/2000/svg" xmlns:xlink="http://www.w3.org/1999/xlink" id="logo-cirros" width="42px" height="32px" viewBox="7 12 42 32" version="1.1">
        <path d="M42.8061866,20.5710649 C41.6309253,17.4178655 38.5457631,15.2277163 35.0815366,15.2277163 C33.8763066,15.2277163 32.7107648,15.4836657 31.6391792,15.9777452 C29.7114591,13.4903383 26.7194431,12 23.4892969,12 C18.3225209,12 14.0143094,15.8246615 13.3096386,20.7695067 C9.63158098,21.7803448 7,25.1149767 7,29.0157751 C7,33.3831141 10.3119528,36.9963744 14.5756162,37.514753 C15.7954256,40.8493848 19.0231419,43.1553593 22.6914799,43.1553593 C25.1440583,43.1553593 27.445983,42.123462 29.061866,40.3715046 C30.3537625,41.2972963 31.9121379,41.8051452 33.5458402,41.8051452 C36.9711883,41.8051452 39.8781579,39.6182358 40.8671269,36.5071547 C45.3527211,36.4974351 49,32.8752652 49,28.4236896 C49,24.6443862 46.4064874,21.4442087 42.8061866,20.5710649 Z M44.6521001,32.227292 C44.0745941,32.6889729 43.2711073,32.9198133 42.24164,32.9198133 C41.2939792,32.9198133 40.454854,32.7424307 39.7250742,32.3852355 L39.7250742,30.634898 C40.3252594,30.9021869 40.8331083,31.0909091 41.2478112,31.2002546 C41.6633239,31.3096 42.0431982,31.3646777 42.3882439,31.3646777 C42.8013268,31.3646777 43.1180237,31.285301 43.3391445,31.1273576 C43.5602654,30.9694141 43.6704208,30.7337139 43.6704208,30.4218768 C43.6704208,30.247734 43.6218228,30.0930304 43.5246268,29.9569561 C43.4274309,29.8208817 43.2848768,29.6904771 43.0961546,29.5649323 C42.9074324,29.4393875 42.5235083,29.2385158 41.9443823,28.9631272 C41.4008948,28.7079878 40.9934817,28.462568 40.7221429,28.2276777 C40.4508042,27.9919775 40.2337332,27.7190188 40.0717399,27.4071817 C39.9097466,27.0953446 39.82875,26.7300498 39.82875,26.312917 C39.82875,25.5264396 40.0952289,24.9084352 40.6281868,24.4589038 C41.1611448,24.0093725 41.8974043,23.7842018 42.8377753,23.7842018 C43.2994562,23.7842018 43.7408879,23.8384695 44.1596405,23.947815 C44.5792031,24.0579705 45.018205,24.2118641 45.475836,24.4103059 L44.8683612,25.8747252 C44.3937208,25.6803332 44.0016971,25.5450688 43.6914799,25.468122 C43.3820727,25.3911752 43.0767154,25.3522968 42.7770278,25.3522968 C42.4206426,25.3522968 42.1468739,25.4357234 41.9565318,25.6017665 C41.7661897,25.7678096 41.6706136,25.9840707 41.6706136,26.2521696 C41.6706136,26.4182127 41.709492,26.5631967 41.7856289,26.6863116 C41.8633857,26.8102364 41.9856906,26.9293015 42.1541636,27.0451267 C42.3218267,27.1609519 42.7203302,27.3683033 43.3480542,27.6688009 C44.1790797,28.0656844 44.7484861,28.4641879 45.0562734,28.8626914 C45.3640606,29.2620049 45.5187642,29.7512246 45.5187642,30.3311606 C45.5187642,31.1330273 45.2296062,31.7656111 44.6521001,32.227292 Z M37.7098777,31.7348324 C36.980098,32.5253597 35.9352413,32.9198133 34.5736877,32.9198133 C33.2113241,32.9198133 32.1656574,32.5253597 31.4366876,31.7348324 C30.7069079,30.9451151 30.342423,29.8103521 30.342423,28.3305434 C30.342423,26.8515447 30.7085278,25.7224515 31.4399275,24.9416438 C32.1713272,24.1616462 33.2194238,23.7720523 34.5850272,23.7720523 C35.9506306,23.7720523 36.9954873,24.164886 37.7187874,24.9513634 C38.4420874,25.7370309 38.8041424,26.8677441 38.8041424,28.3435029 C38.8041424,29.814402 38.4396575,30.9451151 37.7098777,31.7348324 Z M34.5852702,25.3401473 C33.8360512,25.3401473 33.2698847,25.5928569 32.8892004,26.096656 C32.5085162,26.6012651 32.3181741,27.3496741 32.3181741,28.3435029 C32.3181741,29.3357118 32.5068963,30.0833108 32.8835307,30.5863 C33.2601651,31.0884792 33.8239017,31.3395688 34.5731207,31.3395688 C36.0764184,31.3395688 36.8288772,30.3408802 36.8288772,28.3435029 C36.8288772,26.3412659 36.0804682,25.3401473 34.5852702,25.3401473 Z M29.5915841,27.6688009 C29.4417403,27.6274926 29.2594978,27.6072434 29.0440467,27.6072434 C28.4527712,27.6072434 27.9919003,27.7595171 27.661434,28.0632545 C27.3309677,28.3669919 27.1657346,28.7930343 27.1657346,29.3397616 L27.1657346,32.7991283 L25.3117214,32.7991283 L25.3117214,26.0026999 L26.7162032,26.0026999 L26.9891619,27.1455625 L27.0806881,27.1455625 C27.2912794,26.7648783 27.5763875,26.457901 27.9343927,26.2246307 C28.2932079,25.9913604 28.6836117,25.8747252 29.1047942,25.8747252 C29.3558838,25.8747252 29.5648552,25.8933544 29.7308983,25.9298029 L29.5915841,27.6688009 Z M24.3114128,27.6688009 C24.161569,27.6274926 23.9793266,27.6072434 23.7646855,27.6072434 C23.1726,27.6072434 22.7117291,27.7595171 22.3812628,28.0632545 C22.0516064,28.3669919 21.8863733,28.7930343 21.8863733,29.3397616 L21.8863733,32.7991283 L20.0323601,32.7991283 L20.0323601,26.0026999 L21.4360319,26.0026999 L21.7098006,27.1455625 L21.8013268,27.1455625 C22.0119181,26.7648783 22.2962163,26.457901 22.6550314,26.2246307 C23.0138466,25.9913604 23.4034404,25.8747252 23.8254329,25.8747252 C24.0765225,25.8747252 24.2846839,25.8933544 24.451537,25.9298029 L24.3114128,27.6688009 Z M18.2933621,24.9181548 C18.1248891,25.0777182 17.8721796,25.1579049 17.5360435,25.1579049 C16.8637714,25.1579049 16.5268253,24.8533575 16.5268253,24.2458827 C16.5268253,23.6416477 16.8637714,23.3403402 17.5360435,23.3403402 C18.2091256,23.3403402 18.5452617,23.6416477 18.5452617,24.2458827 C18.5452617,24.5334208 18.4618352,24.7577815 18.2933621,24.9181548 Z M16.606202,32.7991283 L18.4602152,32.7991283 L18.4602152,26.0026999 L16.606202,26.0026999 L16.606202,32.7991283 Z M13.5024106,31.4189455 C13.8596058,31.4189455 14.1900721,31.3711575 14.4938095,31.2763914 C14.797547,31.1808154 15.1020943,31.0317815 15.4058318,30.8292899 L15.4058318,32.4160142 C15.1053342,32.6063563 14.8024068,32.7375709 14.4970494,32.8112778 C14.1908821,32.8841748 13.8045281,32.9198133 13.3387974,32.9198133 C11.223165,32.9198133 10.1653489,31.7591314 10.1653489,29.4369576 C10.1653489,28.2819455 10.452887,27.399892 11.0287731,26.7899873 C11.6038493,26.1800825 12.4292051,25.8747252 13.5024106,25.8747252 C14.288888,25.8747252 14.9943688,26.0294288 15.618043,26.337216 L15.0713156,27.7716666 C14.7797277,27.6542215 14.507579,27.5578355 14.2564894,27.4833185 C14.0053998,27.4079917 13.7543102,27.3699232 13.5024106,27.3699232 C12.5385505,27.3699232 12.0558105,28.0551549 12.0558105,29.4256181 C12.0558105,30.754773 12.5385505,31.4189455 13.5024106,31.4189455 Z" id="Combined-Shape" stroke="none" fill="#FFFFFF" fill-rule="evenodd"/>
    </symbol>
    <symbol xmlns="http://www.w3.org/2000/svg" xmlns:xlink="http://www.w3.org/1999/xlink" id="logo-ubuntu" width="55px" height="55px" viewBox="818 235 55 55" version="1.1">
        <g id="Group-3" stroke="none" stroke-width="1" fill="none" fill-rule="evenodd" transform="translate(818.521361, 235.521361)">
            <path d="M12.1449519,24.71181 C10.3280222,24.71181 8.85602969,26.1839474 8.85602969,28.0007322 C8.85602969,29.8166482 10.3280222,31.2886408 12.1449519,31.2886408 C13.9608679,31.2886408 15.4328604,29.8166482 15.4328604,28.0007322 C15.4328604,26.1839474 13.9608679,24.71181 12.1449519,24.71181 L12.1449519,24.71181 Z M35.6226895,39.6567698 C34.0499093,40.5651622 33.5106373,42.5751235 34.4191745,44.1470348 C35.3265533,45.719815 37.3365145,46.2589422 38.9092947,45.3505498 C40.4819301,44.443171 41.0212022,42.4332098 40.1128097,40.8602848 C39.205431,39.2885182 37.1943112,38.749391 35.6226895,39.6567698 L35.6226895,39.6567698 Z M19.28741,28.0007322 C19.28741,24.7511983 20.901461,21.8803423 23.3711937,20.1418996 L20.9672047,16.1154606 C18.0902667,18.0385359 15.9496869,20.977163 15.0601197,24.4188596 C16.098117,25.2658527 16.7625048,26.5552399 16.7625048,28.0005874 C16.7625048,29.4450661 16.098117,30.7344533 15.0601197,31.5814463 C15.9485284,35.0241566 18.0891082,37.9629285 20.9672047,39.8860038 L23.3711937,35.8585512 C20.901461,34.1211222 19.28741,31.2504109 19.28741,28.0007322 L19.28741,28.0007322 Z M28.8919259,18.3952027 C33.9095885,18.3952027 38.026244,22.242367 38.4583567,27.1486708 L43.1438255,27.0795965 C42.9132882,23.4574668 41.3309505,20.2057607 38.8995925,17.8146599 C37.6493039,18.2870297 36.2051149,18.2147696 34.9568536,17.4952092 C33.7064202,16.7736216 32.9224195,15.5563496 32.7081009,14.2349594 C31.4928563,13.8995797 30.2138954,13.7159608 28.8916363,13.7159608 C26.6185554,13.7159608 24.4694319,14.2498748 22.561272,15.1943249 L24.8460824,19.2886797 C26.0752287,18.7166807 27.4464336,18.3952027 28.8919259,18.3952027 L28.8919259,18.3952027 Z M28.8919259,37.6052481 C27.4464336,37.6052481 26.0752287,37.2836253 24.8462272,36.7117711 L22.5614168,40.8059811 C24.4695767,41.7515896 26.6187002,42.2856485 28.8919259,42.2856485 C30.214185,42.2856485 31.4931459,42.1018848 32.7082457,41.7654914 C32.9225643,40.4441012 33.7068547,39.2279877 34.9569984,38.5050967 C36.2061285,37.7843779 37.6494487,37.7134211 38.8997373,38.1857909 C41.3310953,35.7946901 42.913433,32.542984 43.1439703,28.9208543 L38.4573431,28.8517799 C38.026244,33.7593871 33.9097333,37.6052481 28.8919259,37.6052481 L28.8919259,37.6052481 Z M35.621531,16.3426673 C37.1943112,17.250915 39.2044173,16.7129462 40.1117961,15.140166 C41.0201885,13.5673858 40.4822197,11.5572798 38.9092947,10.6487425 C37.3365145,9.74136376 35.3265533,10.280491 34.4178712,11.8532712 C33.5106373,13.4251825 34.0497645,15.4352886 35.621531,16.3426673 L35.621531,16.3426673 Z" id="Ubuntu" stroke="none" fill="#FFFFFF" fill-rule="evenodd"/>
        </g>
    </symbol>
    <symbol xmlns="http://www.w3.org/2000/svg" xmlns:xlink="http://www.w3.org/1999/xlink" id="logo-windows" width="33px" height="33px" viewBox="11 11 33 33" version="1.1">
        <path d="M11.8165734,16.352502 L24.8615352,14.5759133 L24.8672376,27.1588348 L11.82849,27.2330866 L11.8165734,16.352502 Z M24.8553211,28.6086324 L24.8654465,41.2025201 L11.8266988,39.4098842 L11.8259678,28.5241565 L24.8553211,28.6086324 Z M26.4366759,14.3435041 L43.7332125,11.8190973 L43.7332125,26.9988022 L26.4366759,27.1361166 L26.4366759,14.3435041 Z M43.7372335,28.7270668 L43.733176,43.838416 L26.4366394,41.3972057 L26.4124042,28.6987741 L43.7372335,28.7270668 Z" id="Win" stroke="none" fill="#FFFFFF" fill-rule="evenodd"/>
    </symbol>
    <symbol xmlns="http://www.w3.org/2000/svg" xmlns:xlink="http://www.w3.org/1999/xlink" id="logo-coreos" width="32px" height="32px" viewBox="12 12 32 32" version="1.1">
        <path d="M33.8843832,31.9672998 C33.7527983,31.9863936 33.6228416,32.0048954 33.4908127,32.0217691 C32.2902673,32.1770363 31.0086101,32.2824226 29.6692271,32.3324515 C29.0927108,32.3539136 28.5040572,32.3669388 27.908595,32.3669388 C27.3113567,32.3669388 26.7244793,32.3540616 26.1461868,32.3324515 C24.808432,32.2824226 23.5258866,32.1770363 22.3263774,32.0217691 C22.2193629,31.1267256 22.1468358,30.1954186 22.1105723,29.2374689 C22.0932546,28.7999382 22.0846698,28.3558948 22.0846698,27.9075589 C22.0846698,27.4587791 22.0932546,27.0156237 22.1105723,26.5772049 C22.1468358,25.6191072 22.2193629,24.6883923 22.3263774,23.7933488 C22.3478395,23.6069986 22.3721139,23.4218325 22.3971283,23.2388866 C23.1807169,17.5515787 25.350313,13.4597187 27.908447,13.4597187 C35.8868709,13.4597187 42.3558432,19.9278029 42.3559912,27.9075589 C42.3559912,29.7127434 38.8804635,31.2657112 33.8843832,31.9672998 M27.908447,12 C19.1356295,12 12,19.1360735 12,27.9075589 C12,36.6796364 19.1356295,43.8152659 27.908447,43.8152659 C36.6786003,43.8152659 43.8148218,36.6796364 43.8148218,27.9075589 C43.8148218,19.1360735 36.6786003,12 27.908447,12 Z M33.4182856,23.2390346 C32.092668,21.6764459 30.118007,20.6835648 27.908595,20.6835648 C27.192353,20.6835648 26.5545587,21.779908 26.1461868,23.4823704 C25.9839629,24.1611647 25.8580026,24.9357244 25.7768907,25.7762986 C25.7129484,26.4499124 25.678461,27.1663025 25.678461,27.9075589 C25.678461,28.6488154 25.7129484,29.3653534 25.7768907,30.0383752 C26.4509486,30.1023175 27.1663025,30.1366568 27.908595,30.1366568 C28.6499995,30.1366568 29.3653534,30.1023175 30.0394113,30.0383752 C31.5211842,29.8977615 32.8003252,29.6128336 33.7064698,29.2374689 C34.6013652,28.8672847 35.130961,28.4063677 35.130961,27.9075589 C35.130813,26.4025478 34.6712281,25.0046992 33.8842351,23.8473741 C33.739329,23.6360094 33.5839138,23.4335256 33.4182856,23.2390346 Z" id="Combined-Shape" stroke="none" fill="#FFFFFF" fill-rule="evenodd"/>
    </symbol>
    <symbol xmlns="http://www.w3.org/2000/svg" xmlns:xlink="http://www.w3.org/1999/xlink" id="logo-centos" width="40px" height="40px" viewBox="8 8 40 40" version="1.1">
        <path d="M28.1260985,8.2484856 L23.8047164,12.596405 L26.6968114,12.596405 L26.6968114,24.0255808 L28.1260985,25.4637137 L29.540022,24.04141 L29.540022,12.6732234 L32.5238334,12.6732234 L28.1260985,8.2484856 Z M43.4706365,26.5746935 L32.2085988,26.5746935 L30.7518433,28.0398292 L32.0740503,29.3704163 L43.389628,29.3704163 L43.389628,32.539523 L47.8623191,28.0398292 L43.4706365,23.6211438 L43.4706365,26.5746935 Z M31.6865598,30.3022464 L30.4244108,30.3022464 L30.4244108,31.7115142 L38.0238421,39.195485 L34.753242,42.415804 L42.446252,42.415804 L42.446252,34.8112515 L39.3069415,37.9696502 L31.6865598,30.3022464 Z M39.3071743,36.6473966 L42.4460192,33.488998 L42.4460192,30.3021998 L33.0006194,30.3021998 L39.3071743,36.6473966 Z M8.13768093,28.0114762 L12.7202455,32.5246715 L12.7202455,29.3704629 L24.1345232,29.3704629 L25.5144604,28.0114762 L23.9776275,26.4979216 L12.7193144,26.4979216 L12.7193144,23.4996776 L8.13768093,28.0114762 Z M30.4718986,23.1035742 L36.6811502,16.8561462 L33.4501232,13.6050999 L30.4718986,13.6050999 L30.4718986,23.1035742 Z M30.4718986,24.4253156 L30.4718986,25.6423047 L31.8206428,25.6423047 L39.3074071,18.1103806 L42.538434,21.3614268 L42.538434,13.6050999 L34.76395,13.6050999 L37.994977,16.8561462 L30.4718986,24.4253156 Z M33.1347024,25.642491 L42.5382012,25.642491 L42.5382012,22.6833545 L39.3071743,19.4323082 L33.1347024,25.642491 Z M26.6972769,31.9287937 L26.6972769,43.3472615 L23.5351538,43.3472615 L28.0069137,47.7515144 L32.478208,43.3481927 L29.4925343,43.3481927 L29.4925343,32.1015187 L28.0069137,30.6387108 L26.6972769,31.9287937 Z M30.4245971,33.0195214 L30.4245971,42.4160368 L33.4247033,42.4160368 L36.6953034,39.1952523 L30.4245971,33.0195214 Z M24.3593915,25.5661382 L25.7644692,25.5661382 L25.7644692,24.4096726 L18.2567545,16.8563324 L21.5641342,13.5289334 L13.6513772,13.5289334 L13.6513772,21.2736211 L16.8260706,18.1468809 L24.3593915,25.5661382 Z M25.7646089,23.0878381 L25.7646089,13.5288403 L22.8781007,13.5288403 L19.5707209,16.8562393 L25.7646089,23.0878381 Z M16.8261172,19.455121 L13.6514237,22.5818611 L13.6514237,25.5661382 L23.0311787,25.5661382 L16.8261172,19.455121 Z M25.7650745,31.5392082 L25.7650745,30.3021998 L24.5164269,30.3021998 L16.8262103,37.8755593 L13.652448,34.7502158 L13.652448,42.4152918 L21.260725,42.4152918 L17.9910561,39.1954385 L25.7650745,31.5392082 Z M16.8261172,36.5678314 L23.1880744,30.3022464 L13.6523549,30.3022464 L13.6523549,33.442488 L16.8261172,36.5678314 Z M25.7650745,32.846843 L19.3188498,39.1952988 L22.5885187,42.4151522 L25.7650745,42.4151522 L25.7650745,32.846843 Z" id="CentOS" stroke="none" fill="#FFFFFF" fill-rule="evenodd"/>
    </symbol>
    <symbol id="icon-overview">
        <g id="Group-3" stroke="none" stroke-width="1" fill="none" fill-rule="evenodd" transform="translate(818.521361, 235.521361)">
            <path d="M34.3583088,35.8097647 C31.8974265,32.3915294 28.8974265,30.5094706 25.9115441,30.5094706 C22.9256618,30.5094706 19.9256618,32.3915294 17.4638971,35.8097647 C16.8453676,36.6700588 16.8453676,37.8259412 17.4638971,38.6853529 C19.9256618,42.1035882 22.9256618,43.9865294 25.9115441,43.9865294 C28.8974265,43.9865294 31.8974265,42.1035882 34.3583088,38.6853529 C34.9777206,37.8259412 34.9777206,36.6700588 34.3583088,35.8097647 Z M32.7833088,37.5515294 C30.6965441,40.4491765 28.2559559,42.0462353 25.9115441,42.0462353 C23.56625,42.0462353 21.1265441,40.4491765 19.0388971,37.5515294 C18.9083088,37.3697647 18.9083088,37.1262353 19.0388971,36.9444706 C21.1265441,34.0459412 23.56625,32.4497647 25.9115441,32.4497647 C28.2559559,32.4497647 30.6965441,34.0459412 32.7833088,36.9444706 C32.9138971,37.1262353 32.9138971,37.3697647 32.7833088,37.5515294 Z M25.9112794,35.4930882 C24.9371618,35.4930882 24.1465735,36.2792647 24.1465735,37.2480882 C24.1465735,38.2177941 24.9371618,39.0022059 25.9112794,39.0022059 C26.8862794,39.0022059 27.6759853,38.2177941 27.6759853,37.2480882 C27.6759853,36.2792647 26.8862794,35.4930882 25.9112794,35.4930882 Z" id="Combined-Shape" stroke="none" fill="#354052" fill-rule="evenodd"/>
        </g>
    </symbol>
    <symbol xmlns="http://www.w3.org/2000/svg" xmlns:xlink="http://www.w3.org/1999/xlink" id="logo-centos-dark" width="40px" height="40px" viewBox="8 8 40 40" version="1.1">
        <path d="M28.1260985,8.2484856 L23.8047164,12.596405 L26.6968114,12.596405 L26.6968114,24.0255808 L28.1260985,25.4637137 L29.540022,24.04141 L29.540022,12.6732234 L32.5238334,12.6732234 L28.1260985,8.2484856 Z M43.4706365,26.5746935 L32.2085988,26.5746935 L30.7518433,28.0398292 L32.0740503,29.3704163 L43.389628,29.3704163 L43.389628,32.539523 L47.8623191,28.0398292 L43.4706365,23.6211438 L43.4706365,26.5746935 Z M31.6865598,30.3022464 L30.4244108,30.3022464 L30.4244108,31.7115142 L38.0238421,39.195485 L34.753242,42.415804 L42.446252,42.415804 L42.446252,34.8112515 L39.3069415,37.9696502 L31.6865598,30.3022464 Z M39.3071743,36.6473966 L42.4460192,33.488998 L42.4460192,30.3021998 L33.0006194,30.3021998 L39.3071743,36.6473966 Z M8.13768093,28.0114762 L12.7202455,32.5246715 L12.7202455,29.3704629 L24.1345232,29.3704629 L25.5144604,28.0114762 L23.9776275,26.4979216 L12.7193144,26.4979216 L12.7193144,23.4996776 L8.13768093,28.0114762 Z M30.4718986,23.1035742 L36.6811502,16.8561462 L33.4501232,13.6050999 L30.4718986,13.6050999 L30.4718986,23.1035742 Z M30.4718986,24.4253156 L30.4718986,25.6423047 L31.8206428,25.6423047 L39.3074071,18.1103806 L42.538434,21.3614268 L42.538434,13.6050999 L34.76395,13.6050999 L37.994977,16.8561462 L30.4718986,24.4253156 Z M33.1347024,25.642491 L42.5382012,25.642491 L42.5382012,22.6833545 L39.3071743,19.4323082 L33.1347024,25.642491 Z M26.6972769,31.9287937 L26.6972769,43.3472615 L23.5351538,43.3472615 L28.0069137,47.7515144 L32.478208,43.3481927 L29.4925343,43.3481927 L29.4925343,32.1015187 L28.0069137,30.6387108 L26.6972769,31.9287937 Z M30.4245971,33.0195214 L30.4245971,42.4160368 L33.4247033,42.4160368 L36.6953034,39.1952523 L30.4245971,33.0195214 Z M24.3593915,25.5661382 L25.7644692,25.5661382 L25.7644692,24.4096726 L18.2567545,16.8563324 L21.5641342,13.5289334 L13.6513772,13.5289334 L13.6513772,21.2736211 L16.8260706,18.1468809 L24.3593915,25.5661382 Z M25.7646089,23.0878381 L25.7646089,13.5288403 L22.8781007,13.5288403 L19.5707209,16.8562393 L25.7646089,23.0878381 Z M16.8261172,19.455121 L13.6514237,22.5818611 L13.6514237,25.5661382 L23.0311787,25.5661382 L16.8261172,19.455121 Z M25.7650745,31.5392082 L25.7650745,30.3021998 L24.5164269,30.3021998 L16.8262103,37.8755593 L13.652448,34.7502158 L13.652448,42.4152918 L21.260725,42.4152918 L17.9910561,39.1954385 L25.7650745,31.5392082 Z M16.8261172,36.5678314 L23.1880744,30.3022464 L13.6523549,30.3022464 L13.6523549,33.442488 L16.8261172,36.5678314 Z M25.7650745,32.846843 L19.3188498,39.1952988 L22.5885187,42.4151522 L25.7650745,42.4151522 L25.7650745,32.846843 Z" id="CentOS" stroke="none" fill="#354052" fill-rule="evenodd"/>
    </symbol>
    <symbol xmlns="http://www.w3.org/2000/svg" xmlns:xlink="http://www.w3.org/1999/xlink" id="logo-cirros-dark" width="42px" height="32px" viewBox="7 12 42 32" version="1.1">
        <path d="M42.8061866,20.5710649 C41.6309253,17.4178655 38.5457631,15.2277163 35.0815366,15.2277163 C33.8763066,15.2277163 32.7107648,15.4836657 31.6391792,15.9777452 C29.7114591,13.4903383 26.7194431,12 23.4892969,12 C18.3225209,12 14.0143094,15.8246615 13.3096386,20.7695067 C9.63158098,21.7803448 7,25.1149767 7,29.0157751 C7,33.3831141 10.3119528,36.9963744 14.5756162,37.514753 C15.7954256,40.8493848 19.0231419,43.1553593 22.6914799,43.1553593 C25.1440583,43.1553593 27.445983,42.123462 29.061866,40.3715046 C30.3537625,41.2972963 31.9121379,41.8051452 33.5458402,41.8051452 C36.9711883,41.8051452 39.8781579,39.6182358 40.8671269,36.5071547 C45.3527211,36.4974351 49,32.8752652 49,28.4236896 C49,24.6443862 46.4064874,21.4442087 42.8061866,20.5710649 Z M44.6521001,32.227292 C44.0745941,32.6889729 43.2711073,32.9198133 42.24164,32.9198133 C41.2939792,32.9198133 40.454854,32.7424307 39.7250742,32.3852355 L39.7250742,30.634898 C40.3252594,30.9021869 40.8331083,31.0909091 41.2478112,31.2002546 C41.6633239,31.3096 42.0431982,31.3646777 42.3882439,31.3646777 C42.8013268,31.3646777 43.1180237,31.285301 43.3391445,31.1273576 C43.5602654,30.9694141 43.6704208,30.7337139 43.6704208,30.4218768 C43.6704208,30.247734 43.6218228,30.0930304 43.5246268,29.9569561 C43.4274309,29.8208817 43.2848768,29.6904771 43.0961546,29.5649323 C42.9074324,29.4393875 42.5235083,29.2385158 41.9443823,28.9631272 C41.4008948,28.7079878 40.9934817,28.462568 40.7221429,28.2276777 C40.4508042,27.9919775 40.2337332,27.7190188 40.0717399,27.4071817 C39.9097466,27.0953446 39.82875,26.7300498 39.82875,26.312917 C39.82875,25.5264396 40.0952289,24.9084352 40.6281868,24.4589038 C41.1611448,24.0093725 41.8974043,23.7842018 42.8377753,23.7842018 C43.2994562,23.7842018 43.7408879,23.8384695 44.1596405,23.947815 C44.5792031,24.0579705 45.018205,24.2118641 45.475836,24.4103059 L44.8683612,25.8747252 C44.3937208,25.6803332 44.0016971,25.5450688 43.6914799,25.468122 C43.3820727,25.3911752 43.0767154,25.3522968 42.7770278,25.3522968 C42.4206426,25.3522968 42.1468739,25.4357234 41.9565318,25.6017665 C41.7661897,25.7678096 41.6706136,25.9840707 41.6706136,26.2521696 C41.6706136,26.4182127 41.709492,26.5631967 41.7856289,26.6863116 C41.8633857,26.8102364 41.9856906,26.9293015 42.1541636,27.0451267 C42.3218267,27.1609519 42.7203302,27.3683033 43.3480542,27.6688009 C44.1790797,28.0656844 44.7484861,28.4641879 45.0562734,28.8626914 C45.3640606,29.2620049 45.5187642,29.7512246 45.5187642,30.3311606 C45.5187642,31.1330273 45.2296062,31.7656111 44.6521001,32.227292 Z M37.7098777,31.7348324 C36.980098,32.5253597 35.9352413,32.9198133 34.5736877,32.9198133 C33.2113241,32.9198133 32.1656574,32.5253597 31.4366876,31.7348324 C30.7069079,30.9451151 30.342423,29.8103521 30.342423,28.3305434 C30.342423,26.8515447 30.7085278,25.7224515 31.4399275,24.9416438 C32.1713272,24.1616462 33.2194238,23.7720523 34.5850272,23.7720523 C35.9506306,23.7720523 36.9954873,24.164886 37.7187874,24.9513634 C38.4420874,25.7370309 38.8041424,26.8677441 38.8041424,28.3435029 C38.8041424,29.814402 38.4396575,30.9451151 37.7098777,31.7348324 Z M34.5852702,25.3401473 C33.8360512,25.3401473 33.2698847,25.5928569 32.8892004,26.096656 C32.5085162,26.6012651 32.3181741,27.3496741 32.3181741,28.3435029 C32.3181741,29.3357118 32.5068963,30.0833108 32.8835307,30.5863 C33.2601651,31.0884792 33.8239017,31.3395688 34.5731207,31.3395688 C36.0764184,31.3395688 36.8288772,30.3408802 36.8288772,28.3435029 C36.8288772,26.3412659 36.0804682,25.3401473 34.5852702,25.3401473 Z M29.5915841,27.6688009 C29.4417403,27.6274926 29.2594978,27.6072434 29.0440467,27.6072434 C28.4527712,27.6072434 27.9919003,27.7595171 27.661434,28.0632545 C27.3309677,28.3669919 27.1657346,28.7930343 27.1657346,29.3397616 L27.1657346,32.7991283 L25.3117214,32.7991283 L25.3117214,26.0026999 L26.7162032,26.0026999 L26.9891619,27.1455625 L27.0806881,27.1455625 C27.2912794,26.7648783 27.5763875,26.457901 27.9343927,26.2246307 C28.2932079,25.9913604 28.6836117,25.8747252 29.1047942,25.8747252 C29.3558838,25.8747252 29.5648552,25.8933544 29.7308983,25.9298029 L29.5915841,27.6688009 Z M24.3114128,27.6688009 C24.161569,27.6274926 23.9793266,27.6072434 23.7646855,27.6072434 C23.1726,27.6072434 22.7117291,27.7595171 22.3812628,28.0632545 C22.0516064,28.3669919 21.8863733,28.7930343 21.8863733,29.3397616 L21.8863733,32.7991283 L20.0323601,32.7991283 L20.0323601,26.0026999 L21.4360319,26.0026999 L21.7098006,27.1455625 L21.8013268,27.1455625 C22.0119181,26.7648783 22.2962163,26.457901 22.6550314,26.2246307 C23.0138466,25.9913604 23.4034404,25.8747252 23.8254329,25.8747252 C24.0765225,25.8747252 24.2846839,25.8933544 24.451537,25.9298029 L24.3114128,27.6688009 Z M18.2933621,24.9181548 C18.1248891,25.0777182 17.8721796,25.1579049 17.5360435,25.1579049 C16.8637714,25.1579049 16.5268253,24.8533575 16.5268253,24.2458827 C16.5268253,23.6416477 16.8637714,23.3403402 17.5360435,23.3403402 C18.2091256,23.3403402 18.5452617,23.6416477 18.5452617,24.2458827 C18.5452617,24.5334208 18.4618352,24.7577815 18.2933621,24.9181548 Z M16.606202,32.7991283 L18.4602152,32.7991283 L18.4602152,26.0026999 L16.606202,26.0026999 L16.606202,32.7991283 Z M13.5024106,31.4189455 C13.8596058,31.4189455 14.1900721,31.3711575 14.4938095,31.2763914 C14.797547,31.1808154 15.1020943,31.0317815 15.4058318,30.8292899 L15.4058318,32.4160142 C15.1053342,32.6063563 14.8024068,32.7375709 14.4970494,32.8112778 C14.1908821,32.8841748 13.8045281,32.9198133 13.3387974,32.9198133 C11.223165,32.9198133 10.1653489,31.7591314 10.1653489,29.4369576 C10.1653489,28.2819455 10.452887,27.399892 11.0287731,26.7899873 C11.6038493,26.1800825 12.4292051,25.8747252 13.5024106,25.8747252 C14.288888,25.8747252 14.9943688,26.0294288 15.618043,26.337216 L15.0713156,27.7716666 C14.7797277,27.6542215 14.507579,27.5578355 14.2564894,27.4833185 C14.0053998,27.4079917 13.7543102,27.3699232 13.5024106,27.3699232 C12.5385505,27.3699232 12.0558105,28.0551549 12.0558105,29.4256181 C12.0558105,30.754773 12.5385505,31.4189455 13.5024106,31.4189455 Z" id="Combined-Shape" stroke="none" fill="#354052" fill-rule="evenodd"/>
    </symbol>
    <symbol xmlns="http://www.w3.org/2000/svg" xmlns:xlink="http://www.w3.org/1999/xlink" id="logo-windows-dark" width="33px" height="33px" viewBox="11 11 33 33" version="1.1">
        <path d="M11.8165734,16.352502 L24.8615352,14.5759133 L24.8672376,27.1588348 L11.82849,27.2330866 L11.8165734,16.352502 Z M24.8553211,28.6086324 L24.8654465,41.2025201 L11.8266988,39.4098842 L11.8259678,28.5241565 L24.8553211,28.6086324 Z M26.4366759,14.3435041 L43.7332125,11.8190973 L43.7332125,26.9988022 L26.4366759,27.1361166 L26.4366759,14.3435041 Z M43.7372335,28.7270668 L43.733176,43.838416 L26.4366394,41.3972057 L26.4124042,28.6987741 L43.7372335,28.7270668 Z" id="Win" stroke="none" fill="#354052" fill-rule="evenodd"/>
    </symbol>
    <symbol xmlns="http://www.w3.org/2000/svg" xmlns:xlink="http://www.w3.org/1999/xlink" id="logo-ubuntu-dark" width="36px" height="36px" viewBox="8 10 36 36" version="1.1">
        <path d="M12.1449519,24.71181 C10.3280222,24.71181 8.85602969,26.1839474 8.85602969,28.0007322 C8.85602969,29.8166482 10.3280222,31.2886408 12.1449519,31.2886408 C13.9608679,31.2886408 15.4328604,29.8166482 15.4328604,28.0007322 C15.4328604,26.1839474 13.9608679,24.71181 12.1449519,24.71181 L12.1449519,24.71181 Z M35.6226895,39.6567698 C34.0499093,40.5651622 33.5106373,42.5751235 34.4191745,44.1470348 C35.3265533,45.719815 37.3365145,46.2589422 38.9092947,45.3505498 C40.4819301,44.443171 41.0212022,42.4332098 40.1128097,40.8602848 C39.205431,39.2885182 37.1943112,38.749391 35.6226895,39.6567698 L35.6226895,39.6567698 Z M19.28741,28.0007322 C19.28741,24.7511983 20.901461,21.8803423 23.3711937,20.1418996 L20.9672047,16.1154606 C18.0902667,18.0385359 15.9496869,20.977163 15.0601197,24.4188596 C16.098117,25.2658527 16.7625048,26.5552399 16.7625048,28.0005874 C16.7625048,29.4450661 16.098117,30.7344533 15.0601197,31.5814463 C15.9485284,35.0241566 18.0891082,37.9629285 20.9672047,39.8860038 L23.3711937,35.8585512 C20.901461,34.1211222 19.28741,31.2504109 19.28741,28.0007322 L19.28741,28.0007322 Z M28.8919259,18.3952027 C33.9095885,18.3952027 38.026244,22.242367 38.4583567,27.1486708 L43.1438255,27.0795965 C42.9132882,23.4574668 41.3309505,20.2057607 38.8995925,17.8146599 C37.6493039,18.2870297 36.2051149,18.2147696 34.9568536,17.4952092 C33.7064202,16.7736216 32.9224195,15.5563496 32.7081009,14.2349594 C31.4928563,13.8995797 30.2138954,13.7159608 28.8916363,13.7159608 C26.6185554,13.7159608 24.4694319,14.2498748 22.561272,15.1943249 L24.8460824,19.2886797 C26.0752287,18.7166807 27.4464336,18.3952027 28.8919259,18.3952027 L28.8919259,18.3952027 Z M28.8919259,37.6052481 C27.4464336,37.6052481 26.0752287,37.2836253 24.8462272,36.7117711 L22.5614168,40.8059811 C24.4695767,41.7515896 26.6187002,42.2856485 28.8919259,42.2856485 C30.214185,42.2856485 31.4931459,42.1018848 32.7082457,41.7654914 C32.9225643,40.4441012 33.7068547,39.2279877 34.9569984,38.5050967 C36.2061285,37.7843779 37.6494487,37.7134211 38.8997373,38.1857909 C41.3310953,35.7946901 42.913433,32.542984 43.1439703,28.9208543 L38.4573431,28.8517799 C38.026244,33.7593871 33.9097333,37.6052481 28.8919259,37.6052481 L28.8919259,37.6052481 Z M35.621531,16.3426673 C37.1943112,17.250915 39.2044173,16.7129462 40.1117961,15.140166 C41.0201885,13.5673858 40.4822197,11.5572798 38.9092947,10.6487425 C37.3365145,9.74136376 35.3265533,10.280491 34.4178712,11.8532712 C33.5106373,13.4251825 34.0497645,15.4352886 35.621531,16.3426673 L35.621531,16.3426673 Z" id="Ubuntu" stroke="none" fill="#354052" fill-rule="evenodd"/>
    </symbol>
    <symbol xmlns="http://www.w3.org/2000/svg" xmlns:xlink="http://www.w3.org/1999/xlink" id="logo-coreos-dark" width="32px" height="32px" viewBox="12 12 32 32" version="1.1">
        <path d="M33.8843832,31.9672998 C33.7527983,31.9863936 33.6228416,32.0048954 33.4908127,32.0217691 C32.2902673,32.1770363 31.0086101,32.2824226 29.6692271,32.3324515 C29.0927108,32.3539136 28.5040572,32.3669388 27.908595,32.3669388 C27.3113567,32.3669388 26.7244793,32.3540616 26.1461868,32.3324515 C24.808432,32.2824226 23.5258866,32.1770363 22.3263774,32.0217691 C22.2193629,31.1267256 22.1468358,30.1954186 22.1105723,29.2374689 C22.0932546,28.7999382 22.0846698,28.3558948 22.0846698,27.9075589 C22.0846698,27.4587791 22.0932546,27.0156237 22.1105723,26.5772049 C22.1468358,25.6191072 22.2193629,24.6883923 22.3263774,23.7933488 C22.3478395,23.6069986 22.3721139,23.4218325 22.3971283,23.2388866 C23.1807169,17.5515787 25.350313,13.4597187 27.908447,13.4597187 C35.8868709,13.4597187 42.3558432,19.9278029 42.3559912,27.9075589 C42.3559912,29.7127434 38.8804635,31.2657112 33.8843832,31.9672998 M27.908447,12 C19.1356295,12 12,19.1360735 12,27.9075589 C12,36.6796364 19.1356295,43.8152659 27.908447,43.8152659 C36.6786003,43.8152659 43.8148218,36.6796364 43.8148218,27.9075589 C43.8148218,19.1360735 36.6786003,12 27.908447,12 Z M33.4182856,23.2390346 C32.092668,21.6764459 30.118007,20.6835648 27.908595,20.6835648 C27.192353,20.6835648 26.5545587,21.779908 26.1461868,23.4823704 C25.9839629,24.1611647 25.8580026,24.9357244 25.7768907,25.7762986 C25.7129484,26.4499124 25.678461,27.1663025 25.678461,27.9075589 C25.678461,28.6488154 25.7129484,29.3653534 25.7768907,30.0383752 C26.4509486,30.1023175 27.1663025,30.1366568 27.908595,30.1366568 C28.6499995,30.1366568 29.3653534,30.1023175 30.0394113,30.0383752 C31.5211842,29.8977615 32.8003252,29.6128336 33.7064698,29.2374689 C34.6013652,28.8672847 35.130961,28.4063677 35.130961,27.9075589 C35.130813,26.4025478 34.6712281,25.0046992 33.8842351,23.8473741 C33.739329,23.6360094 33.5839138,23.4335256 33.4182856,23.2390346 Z" id="Combined-Shape" stroke="none" fill="#354052" fill-rule="evenodd"/>
    </symbol>
    <symbol xmlns="http://www.w3.org/2000/svg" xmlns:xlink="http://www.w3.org/1999/xlink" id="check-inactive" width="20px" height="20px" viewBox="18 230 20 20" version="1.1">
        <defs>
            <rect id="ymx9e5Pntw-path-1" x="20" y="231" width="16" height="16" rx="4"/>
            <filter x="-50%" y="-50%" width="200%" height="200%" filterUnits="objectBoundingBox" id="ymx9e5Pntw-filter-2">
                <feOffset dx="0" dy="1" in="SourceAlpha" result="shadowOffsetOuter1"/>
                <feGaussianBlur stdDeviation="1" in="shadowOffsetOuter1" result="shadowBlurOuter1"/>
                <feComposite in="shadowBlurOuter1" in2="SourceAlpha" operator="out" result="shadowBlurOuter1"/>
                <feColorMatrix values="0 0 0 0 0   0 0 0 0 0   0 0 0 0 0  0 0 0 0.05 0" type="matrix" in="shadowBlurOuter1"/>
            </filter>
            <mask id="ymx9e5Pntw-mask-3" maskContentUnits="userSpaceOnUse" maskUnits="objectBoundingBox" x="0" y="0" width="16" height="16" fill="white">
                <use xlink:href="#ymx9e5Pntw-path-1"/>
            </mask>
        </defs>
        <g id="Checkbox" stroke="none" fill="none">
            <use fill="black" fill-opacity="1" filter="url(#ymx9e5Pntw-filter-2)" xlink:href="#ymx9e5Pntw-path-1"/>
            <use stroke="#B7C0CD" mask="url(#ymx9e5Pntw-mask-3)" stroke-width="2" fill="#E2E7EE" fill-rule="evenodd" xlink:href="#ymx9e5Pntw-path-1"/>
        </g>
    </symbol>
    <symbol xmlns="http://www.w3.org/2000/svg" xmlns:xlink="http://www.w3.org/1999/xlink" id="check-active" width="21px" height="20px" viewBox="-2 -1 21 20" version="1.1">
        <defs>
            <rect id="uXDP2p8fVI-path-12345" x="0" y="0" width="16" height="16" rx="4"/>
            <filter x="-50%" y="-50%" width="200%" height="200%" filterUnits="objectBoundingBox" id="uXDP2p8fVI-filter-234">
                <feOffset dx="0" dy="1" in="SourceAlpha" result="shadowOffsetOuter1"/>
                <feGaussianBlur stdDeviation="1" in="shadowOffsetOuter1" result="shadowBlurOuter1"/>
                <feComposite in="shadowBlurOuter1" in2="SourceAlpha" operator="out" result="shadowBlurOuter1"/>
                <feColorMatrix values="0 0 0 0 0   0 0 0 0 0   0 0 0 0 0  0 0 0 0.05 0" type="matrix" in="shadowBlurOuter1"/>
            </filter>
            <mask id="uXDP2p8fVI-mask-38" maskContentUnits="userSpaceOnUse" maskUnits="objectBoundingBox" x="0" y="0" width="16" height="16" fill="white">
                <use xlink:href="#path-1"/>
            </mask>
        </defs>
        <g id="Checkbox" stroke="none" fill="none">
            <use fill="black" fill-opacity="1" filter="url(#uXDP2p8fVI-filter-234)" xlink:href="#uXDP2p8fVI-path-12345"/>
            <use stroke="#30AD63" mask="url(#uXDP2p8fVI-mask-38)" stroke-width="2" fill-opacity="0.799999952" fill="#30AD63" fill-rule="evenodd" xlink:href="#uXDP2p8fVI-path-12345"/>
        </g>
        <path d="M11.3137,5.29286 C10.9227,4.90186 10.2897,4.90186 9.8997,5.29286 L6.5357,8.65686 L5.7067,7.82886 C5.3167,7.43786 4.6837,7.43786 4.2927,7.82886 C3.9027,8.21886 3.9027,8.85186 4.2927,9.24286 L5.8287,10.77786 C6.2187,11.16886 6.8517,11.16886 7.2427,10.77786 L11.3137,6.70686 C11.7047,6.31686 11.7047,5.68386 11.3137,5.29286" id="Tick" stroke="none" fill="#FFFFFF" fill-rule="evenodd"/>
    </symbol>
    <symbol xmlns="http://www.w3.org/2000/svg" xmlns:xlink="http://www.w3.org/1999/xlink" id="icon-volume-empty2" width="40px" height="55px" viewBox="7 0 40 55" version="1.1">
        <defs>
            <path d="M39.7361809,8.64008161 C39.4346734,9.19215887 38.8819095,9.72642719 38.0778894,10.1538418 C36.9472362,10.7593459 35.8040201,11.3470411 34.6356784,11.9347362 C33.7939698,12.3621509 32.9396985,12.7717566 32.0728643,13.1813623 C31.5829146,13.4128786 31.0929648,13.6443949 30.5904523,13.8759111 C29.1331658,14.5348421 27.638191,15.193773 26.1180905,15.834895 C25.8417085,15.9417486 25.5778894,16.0664112 25.3015075,16.1732649 C23.6306533,16.8678137 21.3316583,17.1705658 19.1331658,17.0637121 C17.5125628,16.9924763 15.9422111,16.6897243 14.6984925,16.1732649 C13.8567839,15.834895 13.040201,15.4787161 12.2110553,15.1225372 C10.7537688,14.4814152 9.33417085,13.8402932 7.93969849,13.1635534 C6.08040201,12.3087241 4.27135678,11.4004679 2.51256281,10.4565939 C2.3241206,10.3675492 2.12311558,10.2606955 1.92211055,10.1538418 C0.640703518,9.45929303 0,8.56884583 0,7.64278075 L0,18.684326 L0,18.7555618 C0.0376884422,19.6638179 0.67839196,20.5186472 1.92211055,21.1953871 C2.12311558,21.3022408 2.3241206,21.3912855 2.51256281,21.4981392 C5.59045226,23.136562 8.81909548,24.6859401 12.2110553,26.1640825 C13.040201,26.5202614 13.8567839,26.8586313 14.6984925,27.2148102 C15.9422111,27.7312695 17.5125628,28.0162126 19.1331658,28.1052574 C21.3316583,28.212111 23.6306533,27.909359 25.3015075,27.2148102 C25.5778894,27.1079565 25.8417085,26.9832939 26.1180905,26.8764402 C27.638191,26.2353183 29.1331658,25.5763873 30.5904523,24.8996475 C31.9723618,24.2763344 33.3165829,23.6352124 34.6356784,22.9584726 C35.8040201,22.3885864 36.9472362,21.8008912 38.0778894,21.1953871 C38.8819095,20.7501635 39.4346734,20.2337041 39.7361809,19.6816269 C39.8994975,19.3788748 39.9874372,19.0761228 40,18.7555618 L40,18.684326 L40,7.64278075 C40,7.98115068 39.9120603,8.31952062 39.7361809,8.64008161 L39.7361809,8.64008161 Z" id="jSOeIWLDGE-path-1"/>
            <mask id="jSOeIWLDGE-mask-2" maskContentUnits="userSpaceOnUse" maskUnits="objectBoundingBox" x="0" y="0" width="40" height="20.4834225" fill="white">
                <use xlink:href="#jSOeIWLDGE-path-1"/>
            </mask>
            <path d="M39.7361809,21.57698 C39.4346734,22.1290573 38.8819095,22.6633256 38.0778894,23.0907402 C36.9472362,23.6962443 35.8040201,24.2839395 34.6356784,24.8716346 C33.7939698,25.2990493 32.9396985,25.708655 32.0728643,26.1182607 C31.5829146,26.349777 31.0929648,26.5812933 30.5904523,26.8128095 C29.1331658,27.4717405 27.638191,28.1306714 26.1180905,28.7717934 C25.8417085,28.878647 25.5778894,29.0033096 25.3015075,29.1101633 C23.6306533,29.8047121 21.3316583,30.1074642 19.1331658,30.0006105 C17.5125628,29.9293747 15.9422111,29.6266227 14.6984925,29.1101633 C13.8567839,28.7717934 13.040201,28.4156145 12.2110553,28.0594356 C10.7537688,27.4183136 9.33417085,26.7771916 7.93969849,26.1004518 C6.08040201,25.2456225 4.27135678,24.3373663 2.51256281,23.3934923 C2.3241206,23.3044476 2.12311558,23.1975939 1.92211055,23.0907402 C0.640703518,22.3961914 0,21.5057442 0,20.5796791 L0,31.6212244 L0,31.6924602 C0.0376884422,32.6007163 0.67839196,33.4555456 1.92211055,34.1322855 C2.12311558,34.2391392 2.3241206,34.3281839 2.51256281,34.4350376 C5.59045226,36.0734604 8.81909548,37.6228385 12.2110553,39.1009809 C13.040201,39.4571598 13.8567839,39.7955297 14.6984925,40.1517086 C15.9422111,40.6681679 17.5125628,40.953111 19.1331658,41.0421558 C21.3316583,41.1490094 23.6306533,40.8462574 25.3015075,40.1517086 C25.5778894,40.0448549 25.8417085,39.9201923 26.1180905,39.8133386 C27.638191,39.1722166 29.1331658,38.5132857 30.5904523,37.8365458 C31.9723618,37.2132328 33.3165829,36.5721108 34.6356784,35.895371 C35.8040201,35.3254847 36.9472362,34.7377896 38.0778894,34.1322855 C38.8819095,33.6870619 39.4346734,33.1706025 39.7361809,32.6185253 C39.8994975,32.3157732 39.9874372,32.0130212 40,31.6924602 L40,31.6212244 L40,20.5796791 C40,20.9180491 39.9120603,21.256419 39.7361809,21.57698 L39.7361809,21.57698 Z" id="jSOeIWLDGE-path-3"/>
            <mask id="jSOeIWLDGE-mask-4" maskContentUnits="userSpaceOnUse" maskUnits="objectBoundingBox" x="0" y="0" width="40" height="20.4834225" fill="white">
                <use xlink:href="#jSOeIWLDGE-path-3"/>
            </mask>
            <path d="M39.7361809,34.5138784 C39.4346734,35.0659557 38.8819095,35.600224 38.0778894,36.0276386 C36.9472362,36.6331427 35.8040201,37.2208379 34.6356784,37.808533 C33.7939698,38.2359477 32.9396985,38.6455534 32.0728643,39.0551591 C31.5829146,39.2866754 31.0929648,39.5181917 30.5904523,39.7497079 C29.1331658,40.4086389 27.638191,41.0675698 26.1180905,41.7086918 C25.8417085,41.8155454 25.5778894,41.940208 25.3015075,42.0470617 C23.6306533,42.7416105 21.3316583,43.0443626 19.1331658,42.9375089 C17.5125628,42.8662731 15.9422111,42.5635211 14.6984925,42.0470617 C13.8567839,41.7086918 13.040201,41.3525129 12.2110553,40.996334 C10.7537688,40.355212 9.33417085,39.71409 7.93969849,39.0373502 C6.08040201,38.1825209 4.27135678,37.2742647 2.51256281,36.3303907 C2.3241206,36.241346 2.12311558,36.1344923 1.92211055,36.0276386 C0.640703518,35.3330898 0,34.4426426 0,33.5165775 L0,44.5581228 L0,44.6293586 C0.0376884422,45.5376147 0.67839196,46.392444 1.92211055,47.0691839 C2.12311558,47.1760376 2.3241206,47.2650823 2.51256281,47.3719359 C5.59045226,49.0103588 8.81909548,50.5597369 12.2110553,52.0378793 C13.040201,52.3940581 13.8567839,52.7324281 14.6984925,53.088607 C15.9422111,53.6050663 17.5125628,53.8900094 19.1331658,53.9790542 C21.3316583,54.0859078 23.6306533,53.7831558 25.3015075,53.088607 C25.5778894,52.9817533 25.8417085,52.8570907 26.1180905,52.750237 C27.638191,52.109115 29.1331658,51.4501841 30.5904523,50.7734442 C31.9723618,50.1501312 33.3165829,49.5090092 34.6356784,48.8322694 C35.8040201,48.2623831 36.9472362,47.674688 38.0778894,47.0691839 C38.8819095,46.6239603 39.4346734,46.1075009 39.7361809,45.5554237 C39.8994975,45.2526716 39.9874372,44.9499196 40,44.6293586 L40,44.5581228 L40,33.5165775 C40,33.8549475 39.9120603,34.1933174 39.7361809,34.5138784 L39.7361809,34.5138784 Z" id="jSOeIWLDGE-path-5"/>
            <mask id="jSOeIWLDGE-mask-6" maskContentUnits="userSpaceOnUse" maskUnits="objectBoundingBox" x="0" y="0" width="40" height="20.4834225" fill="white">
                <use xlink:href="#jSOeIWLDGE-path-5"/>
            </mask>
            <path d="M38.0778894,6.73099479 C35.6407035,5.46785181 33.0904523,4.23931548 30.4522613,3.06268915 C28.781407,2.31864602 27.0603015,1.59190622 25.3015075,0.882469754 C22.3869347,-0.294156585 17.6130653,-0.294156585 14.6984925,0.882469754 C10.1633166,2.71662258 5.91708543,4.65459537 1.92211055,6.73099479 C0.67839196,7.37121794 0.0376884422,8.23638437 0,9.08424747 L0,9.15346078 C0,10.0532339 0.640703518,10.9184003 1.92211055,11.5932301 C2.12311558,11.6970501 2.3241206,11.80087 2.51256281,11.8873867 C4.27135678,12.8044631 6.08040201,13.6869329 7.93969849,14.5174926 C9.33417085,15.1750191 10.7537688,15.7979389 12.2110553,16.4208588 C13.040201,16.7669253 13.8567839,17.1129919 14.6984925,17.4417551 C15.9422111,17.9435517 17.5125628,18.2377082 19.1331658,18.3069216 C21.3316583,18.4107415 23.6306533,18.1165849 25.3015075,17.4417551 C25.5778894,17.3379352 25.8417085,17.2168119 26.1180905,17.1129919 C27.638191,16.4900721 29.1331658,15.8498489 30.5904523,15.2096258 C31.0929648,14.9846825 31.5829146,14.7597392 32.0728643,14.5347959 C32.9396985,14.1368194 33.7939698,13.7388428 34.6356784,13.323563 C35.8040201,12.7525531 36.9472362,12.1815433 38.0778894,11.5932301 C38.8819095,11.1779502 39.4346734,10.6588504 39.7361809,10.1224472 C39.9120603,9.81098726 40,9.48222402 40,9.15346078 L40,9.08424747 C39.9623116,8.23638437 39.321608,7.38852127 38.0778894,6.73099479 L38.0778894,6.73099479 Z" id="jSOeIWLDGE-path-7"/>
            <mask id="jSOeIWLDGE-mask-8" maskContentUnits="userSpaceOnUse" maskUnits="objectBoundingBox" x="0" y="0" width="40" height="18.3272727" fill="white">
                <use xlink:href="#jSOeIWLDGE-path-7"/>
            </mask>
        </defs>
        <g id="Group-4-Copy" stroke="none" stroke-width="1" fill="none" fill-rule="evenodd" transform="translate(7.000000, 0.000000)">
            <g id="Group-3" stroke-width="2.19607843" stroke="#4CD964">
                <g id="Group-2">
                    <use id="Stroke-15-Copy" mask="url(#jSOeIWLDGE-mask-2)" stroke-linejoin="round" xlink:href="#jSOeIWLDGE-path-1"/>
                    <use id="Stroke-15-Copy-2" mask="url(#jSOeIWLDGE-mask-4)" stroke-linejoin="round" xlink:href="#jSOeIWLDGE-path-3"/>
                    <use id="Stroke-15-Copy-3" mask="url(#jSOeIWLDGE-mask-6)" stroke-linejoin="round" xlink:href="#jSOeIWLDGE-path-5"/>
                    <use id="Stroke-19-Copy" mask="url(#jSOeIWLDGE-mask-8)" fill="#FFFFFF" xlink:href="#jSOeIWLDGE-path-7"/>
                </g>
            </g>
        </g>
    </symbol>
    <symbol xmlns="http://www.w3.org/2000/svg" xmlns:xlink="http://www.w3.org/1999/xlink" id="logo-volume-empty" width="47px" height="47px" viewBox="2 2 49 49" version="1.1">
        <defs>
            <rect id="We0unfzcC3-path-1" x="3" y="33" width="47" height="18" rx="3"/>
            <mask id="We0unfzcC3-mask-2" maskContentUnits="userSpaceOnUse" maskUnits="objectBoundingBox" x="0" y="0" width="47" height="18" fill="white">
                <use xlink:href="#We0unfzcC3-path-1"/>
            </mask>
            <path d="M3,36.0372842 C3,34.3760821 3.45550064,31.7633879 4.01570606,30.2063464 L12.4287384,6.82306538 C12.9896973,5.26392942 14.7933077,4 16.4397209,4 L36.5602791,4 C38.2145246,4 40.0110562,5.26602383 40.5712616,6.82306538 L48.9842939,30.2063464 C49.5452529,31.7654823 50,34.3801266 50,36.0372842 L50,47.9921276 C50,49.6533296 48.6566063,51 47.0063855,51 L5.99361448,51 C4.34028685,51 3,49.6492851 3,47.9921276 L3,36.0372842 Z" id="We0unfzcC3-path-3"/>
            <mask id="We0unfzcC3-mask-4" maskContentUnits="userSpaceOnUse" maskUnits="objectBoundingBox" x="0" y="0" width="47" height="47" fill="white">
                <use xlink:href="#We0unfzcC3-path-3"/>
            </mask>
        </defs>
        <use id="Rectangle-9-Copy" stroke="#4CD964" mask="url(#We0unfzcC3-mask-2)" stroke-width="4" fill="#FFFFFF" fill-rule="evenodd" xlink:href="#We0unfzcC3-path-1"/>
        <path d="M42,41 C40.8992806,41 40,41.8987418 40,42.9988017 C40,44.0988616 40.8992806,45 42,45 C43.1007194,45 44,44.0988616 44,42.9988017 C44,41.8987418 43.1007194,41 42,41" id="Fill-7-Copy-2" stroke="none" fill="#4CD964" fill-rule="evenodd"/>
        <path d="M36,41 C34.8992806,41 34,41.8987418 34,42.9988017 C34,44.0988616 34.8992806,45 36,45 C37.1007194,45 38,44.0988616 38,42.9988017 C38,41.8987418 37.1007194,41 36,41" id="Fill-7-Copy-3" stroke="none" fill="#4CD964" fill-rule="evenodd"/>
        <use id="Rectangle-8-Copy" stroke="#4CD964" mask="url(#We0unfzcC3-mask-4)" stroke-width="4" fill="none" xlink:href="#We0unfzcC3-path-3"/>
    </symbol>
    <symbol xmlns="http://www.w3.org/2000/svg" xmlns:xlink="http://www.w3.org/1999/xlink" id="logo-volume" width="51px" height="49px" viewBox="0 1 53 51" version="1.1">
        <defs>
            <path d="M3,35.0372842 C3,33.3760821 3.45550064,30.7633879 4.01570606,29.2063464 L12.4287384,5.82306538 C12.9896973,4.26392942 14.7933077,3 16.4397209,3 L36.5602791,3 C38.2145246,3 40.0110562,4.26602383 40.5712616,5.82306538 L48.9842939,29.2063464 C49.5452529,30.7654823 50,33.3801266 50,35.0372842 L50,46.9921276 C50,48.6533296 48.6566063,50 47.0063855,50 L5.99361448,50 C4.34028685,50 3,48.6492851 3,46.9921276 L3,35.0372842 Z" id="J61mW3M5iH-path-1"/>
            <mask id="J61mW3M5iH-mask-2" maskContentUnits="userSpaceOnUse" maskUnits="objectBoundingBox" x="0" y="0" width="47" height="47" fill="white">
                <use xlink:href="#J61mW3M5iH-path-1"/>
            </mask>
            <rect id="J61mW3M5iH-path-3" x="3" y="34" width="47" height="16" rx="2"/>
            <mask id="J61mW3M5iH-mask-4" maskContentUnits="userSpaceOnUse" maskUnits="objectBoundingBox" x="-2" y="-2" width="51" height="20">
                <rect x="1" y="32" width="51" height="20" fill="white"/>
                <use xlink:href="#J61mW3M5iH-path-3" fill="black"/>
            </mask>
        </defs>
        <use id="Rectangle-8" stroke="#4CD964" mask="url(#J61mW3M5iH-mask-2)" stroke-width="4" fill="#4CD964" fill-rule="evenodd" xlink:href="#J61mW3M5iH-path-1"/>
        <g id="Rectangle-9" stroke="none" fill="none">
            <use fill="#4CD964" fill-rule="evenodd" xlink:href="#J61mW3M5iH-path-3"/>
            <use stroke="#FFFFFF" mask="url(#J61mW3M5iH-mask-4)" stroke-width="4" xlink:href="#J61mW3M5iH-path-3"/>
        </g>
        <path d="M42,40 C40.8992806,40 40,40.8987418 40,41.9988017 C40,43.0988616 40.8992806,44 42,44 C43.1007194,44 44,43.0988616 44,41.9988017 C44,40.8987418 43.1007194,40 42,40" id="Fill-7" stroke="none" fill="#FFFFFF" fill-rule="evenodd"/>
        <path d="M36,40 C34.8992806,40 34,40.8987418 34,41.9988017 C34,43.0988616 34.8992806,44 36,44 C37.1007194,44 38,43.0988616 38,41.9988017 C38,40.8987418 37.1007194,40 36,40" id="Fill-7-Copy" stroke="none" fill="#FFFFFF" fill-rule="evenodd"/>
    </symbol>
    <symbol xmlns="http://www.w3.org/2000/svg" xmlns:xlink="http://www.w3.org/1999/xlink" id="snapshot-boot-icon" width="16px" height="17px" viewBox="42 0 16 17" version="1.1">
        <!-- Generator: Sketch 40.3 (33839) - http://www.bohemiancoding.com/sketch -->
        <desc>Created with Sketch.</desc>
        <defs>
            <path d="M15.8944724,3.24718299 C15.7738693,3.47627833 15.5527638,3.69798351 15.2311558,3.87534764 C14.7788945,4.12661351 14.321608,4.3704892 13.8542714,4.61436489 C13.5175879,4.79172902 13.1758794,4.96170299 12.8291457,5.13167696 C12.6331658,5.2277492 12.4371859,5.32382144 12.2361809,5.41989368 C11.6532663,5.69333006 11.0552764,5.96676644 10.4472362,6.23281265 C10.3366834,6.27715368 10.2311558,6.32888489 10.120603,6.37322592 C9.45226131,6.66144265 8.53266332,6.78707558 7.65326633,6.74273454 C7.00502513,6.71317385 6.37688442,6.58754092 5.87939698,6.37322592 C5.54271357,6.23281265 5.2160804,6.0850092 4.88442211,5.93720575 C4.30150754,5.67115954 3.73366834,5.40511334 3.1758794,5.12428678 C2.4321608,4.76955851 1.70854271,4.39265971 1.00502513,4.00098058 C0.929648241,3.96402971 0.849246231,3.91968868 0.768844221,3.87534764 C0.256281407,3.58713092 0,3.2176223 0,2.83333333 L0,7.41524023 L0,7.44480092 C0.0150753769,7.82169972 0.271356784,8.17642799 0.768844221,8.45725454 C0.849246231,8.50159558 0.929648241,8.53854644 1.00502513,8.58288748 C2.2361809,9.26278334 3.52763819,9.90572834 4.88442211,10.5191126 C5.2160804,10.6669161 5.54271357,10.8073294 5.87939698,10.9551328 C6.37688442,11.1694478 7.00502513,11.2876906 7.65326633,11.3246414 C8.53266332,11.3689825 9.45226131,11.2433495 10.120603,10.9551328 C10.2311558,10.9107918 10.3366834,10.8590606 10.4472362,10.8147195 C11.0552764,10.5486733 11.6532663,10.275237 12.2361809,9.99441041 C12.7889447,9.73575437 13.3266332,9.46970817 13.8542714,9.18888161 C14.321608,8.9523961 14.7788945,8.70852041 15.2311558,8.45725454 C15.5527638,8.27250023 15.7738693,8.05818523 15.8944724,7.82908989 C15.959799,7.70345696 15.9949749,7.57782403 16,7.44480092 L16,7.41524023 L16,2.83333333 C16,2.97374661 15.9648241,3.11415989 15.8944724,3.24718299 L15.8944724,3.24718299 Z" id="NBABQjyCWe-dsi-path-1"/>
            <mask id="NBABQjyCWe-dsi-mask-2" maskContentUnits="userSpaceOnUse" maskUnits="objectBoundingBox" x="0" y="0" width="16" height="8.5" fill="white">
                <use xlink:href="#NBABQjyCWe-dsi-path-1"/>
            </mask>
            <path d="M15.8944724,8.91384966 C15.7738693,9.142945 15.5527638,9.36465017 15.2311558,9.54201431 C14.7788945,9.79328017 14.321608,10.0371559 13.8542714,10.2810316 C13.5175879,10.4583957 13.1758794,10.6283697 12.8291457,10.7983436 C12.6331658,10.8944159 12.4371859,10.9904881 12.2361809,11.0865603 C11.6532663,11.3599967 11.0552764,11.6334331 10.4472362,11.8994793 C10.3366834,11.9438203 10.2311558,11.9955516 10.120603,12.0398926 C9.45226131,12.3281093 8.53266332,12.4537422 7.65326633,12.4094012 C7.00502513,12.3798405 6.37688442,12.2542076 5.87939698,12.0398926 C5.54271357,11.8994793 5.2160804,11.7516759 4.88442211,11.6038724 C4.30150754,11.3378262 3.73366834,11.07178 3.1758794,10.7909535 C2.4321608,10.4362252 1.70854271,10.0593264 1.00502513,9.66764724 C0.929648241,9.63069638 0.849246231,9.58635535 0.768844221,9.54201431 C0.256281407,9.25379759 0,8.88428897 0,8.5 L0,13.0819069 L0,13.1114676 C0.0150753769,13.4883664 0.271356784,13.8430947 0.768844221,14.1239212 C0.849246231,14.1682622 0.929648241,14.2052131 1.00502513,14.2495541 C2.2361809,14.92945 3.52763819,15.572395 4.88442211,16.1857793 C5.2160804,16.3335828 5.54271357,16.473996 5.87939698,16.6217995 C6.37688442,16.8361145 7.00502513,16.9543572 7.65326633,16.9913081 C8.53266332,17.0356491 9.45226131,16.9100162 10.120603,16.6217995 C10.2311558,16.5774585 10.3366834,16.5257272 10.4472362,16.4813862 C11.0552764,16.21534 11.6532663,15.9419036 12.2361809,15.6610771 C12.7889447,15.402421 13.3266332,15.1363748 13.8542714,14.8555483 C14.321608,14.6190628 14.7788945,14.3751871 15.2311558,14.1239212 C15.5527638,13.9391669 15.7738693,13.7248519 15.8944724,13.4957566 C15.959799,13.3701236 15.9949749,13.2444907 16,13.1114676 L16,13.0819069 L16,8.5 C16,8.64041328 15.9648241,8.78082655 15.8944724,8.91384966 L15.8944724,8.91384966 Z" id="NBABQjyCWe-dsi-path-3"/>
            <mask id="NBABQjyCWe-dsi-mask-4" maskContentUnits="userSpaceOnUse" maskUnits="objectBoundingBox" x="0" y="0" width="16" height="8.5" fill="white">
                <use xlink:href="#NBABQjyCWe-dsi-path-3"/>
            </mask>
            <path d="M12.1809045,1.26261656 C11.5125628,0.955879201 10.8241206,0.656275273 10.120603,0.363804771 C8.95477387,-0.121268257 7.04522613,-0.121268257 5.87939698,0.363804771 C4.06532663,1.11994802 2.36683417,1.91889183 0.768844221,2.77490305 C0.271356784,3.03883985 0.0150753769,3.39551119 0,3.74504911 L0,3.77358282 C0,4.14452102 0.256281407,4.50119236 0.768844221,4.77939601 C0.849246231,4.82219657 0.929648241,4.86499713 1.00502513,4.90066426 C1.70854271,5.27873589 2.4321608,5.64254066 3.1758794,5.98494515 C3.73366834,6.25601537 4.30150754,6.51281874 4.88442211,6.76962211 C5.2160804,6.91229064 5.54271357,7.05495918 5.87939698,7.19049429 C6.37688442,7.39736367 7.00502513,7.51863193 7.65326633,7.54716564 C8.53266332,7.5899662 9.45226131,7.46869794 10.120603,7.19049429 C10.2311558,7.14769373 10.3366834,7.09775974 10.4472362,7.05495918 C11.0552764,6.79815581 11.6532663,6.53421902 12.2361809,6.27028222 C12.4371859,6.17754767 12.6331658,6.08481313 12.8291457,5.99207858 C13.1758794,5.82800976 13.5175879,5.66394094 13.8542714,5.49273869 C14.321608,5.25733561 14.7788945,5.02193252 15.2311558,4.77939601 C15.5527638,4.60819376 15.7738693,4.39419096 15.8944724,4.17305472 C15.9648241,4.04465304 16,3.90911793 16,3.77358282 L16,3.74504911 C15.9849246,3.39551119 15.7286432,3.04597328 15.2311558,2.77490305 C14.2562814,2.25416289 13.2361809,1.74768958 12.1809045,1.26261656 Z" id="NBABQjyCWe-dsi-path-5"/>
            <mask id="NBABQjyCWe-dsi-mask-6" maskContentUnits="userSpaceOnUse" maskUnits="objectBoundingBox" x="0" y="0" width="16" height="7.55555556" fill="white">
                <use xlink:href="#NBABQjyCWe-dsi-path-5"/>
            </mask>
        </defs>
        <g id="dsi-Group-2" stroke="none" stroke-width="1" fill="none" fill-rule="evenodd" transform="translate(42.000000, 0.000000)" stroke-linecap="round" stroke-linejoin="round">
            <use id="dsi-Stroke-15-Copy" stroke="#7F8FA4" mask="url(#NBABQjyCWe-dsi-mask-2)" stroke-width="2" fill="#7F8FA4" xlink:href="#NBABQjyCWe-dsi-path-1"/>
            <use id="dsi-Stroke-15-Copy-2" stroke="#7F8FA4" mask="url(#NBABQjyCWe-dsi-mask-4)" stroke-width="2" fill="#7F8FA4" xlink:href="#NBABQjyCWe-dsi-path-3"/>
            <use id="dsi-Stroke-19-Copy" stroke="#7F8FA4" mask="url(#NBABQjyCWe-dsi-mask-6)" stroke-width="2" xlink:href="#NBABQjyCWe-dsi-path-5"/>
        </g>
    </symbol>
    <symbol xmlns="http://www.w3.org/2000/svg" xmlns:xlink="http://www.w3.org/1999/xlink" id="logo-snapshot" width="53px" height="42px" viewBox="-2 5 55 44" version="1.1">
        <defs>
            <path d="M39.5162922,33.2582034 C40.6475022,31.9732752 41.294458,30.3421146 41.4648615,28.6571795 C41.6968799,26.3722338 41.0470359,23.9929469 39.5162922,22.2523503 C39.2688701,21.9702699 39.0175971,21.6929066 38.7663241,21.4136564 C37.3559219,19.8324967 35.9127869,18.2843563 34.4378816,16.7701789 C33.0419204,15.3380783 31.61804,13.9371104 30.1643149,12.5625581 C28.885807,11.3521595 27.5841935,10.162516 26.2585117,8.99551447 C25.3034817,8.15493372 24.1549426,7.58039536 22.9370867,7.27095598 C20.297276,6.60018952 17.3224345,7.17472788 15.252561,8.99551447 C12.37303,11.5295211 9.60421311,14.1673031 6.93840857,16.909804 C5.24977687,18.6466268 3.60157992,20.4277901 1.99574316,22.2523503 C-0.66524772,25.2769316 -0.66524772,30.2326787 1.99574316,33.2582034 C6.13741566,37.9639462 10.5467276,42.3734573 15.252561,46.5150393 C18.2784272,49.1754632 23.2355336,49.1754632 26.2585117,46.5150393 C26.4895673,46.3131489 26.7158093,46.1065416 26.9439768,45.9027644 C30.5272648,42.7093123 33.9372611,39.3573668 37.1874438,35.835607 C37.9730331,34.9855921 38.7509204,34.12803 39.5162922,33.2582034 Z" id="gTthnRxX49-path-1"/>
            <mask id="gTthnRxX49-mask-2" maskContentUnits="userSpaceOnUse" maskUnits="objectBoundingBox" x="0" y="0" width="41.5106468" height="41.5103572" fill="white">
                <use xlink:href="#gTthnRxX49-path-1"/>
            </mask>
        </defs>
        <use id="Fill-1-Copy" stroke="#4CD964" mask="url(#gTthnRxX49-mask-2)" stroke-width="4" fill="none" xlink:href="#gTthnRxX49-path-1"/>
        <path d="M11.6878163,31.5017304 C12.0409473,32.3497216 12.5173782,33.1175497 13.1052723,33.7858981 L13.7691191,34.5286148 L14.5365379,33.7289146 L13.9358206,33.0567029 C13.4278249,32.4791417 13.01551,31.8136907 12.7097261,31.0777348 L11.6878163,31.5017304 Z M12.2951425,26.2431225 L11.2140487,26.0064963 C11.0720072,26.6564941 11,27.32774 11,27.9999517 C11,28.5755813 11.0532656,29.1521767 11.1578239,29.7123531 L12.2458225,29.5095306 C12.1531009,29.0159958 12.1057538,28.507008 12.1057538,27.9999517 C12.1057538,27.4069374 12.1698697,26.8158546 12.2951425,26.2431225 Z M24.2968616,10.8427137 C23.7148859,11.3739155 23.1299511,11.9022198 22.556853,12.4411481 L23.3163806,13.2456774 C23.9111794,12.685501 24.5178151,12.1359486 25.1234643,11.5844645 C24.8472725,11.3343168 24.572067,11.0889981 24.2968616,10.8427137 Z M19.5631307,16.9108731 C20.3818423,16.0812325 21.2104178,15.2612501 22.0498437,14.4528576 L21.2824249,13.6570207 C20.4360942,14.4731398 19.6006139,15.2989171 18.775984,16.1343527 L19.5631307,16.9108731 Z M18.5884695,39.6699719 C19.412113,40.5063733 20.2456205,41.3340822 21.0899784,42.1511671 L21.8603564,41.3572619 C21.0229033,40.5469378 20.1943277,39.7259896 19.377589,38.8953831 L18.5884695,39.6699719 Z M15.9447217,20.7095453 C16.7338413,19.8509301 17.5318384,19.001973 18.3406859,18.1626742 L17.5436752,17.3967778 C16.7298957,18.2418716 15.9249937,19.0975894 15.1299558,19.9629653 L15.9447217,20.7095453 Z M11.8033237,24.2340208 L12.8104375,24.6908544 C13.1033981,24.0466515 13.4821755,23.4594321 13.9359193,22.9436834 C14.2130975,22.6288256 14.4902757,22.3158995 14.7704132,22.004905 L13.9457833,21.2670174 C13.6646594,21.5818752 13.384522,21.896733 13.1053709,22.2135224 C12.57962,22.8104001 12.1426451,23.4903383 11.8033237,24.2340208 Z M14.9503324,35.8356609 C15.744384,36.7029685 16.5473131,37.5606179 17.3601062,38.4066775 L18.1581034,37.6417469 C17.3522151,36.8005165 16.5542179,35.9505936 15.7660848,35.0900468 L14.9503324,35.8356609 Z M44.6357274,40.4889885 C45.4662757,39.6583821 46.2859736,38.8171516 47.096794,37.9662629 L46.2948512,37.2042298 C45.4909357,38.0493236 44.6771562,38.8837933 43.8535126,39.7086048 L44.6357274,40.4889885 Z M44.042704,16.4808894 C44.8653612,17.3076325 45.6781543,18.143068 46.4810834,18.9891276 L47.2830262,18.2280603 C46.475165,17.3762058 45.6554671,16.5340096 44.8259052,15.7014715 L44.042704,16.4808894 Z M40.2747569,12.8315331 C40.9652365,13.475736 41.6478249,14.1266997 42.3244949,14.7824924 L42.8009258,15.2489842 L43.5772222,14.4608739 L43.0958592,13.9905189 C42.4142572,13.3289312 41.724764,12.6731384 41.0303388,12.0241064 L40.2747569,12.8315331 Z M48.3047387,36.6827829 C49.1037222,35.8241676 49.8938282,34.9549283 50.6740701,34.0740992 L49.8454946,33.3420066 C49.0711711,34.2151091 48.2879699,35.0775877 47.4939184,35.930408 L48.3047387,36.6827829 Z M53,27.2114551 C52.8934689,25.9500923 52.5255419,24.7196358 51.9376478,23.6524032 L50.9690036,24.1865024 C51.4829177,25.1175543 51.8034975,26.1963768 51.8972054,27.304174 L53,27.2114551 Z M50.84452,32.0302279 L51.7934362,32.5971651 C52.2166016,31.8901838 52.5371814,31.1126976 52.7492573,30.2840228 C52.8488836,29.8909335 52.92385,29.4833568 52.9721835,29.0738485 L51.8733346,28.9453943 C51.8309194,29.3056457 51.765817,29.6620338 51.6770411,30.0116611 C51.4925844,30.7360272 51.2114606,31.4149997 50.84452,32.0302279 Z M42.4616044,41.0826789 C41.6764305,41.8476095 40.8813925,42.6028818 40.077477,43.348496 L40.8300997,44.1588201 C41.6409201,43.4064452 42.4418764,42.645378 43.2319824,41.8765841 L43.3858607,41.7268818 L42.6085779,40.9407032 L42.4616044,41.0826789 Z M50.8531016,22.1277575 C50.0748325,21.2459625 49.2876857,20.3738258 48.4896886,19.5123131 L47.6778819,20.2627563 C48.4689742,21.1175083 49.251189,21.9828843 50.0225533,22.8579185 L50.8531016,22.1277575 Z M37.0768499,46.0663174 C36.8026309,46.3087386 36.5027654,46.5318434 36.1851448,46.7317684 L36.7730389,47.6666835 C37.1409659,47.4358522 37.4901513,47.1770121 37.8087583,46.8949922 L38.6373338,46.155173 C38.9371992,45.8886063 39.2360783,45.6191421 39.5339709,45.3487121 L38.7882529,44.532593 C38.4943059,44.8001256 38.1983861,45.0647606 37.8422959,45.3834817 L37.0768499,46.0663174 Z M31.4082097,48.9797178 C31.6123943,48.9922734 31.8175654,49 32.0207637,49 C33.0781839,49 34.1089713,48.8242205 35.0845203,48.4803881 L34.7165934,47.4373009 C33.6936971,47.7985182 32.596821,47.9540154 31.4792304,47.8757839 L31.4082097,48.9797178 Z M29.5682788,48.6717173 L29.8592666,47.6064163 C29.1372223,47.4093887 28.4585794,47.1022575 27.8440526,46.7159289 C27.560956,46.9747691 27.2798321,47.2355408 26.9947627,47.4914835 C27.7651406,48.0168904 28.6400769,48.4206037 29.5682788,48.6717173 Z M31.6941669,7.00482911 L31.7296772,8.10972881 L32.0167195,8.1048997 C33.0248197,8.1048997 34.0388383,8.29323488 34.9502714,8.64962298 L35.3537087,7.62005735 C34.3002342,7.20861743 33.1777116,7 32.0177059,7 L31.6941669,7.00482911 Z M36.393571,9.40412268 C36.6303069,9.56638068 36.8591516,9.74216017 37.0771458,9.93339282 C37.7212647,10.4983983 38.3584787,11.0691988 38.9897743,11.6457942 L39.7354923,10.8287093 C39.0992647,10.2482506 38.4561322,9.67358685 37.8070814,9.10375222 C37.5555496,8.88161329 37.2902081,8.67782497 37.0150027,8.49045561 L36.393571,9.40412268 Z M27.7512324,9.3385434 C28.4555216,8.88074405 29.2545051,8.53304834 30.1037951,8.32926002 L29.8463448,7.2552666 C28.7790606,7.51120928 27.7827972,7.97094027 26.9177249,8.5765103 C27.1958895,8.82569223 27.4730678,9.08549819 27.7512324,9.3385434 Z M22.4098795,43.4194838 C22.8241673,43.8087099 24.1173369,45.0053626 24.347168,45.2159117 C24.6233598,44.9696272 24.8936333,44.7156162 25.1678523,44.4674001 C24.9192796,44.240432 23.5846812,43.0061123 23.1684207,42.6139888 L22.4098795,43.4194838 Z" id="Combined-Shape-Copy" stroke="none" fill="#4CD964" fill-rule="evenodd"/>
    </symbol>
    <symbol xmlns="http://www.w3.org/2000/svg" xmlns:xlink="http://www.w3.org/1999/xlink" id="logo-network-rev" viewBox="-1 -1 56 57" version="1.1">
        <g id="Group-2" stroke="none" stroke-width="1" fill="none" fill-rule="evenodd" transform="translate(27.000000, 27.000000) rotate(-270.000000) translate(-27.000000, -27.000000) translate(-0.000000, 0.000000)">
            <path d="M3.5,47 C1.56700338,47 5.08104626e-15,48.5670042 5.08104626e-15,50.5 C5.08104626e-15,52.4329958 1.56700338,54 3.5,54 C5.43299663,54 7,52.4329958 7,50.5 C7,48.5670042 5.43299663,47 3.5,47 L3.5,47 Z" id="Shape" fill="#4CD964"/>
            <path d="M19.5,47 C17.5670034,47 16,48.5670042 16,50.5 C16,52.4329958 17.5670034,54 19.5,54 C21.4329966,54 23,52.4329958 23,50.5 C23,48.5670042 21.4329966,47 19.5,47 L19.5,47 Z" id="Shape-Copy" fill="#4CD964"/>
            <path d="M34.5,47 C32.5670034,47 31,48.5670042 31,50.5 C31,52.4329957 32.5670034,54 34.5,54 C36.4329966,54 38,52.4329957 38,50.5 C38,48.5670042 36.4329966,47 34.5,47 L34.5,47 Z" id="Shape-Copy-2" fill="#4CD964"/>
            <path d="M27.5,-7.10542736e-15 C25.5670034,-7.10542736e-15 24,1.56700425 24,3.5 C24,5.43299575 25.5670034,7 27.5,7 C29.4329966,7 31,5.43299575 31,3.5 C31,1.56700425 29.4329966,-7.10542736e-15 27.5,-7.10542736e-15 L27.5,-7.10542736e-15 Z" id="Shape-Copy-4" fill="#4CD964"/>
            <path d="M50.5,47 C48.5670034,47 47,48.5670042 47,50.5 C47,52.4329957 48.5670034,54 50.5,54 C52.4329966,54 54,52.4329957 54,50.5 C54,48.5670042 52.4329966,47 50.5,47 L50.5,47 Z" id="Shape-Copy-3" fill="#4CD964"/>
            <path d="M3.5,44.9999424 L3.5,28.5000973 C3.5,25.7386198 5.73726965,23.5 8.50086367,23.5 L45.5407849,23.5 C48.3026857,23.5 50.5416486,25.7400327 50.5416486,28.5001107 L50.5416486,45" id="Line" stroke="#4CD964" stroke-width="2"/>
            <path d="M34.5,44.5 L34.5,23.5" id="Line-Copy-5" stroke="#4CD964" stroke-width="2" stroke-linecap="square"/>
            <path d="M19.5,44.5 L19.5,23.5" id="Line" stroke="#4CD964" stroke-width="2" stroke-linecap="square"/>
            <path d="M27.5,23.5 L27.5,4.5" id="Line-Copy-6" stroke="#4CD964" stroke-width="2" stroke-linecap="square"/>
        </g>
    </symbol>
    <symbol xmlns="http://www.w3.org/2000/svg" xmlns:xlink="http://www.w3.org/1999/xlink" id="logo-network" width="52px" height="53px" viewBox="1 0 52 53" version="1.1">
        <g id="Group-2" stroke="none" stroke-width="1" fill="none" fill-rule="evenodd" transform="translate(1.000000, 1.000000)">
            <path d="M48.5,45 C46.5670034,45 45,46.5670042 45,48.5 C45,50.4329958 46.5670034,52 48.5,52 C50.4329966,52 52,50.4329958 52,48.5 C52,46.5670042 50.4329966,45 48.5,45 L48.5,45 Z" id="Shape" fill="#4CD964" transform="translate(48.500000, 48.500000) rotate(-450.000000) translate(-48.500000, -48.500000) "/>
            <path d="M48.5,23 C46.5670034,23 45,24.5670042 45,26.5 C45,28.4329958 46.5670034,30 48.5,30 C50.4329966,30 52,28.4329958 52,26.5 C52,24.5670042 50.4329966,23 48.5,23 L48.5,23 Z" id="Shape-Copy-2" fill="#4CD964" transform="translate(48.500000, 26.500000) rotate(-450.000000) translate(-48.500000, -26.500000) "/>
            <rect id="Rectangle" fill="#4CD964" transform="translate(5.000000, 26.000000) rotate(-180.000000) translate(-5.000000, -26.000000) " x="0" y="21" width="10" height="10" rx="2"/>
            <path d="M48.5,0 C46.5670034,0 45,1.56700425 45,3.5 C45,5.43299575 46.5670034,7 48.5,7 C50.4329966,7 52,5.43299575 52,3.5 C52,1.56700425 50.4329966,0 48.5,0 L48.5,0 Z" id="Shape-Copy-3" fill="#4CD964" transform="translate(48.500000, 3.500000) rotate(-450.000000) translate(-48.500000, -3.500000) "/>
            <path d="M10,35.9999465 L10,20.99524 C10,18.2364451 12.231557,16 15.0093855,16 L49.9906145,16 C52.7572217,16 55,18.236038 55,20.9952534 L55,36" id="Line" stroke="#4CD964" stroke-width="2" transform="translate(32.500000, 26.000000) rotate(-450.000000) translate(-32.500000, -26.000000) "/>
            <rect id="Rectangle-7" fill="#4CD964" x="13" y="25" width="30" height="2"/>
            <rect id="Rectangle-Copy" fill="#FFFFFF" transform="translate(23.500000, 23.500000) rotate(-180.000000) translate(-23.500000, -23.500000) " x="19" y="22" width="9" height="3"/>
            <rect id="Rectangle-Copy-2" fill="#FFFFFF" transform="translate(23.500000, 28.500000) rotate(-180.000000) translate(-23.500000, -28.500000) " x="19" y="27" width="9" height="3"/>
        </g>
    </symbol>
    <symbol xmlns="http://www.w3.org/2000/svg" xmlns:xlink="http://www.w3.org/1999/xlink" id="logo-router" viewBox="-2 -2 58 58" version="1.1">
        <defs>
            <circle id="1Ng2ad6Xio-path-1cx" cx="27" cy="27" r="27"/>
            <mask id="1Ng2ad6Xio-mask-2cx" maskContentUnits="userSpaceOnUse" maskUnits="objectBoundingBox" x="0" y="0" width="54" height="54" fill="white">
                <use xlink:href="#1Ng2ad6Xio-path-1cx"/>
            </mask>
        </defs>
        <use id="Oval" stroke="#4CD964" mask="url(#1Ng2ad6Xio-mask-2cx)" stroke-width="4" fill="none" xlink:href="#1Ng2ad6Xio-path-1cx"/>
        <g id="Group-2" stroke="none" stroke-width="1" fill="none" fill-rule="evenodd" transform="translate(6.000000, 6.000000)">
            <path d="M12.1139332,23.6261579 C11.7476199,23.9965789 11.7476199,24.5953158 12.1139332,24.9657368 C12.2966214,25.1504737 12.5364582,25.2433158 12.776295,25.2433158 C13.0161318,25.2433158 13.2559686,25.1504737 13.4386568,24.9657368 L16.2576761,22.1151053 C16.6230524,21.7456316 16.6230524,21.1459474 16.2576761,20.7755263 L13.5276587,18.0139474 C13.1613455,17.6444737 12.5683115,17.6444737 12.2029351,18.0139474 C11.8366219,18.3843684 11.8366219,18.9840526 12.2029351,19.3535263 L13.3777607,20.5424737 L1.62107304,20.5424737 C1.10392493,20.5424737 0.684210526,20.9659474 0.684210526,21.4898421 C0.684210526,22.0137368 1.10392493,22.4372105 1.62107304,22.4372105 L13.2896956,22.4372105 L12.1139332,23.6261579 Z M30.6809331,19.354 C31.0472463,18.9835789 31.0472463,18.3848421 30.6809331,18.0144211 C30.4982449,17.8296842 30.2584081,17.7368421 30.0185713,17.7368421 C29.7787345,17.7368421 29.5388977,17.8296842 29.3562095,18.0144211 L26.5371902,20.8650526 C26.1718138,21.2345263 26.1718138,21.8342105 26.5371902,22.2046316 L29.2672075,24.9662105 C29.6335208,25.3356842 30.2265548,25.3356842 30.5919311,24.9662105 C30.9582444,24.5957895 30.9582444,23.9961053 30.5919311,23.6266316 L29.4171055,22.4376842 L41.1737932,22.4376842 C41.6909413,22.4376842 42.1106557,22.0142105 42.1106557,21.4903158 C42.1106557,20.9664211 41.6909413,20.5429474 41.1737932,20.5429474 L29.5051706,20.5429474 L30.6809331,19.354 Z M19.354,37.6928805 C18.9835789,37.3265673 18.3848421,37.3265673 18.0144211,37.6928805 C17.8296842,37.8755687 17.7368421,38.1154055 17.7368421,38.3552423 C17.7368421,38.5950791 17.8296842,38.8349159 18.0144211,39.0176041 L20.8650526,41.8366234 C21.2345263,42.2019998 21.8342105,42.2019998 22.2046316,41.8366234 L24.9662105,39.1066061 C25.3356842,38.7402928 25.3356842,38.1472589 24.9662105,37.7818825 C24.5957895,37.4155692 23.9961053,37.4155692 23.6266316,37.7818825 L22.4376842,38.9567081 L22.4376842,27.2000204 C22.4376842,26.6828723 22.0142105,26.2631579 21.4903158,26.2631579 C20.9664211,26.2631579 20.5429474,26.6828723 20.5429474,27.2000204 L20.5429474,38.868643 L19.354,37.6928805 Z M23.6261579,5.1019857 C23.9965789,5.46829894 24.5953158,5.46829894 24.9657368,5.1019857 C25.1504737,4.91929751 25.2433158,4.67946071 25.2433158,4.4396239 C25.2433158,4.1997871 25.1504737,3.9599503 24.9657368,3.77726211 L22.1151053,0.958242811 C21.7456316,0.592866431 21.1459474,0.592866431 20.7755263,0.958242811 L18.0139474,3.68826017 C17.6444737,4.05457341 17.6444737,4.64760738 18.0139474,5.01298376 C18.3843684,5.379297 18.9840526,5.379297 19.3535263,5.01298376 L20.5424737,3.83815817 L20.5424737,15.5948458 C20.5424737,16.1119939 20.9659474,16.5317083 21.4898421,16.5317083 C22.0137368,16.5317083 22.4372105,16.1119939 22.4372105,15.5948458 L22.4372105,3.92622325 L23.6261579,5.1019857 Z" id="Combined-Shape" fill="#4CD964"/>
        </g>
    </symbol>
    <symbol xmlns="http://www.w3.org/2000/svg" xmlns:xlink="http://www.w3.org/1999/xlink" id="icon-new-vm" viewBox="0 0 54 54" version="1.1">
        <defs>
            <path d="M45.5162922,32.2582034 C46.6475022,30.9732752 47.294458,29.3421146 47.4648615,27.6571795 C47.6968799,25.3722338 47.0470359,22.9929469 45.5162922,21.2523503 C45.2688701,20.9702699 45.0175971,20.6929066 44.7663241,20.4136564 C43.3559219,18.8324967 41.9127869,17.2843563 40.4378816,15.7701789 C39.0419204,14.3380783 37.61804,12.9371104 36.1643149,11.5625581 C34.885807,10.3521595 33.5841935,9.16251604 32.2585117,7.99551447 C31.3034817,7.15493372 30.1549426,6.58039536 28.9370867,6.27095598 C26.297276,5.60018952 23.3224345,6.17472788 21.252561,7.99551447 C18.37303,10.5295211 15.6042131,13.1673031 12.9384086,15.909804 C11.2497769,17.6466268 9.60157992,19.4277901 7.99574316,21.2523503 C5.33475228,24.2769316 5.33475228,29.2326787 7.99574316,32.2582034 C12.1374157,36.9639462 16.5467276,41.3734573 21.252561,45.5150393 C24.2784272,48.1754632 29.2355336,48.1754632 32.2585117,45.5150393 C32.4895673,45.3131489 32.7158093,45.1065416 32.9439768,44.9027644 C36.5272648,41.7093123 39.9372611,38.3573668 43.1874438,34.835607 C43.9730331,33.9855921 44.7509204,33.12803 45.5162922,32.2582034 Z" id="E50fHRzgtv-path-1"/>
            <mask id="E50fHRzgtv-mask-2" maskContentUnits="userSpaceOnUse" maskUnits="objectBoundingBox" x="0" y="0" width="41.5106468" height="41.5103572" fill="white">
                <use xlink:href="#E50fHRzgtv-path-1"/>
            </mask>
        </defs>
        <rect id="Rectangle-6" stroke="none" fill="#4CD964" fill-rule="evenodd" x="0" y="0" width="54" height="54" rx="6"/>
        <use id="Fill-1-Copy-2" stroke="#FFFFFF" mask="url(#E50fHRzgtv-mask-2)" stroke-width="4" fill="none" xlink:href="#E50fHRzgtv-path-1"/>
    </symbol>
    <symbol id="icon-action-play" version="1.1" xmlns="http://www.w3.org/2000/svg" xmlns:xlink="http://www.w3.org/1999/xlink">
        <!-- Generator: Sketch 40.3 (33839) - http://www.bohemiancoding.com/sketch -->
        <title>Icon-Play</title>
        <desc>Created with Sketch.</desc>
        <defs>
            <circle id="Icon-Play--path-1" cx="9" cy="9" r="9"></circle>
            <mask id="Icon-Play--mask-2" maskContentUnits="userSpaceOnUse" maskUnits="objectBoundingBox" x="0" y="0" width="18" height="18" fill="white">
                <use xlink:href="#Icon-Play--path-1"></use>
            </mask>
        </defs>
        <g id="Icon-Play--Symbols" stroke="none" stroke-width="1" fill="none" fill-rule="evenodd">
            <g id="Icon-Play--Icon-Play">
                <path d="M6.48618892,13 L13.4151816,8.98181459 C13.4696756,8.95018778 13.4845376,8.92963036 13.4861889,8.92963036 L6.49609692,5 L6.48618892,13 Z" id="Icon-Play--Fill-4-Copy" fill="#343645"></path>
                <use id="Icon-Play--Oval-2-Copy-2" stroke="#343645" mask="url(#Icon-Play--mask-2)" stroke-width="3" xlink:href="#Icon-Play--path-1"></use>
            </g>
        </g>
    </symbol>
    <symbol xmlns="http://www.w3.org/2000/svg" xmlns:xlink="http://www.w3.org/1999/xlink" id="icon-action-snapshot" width="18px" height="18px" viewBox="-3 -3 25 25" version="1.1">
        <defs>
            <path d="M18,15.0005775 C18,16.6571128 16.6470745,18 15.0074602,18 L2.99253976,18 C1.33980569,18 3.13587761e-05,16.6556493 6.99655347e-05,15.0005775 L0.000279929496,5.99942248 C0.000318570394,4.34288718 1.34330202,3 2.9907194,3 L4,3 L5.4428885,0.835667253 C5.75057268,0.374140973 6.45097518,0 6.99077797,0 L11.009222,0 C11.5564136,0 12.2452393,0.367858887 12.5571115,0.835667253 L14,3 L15.0093689,3 C16.6610488,3 18,4.34435073 18,5.99942248 L18,15.0005775 Z" id="JMH0PSdVPw-path-1"/>
            <mask id="JMH0PSdVPw-mask-2" maskContentUnits="userSpaceOnUse" maskUnits="objectBoundingBox" x="0" y="0" width="18" height="18" fill="white">
                <use xlink:href="#JMH0PSdVPw-path-1"/>
            </mask>
            <path d="M9,6 C6.79540153,6 5,7.79540153 5,10 C5,12.2045985 6.79540153,14 9,14 C11.2059314,14 13,12.2045985 13,10 C13,7.79540153 11.2059314,6 9,6 Z" id="JMH0PSdVPw-path-3"/>
            <mask id="JMH0PSdVPw-mask-4" maskContentUnits="userSpaceOnUse" maskUnits="objectBoundingBox" x="0" y="0" width="8" height="8" fill="white">
                <use xlink:href="#JMH0PSdVPw-path-3"/>
            </mask>
        </defs>
        <use id="Path" stroke="#343645" mask="url(#JMH0PSdVPw-mask-2)" stroke-width="3" fill="none" xlink:href="#JMH0PSdVPw-path-1"/>
        <use id="Path" stroke="#343645" mask="url(#JMH0PSdVPw-mask-4)" stroke-width="3" fill="none" xlink:href="#JMH0PSdVPw-path-3"/>
    </symbol>
    <symbol xmlns="http://www.w3.org/2000/svg" xmlns:xlink="http://www.w3.org/1999/xlink" id="icon-action-console" width="18px" height="18px" viewBox="0 0 18 18" version="1.1">
        <defs>
            <path d="M2.99942248,3 C1.34288718,3 0,4.34435073 0,5.99942248 L0,15.0005775 C0,16.6571128 1.34435073,18 2.99942248,18 L12.0005775,18 C13.6571128,18 15,16.6556493 15,15.0005775 L15,5.99942248 C15,4.34288718 13.6556493,3 12.0005775,3 L2.99942248,3 Z" id="kuBkKjcjzF-path-1"/>
            <mask id="kuBkKjcjzF-mask-2" maskContentUnits="userSpaceOnUse" maskUnits="objectBoundingBox" x="0" y="0" width="15" height="15" fill="white">
                <use xlink:href="#kuBkKjcjzF-path-1"/>
            </mask>
            <path d="M16.5,10.9882111 L18,10.9882111 L18,3.99808005 C18,1.79000141 16.199825,2.22044605e-16 13.9962189,2.22044605e-16 L7.52815084,2.22044605e-16 L7.52815084,1.5" id="kuBkKjcjzF-path-3"/>
            <mask id="kuBkKjcjzF-mask-4" maskContentUnits="userSpaceOnUse" maskUnits="objectBoundingBox" x="0" y="0" width="10.4718492" height="10.9882111" fill="white">
                <use xlink:href="#kuBkKjcjzF-path-3"/>
            </mask>
        </defs>
        <use id="Fill-1" stroke="#343645" mask="url(#kuBkKjcjzF-mask-2)" stroke-width="3" fill="none" xlink:href="#kuBkKjcjzF-path-1"/>
        <use id="Fill-1-Copy" stroke="#343645" mask="url(#kuBkKjcjzF-mask-4)" stroke-width="3" fill="none" xlink:href="#kuBkKjcjzF-path-3"/>
    </symbol>
    <symbol xmlns="http://www.w3.org/2000/svg" xmlns:xlink="http://www.w3.org/1999/xlink" id="icon-action-delete" width="18px" height="18px" viewBox="0 0 18 18" version="1.1">
        <defs>
            <circle id="P4qf2s2S2O-path-1" cx="9" cy="9" r="9"/>
            <mask id="P4qf2s2S2O-mask-2" maskContentUnits="userSpaceOnUse" maskUnits="objectBoundingBox" x="0" y="0" width="18" height="18" fill="white">
                <use xlink:href="#P4qf2s2S2O-path-1"/>
            </mask>
        </defs>
        <use id="Oval-2" stroke="#343645" mask="url(#P4qf2s2S2O-mask-2)" stroke-width="3" fill="none" xlink:href="#P4qf2s2S2O-path-1"/>
        <path d="M12.6568,5.3432 L5.3428,12.6572" id="Stroke-3" stroke="#343645" stroke-width="1.5" fill="none"/>
        <path d="M12.6568,12.6568 L5.3428,5.3428" id="Stroke-5" stroke="#343645" stroke-width="1.5" fill="none"/>
    </symbol></svg>