<?xml version="1.0" encoding="UTF-8" standalone="no"?>
<svg width="173px" height="56px" viewBox="0 0 173 56" version="1.1" xmlns="http://www.w3.org/2000/svg" xmlns:xlink="http://www.w3.org/1999/xlink" style="background: #354052;">
    <!-- Generator: Sketch 39.1 (31720) - http://www.bohemiancoding.com/sketch -->
    <title>LogAuroraDark</title>
    <desc>Created with Sketch.</desc>
    <defs></defs>
    <g id="Symbols" stroke="none" stroke-width="1" fill="none" fill-rule="evenodd">
        <g id="LogAuroraDark">
            <g id="Logo" transform="translate(12.000000, 8.000000)">
                <path d="M72.8027008,26.9589034 L72.8027008,20.5884049 L67.0113386,20.5884049 C62.7222752,20.5884049 60.6408401,22.3798963 60.6408401,25.1854395 C60.6408401,28.1712586 62.9393574,29.565392 66.2511753,29.565392 C68.8208576,29.565392 71.1374025,28.7143396 72.8027008,26.9589034 M59.1926239,25.2575499 C59.1926239,21.6204842 61.9433332,19.2851606 67.0473937,19.2851606 L72.8027008,19.2851606 L72.8027008,17.8737507 C72.8027008,13.783742 71.0112094,12.552608 67.0834489,12.552608 C65.128958,12.552608 63.0663016,12.9514684 61.5091688,13.7108805 C61.274059,13.8197972 61.0569769,13.6748253 61.0209217,13.4216879 L60.9300326,12.8425517 C60.912005,12.6975799 61.0209217,12.4985253 61.1471148,12.4444425 C62.7583304,11.738362 64.8938483,11.2501149 67.0834489,11.2501149 C71.8615106,11.2501149 74.2501658,12.9334408 74.2501658,17.9458611 L74.2501658,30.0896943 C74.2501658,30.2707213 74.105194,30.4337207 73.9068905,30.4337207 L73.1467273,30.4337207 C72.9469215,30.4337207 72.8027008,30.2707213 72.8027008,30.0896943 L72.8027008,28.5873954 C70.9924307,30.2707213 68.6578582,30.8678851 66.2511753,30.8678851 C62.1972217,30.8678851 59.1926239,28.967477 59.1926239,25.2575499 Z M90.9039755,26.8503623 L90.9039755,12.0279301 C90.9039755,11.8469031 91.0481962,11.6846548 91.2480019,11.6846548 L91.9893864,11.6846548 C92.188441,11.6846548 92.3514405,11.8469031 92.3514405,12.0279301 L92.3514405,30.0893187 C92.3514405,30.2710969 92.188441,30.4340963 91.9893864,30.4340963 L91.2480019,30.4340963 C91.0481962,30.4340963 90.9039755,30.2710969 90.9039755,30.0893187 L90.9039755,28.4427991 C89.1665668,30.035236 86.7959391,30.8682607 84.7866143,30.8682607 C80.0994417,30.8682607 77.2217882,27.9365244 77.2217882,22.6514368 L77.2217882,12.0279301 C77.2217882,11.8469031 77.3847876,11.6846548 77.5658146,11.6846548 L78.3259779,11.6846548 C78.5070049,11.6846548 78.6692532,11.8469031 78.6692532,12.0279301 L78.6692532,22.6153817 C78.6692532,27.0494169 80.8415774,29.5650164 84.9315862,29.5650164 C87.0851317,29.5650164 89.4197041,28.5697434 90.9039755,26.8503623 Z M97.1328823,16.7516086 L97.1328823,30.0897694 C97.1328823,30.2707964 96.9879105,30.4337959 96.7888559,30.4337959 L96.0467202,30.4337959 C95.8476656,30.4337959 95.6846662,30.2707964 95.6846662,30.0897694 L95.6846662,12.0276297 C95.6846662,11.8473538 95.8476656,11.6843544 96.0467202,11.6843544 L96.7888559,11.6843544 C96.9879105,11.6843544 97.1328823,11.8473538 97.1328823,12.0276297 L97.1328823,14.7610625 C98.6171536,12.4625452 100.969754,11.25019 103.322354,11.25019 C104.009656,11.25019 104.607571,11.3042727 105.1499,11.4672722 C105.3129,11.5213549 105.457872,11.702382 105.421817,11.883409 L105.330927,12.516628 C105.294872,12.7885441 105.131873,12.8606544 104.896763,12.7885441 C104.425792,12.6435722 103.865435,12.5526831 103.286299,12.5526831 C100.625727,12.5526831 98.6171536,13.9828717 97.1328823,16.7516086 Z M105.098372,21.059 C105.098372,15.3765544 108.71741,11.2497393 113.74936,11.2497393 C118.779808,11.2497393 122.399597,15.3765544 122.399597,21.059 C122.399597,26.7782519 118.779808,30.8682607 113.74936,30.8682607 C108.71741,30.8682607 105.098372,26.7782519 105.098372,21.059 Z M120.952132,21.059 C120.952132,15.9917458 117.839369,12.5529836 113.74936,12.5529836 C109.6586,12.5529836 106.545837,15.9917458 106.545837,21.059 C106.545837,26.1262542 109.6586,29.5650164 113.74936,29.5650164 C117.839369,29.5650164 120.952132,26.1262542 120.952132,21.059 Z M126.095402,16.7516086 L126.095402,30.0897694 C126.095402,30.2707964 125.950431,30.4337959 125.751376,30.4337959 L125.00924,30.4337959 C124.810186,30.4337959 124.647186,30.2707964 124.647186,30.0897694 L124.647186,12.0276297 C124.647186,11.8473538 124.810186,11.6843544 125.00924,11.6843544 L125.751376,11.6843544 C125.950431,11.6843544 126.095402,11.8473538 126.095402,12.0276297 L126.095402,14.7610625 C127.579674,12.4625452 129.932274,11.25019 132.284874,11.25019 C132.972176,11.25019 133.570091,11.3042727 134.112421,11.4672722 C134.27542,11.5213549 134.420392,11.702382 134.384337,11.883409 L134.293448,12.516628 C134.257392,12.7885441 134.094393,12.8606544 133.859283,12.7885441 C133.388312,12.6435722 132.827955,12.5526831 132.248819,12.5526831 C129.588247,12.5526831 127.579674,13.9828717 126.095402,16.7516086 Z M133.879489,25.2575499 C133.879489,21.6204842 136.630198,19.2851606 141.734259,19.2851606 L147.489566,19.2851606 L147.489566,17.8737507 C147.489566,13.783742 145.698075,12.552608 141.770314,12.552608 C139.815823,12.552608 137.753167,12.9514684 136.196034,13.7108805 C135.960924,13.8197972 135.743842,13.6748253 135.707787,13.4216879 L135.616898,12.8425517 C135.59887,12.6975799 135.707787,12.4985253 135.83398,12.4444425 C137.445196,11.738362 139.580713,11.2501149 141.770314,11.2501149 C146.548376,11.2501149 148.937031,12.9334408 148.937031,17.9458611 L148.937031,30.0896943 C148.937031,30.2707213 148.792059,30.4337207 148.593756,30.4337207 L147.833592,30.4337207 C147.633787,30.4337207 147.489566,30.2707213 147.489566,30.0896943 L147.489566,28.5873954 C145.679296,30.2707213 143.344723,30.8678851 140.938041,30.8678851 C136.884087,30.8678851 133.879489,28.967477 133.879489,25.2575499 Z M147.489566,26.9589034 L147.489566,20.5884049 L141.698204,20.5884049 C137.40914,20.5884049 135.327705,22.3798963 135.327705,25.1854395 C135.327705,28.1712586 137.626223,29.565392 140.938041,29.565392 C143.507723,29.565392 145.824268,28.7143396 147.489566,26.9589034 Z" id="Aurora" fill="#FFFFFF"></path>
                <g id="Group" stroke-width="1.8">
                    <path d="M19.7256609,29.3177775 C20.1240446,28.8854721 20.5200616,28.4500112 20.9089786,28.0074503 C21.4832822,27.3550478 21.8122445,26.5259366 21.8990211,25.6700034 C22.016564,24.5095632 21.6876017,23.3002125 20.9089786,22.4158797 C20.783547,22.2723038 20.6549598,22.1318835 20.5279503,21.9898853 C19.8108598,21.186807 19.0779917,20.3995063 18.3285571,19.6303498 C17.6193554,18.9030039 16.8959538,18.1898577 16.1575636,17.4917003 C15.5067388,16.8771639 14.8464476,16.2720941 14.1727453,15.6788575 C13.6867962,15.2520743 13.103815,14.9601892 12.4845454,14.8032024 C11.1426631,14.4624069 9.63196083,14.754292 8.58038582,15.6788575 C7.11701625,16.9670961 5.70965705,18.3074006 4.3551527,19.70056 C3.49685292,20.5841039 2.65985286,21.4881586 1.84336364,22.4158797 C0.492014807,23.952615 0.492014807,26.4707151 1.84336364,28.0074503 C3.94809141,30.3993299 6.18929516,32.6405336 8.58038582,34.7444725 C10.1171211,36.0966102 12.6360101,36.0966102 14.1727453,34.7444725 C14.2894993,34.6411295 14.4046756,34.5369975 14.5206407,34.4328655 C16.3413723,32.8109314 18.0745383,31.1077428 19.7256609,29.3177775 L19.7256609,29.3177775 Z" id="Combined-Shape" stroke="#FF3B30"></path>
                    <path d="M35.1425552,13.7739527 C35.7168587,13.1215502 36.0458211,12.2924389 36.1325977,11.4365057 C36.2501406,10.2760655 35.9211783,9.06671481 35.1425552,8.18238204 C35.0171235,8.03880615 34.8885363,7.89838578 34.7615269,7.75638766 C34.0444364,6.95330937 33.3115683,6.16600865 32.5621337,5.39685214 C31.852932,4.66950618 31.1295304,3.95636004 30.3911401,3.25820259 C29.7403154,2.64366626 29.0800241,2.03859647 28.4063219,1.44535985 C27.9203728,1.0185766 27.3373916,0.726691561 26.718122,0.569704744 C25.3762397,0.228909242 23.8655374,0.520794279 22.8139624,1.44535985 C21.3505928,2.7335984 19.9432336,4.07390293 18.5887293,5.46706232 C17.7304295,6.35060622 16.8934294,7.25466095 16.0769402,8.18238204 C14.7255914,9.71911731 14.7255914,12.2372174 16.0769402,13.7739527 C18.181668,16.1658322 20.4228717,18.407036 22.8139624,20.5109749 C24.3506977,21.8631126 26.8695866,21.8631126 28.4063219,20.5109749 C28.5230759,20.4076318 28.6382522,20.3034998 28.7542173,20.1993679 C30.5749488,18.5774337 32.3081148,16.8742451 33.9592375,15.0842798 C34.3576211,14.6519744 34.7536381,14.2165135 35.1425552,13.7739527 Z" id="Stroke-3" stroke="#007AFF"></path>
                    <path d="M48.0071909,29.1322333 C48.4055746,28.6999279 48.8015916,28.264467 49.1905087,27.8219061 C49.7648122,27.1695036 50.0937745,26.3403924 50.1805512,25.4844592 C50.298094,24.324019 49.9691317,23.1146683 49.1905087,22.2303355 C49.065077,22.0867596 48.9364898,21.9463392 48.8094804,21.8043411 C48.0923898,21.0012628 47.3595217,20.2139621 46.6100872,19.4448056 C45.9008854,18.7174596 45.1774839,18.0043135 44.4390936,17.306156 C43.7882689,16.6916197 43.1279776,16.0865499 42.4542754,15.4933133 C41.9683262,15.0665301 41.385345,14.774645 40.7660754,14.6176582 C39.4241931,14.2768627 37.9134909,14.5687477 36.8619158,15.4933133 C35.3985463,16.7815519 33.9911871,18.1218564 32.6366827,19.5150158 C31.7783829,20.3985597 30.9413829,21.3026144 30.1248937,22.2303355 C28.7735448,23.7670708 28.7735448,26.2851709 30.1248937,27.8219061 C32.2296214,30.2137857 34.4708252,32.4549894 36.8619158,34.5589283 C38.3986511,35.911066 40.9175401,35.911066 42.4542754,34.5589283 C42.5710294,34.4555852 42.6862056,34.3514533 42.8021708,34.2473213 C44.6229023,32.6253872 46.3560683,30.9221985 48.0071909,29.1322333 L48.0071909,29.1322333 Z" id="Stroke-5" stroke="#4CD964"></path>
                </g>
            </g>
        </g>
    </g>
</svg>