<?xml version="1.0" encoding="UTF-8" standalone="no"?>
<svg width="94px" height="95px" viewBox="750 284 94 95" version="1.1" xmlns="http://www.w3.org/2000/svg" xmlns:xlink="http://www.w3.org/1999/xlink">
    <!-- Generator: Sketch 40.3 (33839) - http://www.bohemiancoding.com/sketch -->
    <desc>Created with Sketch.</desc>
    <defs></defs>
    <g id="Group-2" stroke="none" stroke-width="1" fill="none" fill-rule="evenodd" transform="translate(797.500000, 331.500000) rotate(-360.000000) translate(-797.500000, -331.500000) translate(751.000000, 285.000000)">
        <path d="M46.5,7.10542736e-15 C21.8164761,7.10542736e-15 1.62703291,19.1380051 -7.10542736e-15,43.3471239 L4.92447144,43.3471239 C6.47754831,24.8602714 20.3540371,9.64304756 38.2508431,6.00402564 L46.4994439,17.5539407 L54.7486009,6.00402564 C72.6454068,9.64304756 86.5224517,24.8597167 88.0755286,43.3471239 L93,43.3471239 C91.3729671,19.1380051 71.1835239,7.10542736e-15 46.5,7.10542736e-15 M58.0655015,49.6528761 L93,49.6528761 C91.3729671,73.8619949 71.1835239,93 46.5,93 C21.8164761,93 1.62703291,73.8619949 7.10542736e-15,49.6528761 L34.9344985,49.6528761 C36.3235375,54.7312002 40.9683105,58.4695035 46.5,58.4695035 C52.0316895,58.4695035 56.6764625,54.7312002 58.0655015,49.6528761" id="Page-1" fill="#4CD964" transform="translate(46.500000, 46.500000) rotate(-360.000000) translate(-46.500000, -46.500000) "></path>
        <path d="M46.5,63 C53.9558441,63 60,56.7319865 60,49 C60,49 33,49 33,49 C33,56.7319865 39.0441559,63 46.5,63 Z" id="Oval-4" fill="#57596C"></path>
        <path d="M46.5,19 C53.9558441,19 60,12.7319865 60,5 C60,5 33,5 33,5 C33,12.7319865 39.0441559,19 46.5,19 Z" id="Oval-4-Copy" fill="#4CD964"></path>
    </g>
</svg>