<?xml version="1.0" standalone="no"?>
<!DOCTYPE svg PUBLIC "-//W3C//DTD SVG 1.1//EN" "http://www.w3.org/Graphics/SVG/1.1/DTD/svg11.dtd" >
<svg xmlns="http://www.w3.org/2000/svg" xmlns:xlink="http://www.w3.org/1999/xlink" version="1.1">
<metadata></metadata>
<defs>
<font id="geomanistbook" horiz-adv-x="473" >
<font-face units-per-em="2048" ascent="1536" descent="-512" />
<missing-glyph horiz-adv-x="514" />
<glyph unicode="&#x2e;&#x2e;&#x2e;" horiz-adv-x="1478" d="M88 117q0 60 42.5 102.5t102.5 42.5t103 -42.5t43 -102.5q0 -59 -43 -101.5t-103 -42.5t-102.5 42.5t-42.5 101.5zM594 117q0 60 42.5 102.5t102.5 42.5t103 -42.5t43 -102.5q0 -59 -43 -101.5t-103 -42.5t-102.5 42.5t-42.5 101.5zM1100 117q0 60 42.5 102.5t102.5 42.5 t103 -42.5t43 -102.5q0 -59 -43 -101.5t-103 -42.5t-102.5 42.5t-42.5 101.5z" />
<glyph unicode=" "  horiz-adv-x="514" />
<glyph unicode="&#x09;" horiz-adv-x="514" />
<glyph unicode="&#xa0;" horiz-adv-x="514" />
<glyph unicode="!" horiz-adv-x="563" d="M137 117q0 60 43 102.5t103 42.5t102.5 -42.5t42.5 -102.5q0 -59 -42.5 -101.5t-102.5 -42.5t-103 42.5t-43 101.5zM166 1434h233l-18 -1049h-199z" />
<glyph unicode="&#x22;" horiz-adv-x="684" d="M94 1434h187l-13 -447h-164zM406 1434h186l-12 -447h-164z" />
<glyph unicode="#" horiz-adv-x="1339" d="M57 379l35 174h219l68 326h-217l35 174h219l80 381h190l-78 -381h262l78 381h193l-78 -381h217l-33 -174h-221l-68 -326h220l-35 -174h-221l-78 -379h-193l78 379h-262l-78 -379h-192l79 379h-219zM504 553h262l68 326h-263z" />
<glyph unicode="$" horiz-adv-x="1052" d="M57 297l193 90q34 -88 102.5 -145.5t177.5 -57.5q98 0 156.5 51.5t58.5 141.5q0 48 -22 88t-59.5 69t-86 55t-102 51t-106.5 52.5t-101.5 63t-86 78.5t-59.5 104t-22 135q0 152 96.5 256.5t260.5 124.5v115h151v-115q77 -12 140 -45t103 -78t64 -84.5t39 -79.5l-188 -84 q-79 168 -240 168q-92 0 -145 -50t-53 -126q0 -57 36 -102.5t93 -78t126 -64t138.5 -69.5t126.5 -84.5t93 -119t36 -164.5q0 -162 -99.5 -275.5t-269.5 -137.5v-156h-151v153q-89 9 -161.5 43t-119 83t-75 96.5t-44.5 97.5z" />
<glyph unicode="%" horiz-adv-x="1599" d="M70 1133q0 137 94 232t235 95q146 0 242 -94.5t96 -232.5t-95.5 -232t-240.5 -94q-144 0 -237.5 93.5t-93.5 232.5zM145 0l1088 1434h221l-1089 -1434h-220zM246 1133q0 -68 44.5 -115t112.5 -47q71 0 114.5 46.5t43.5 115.5q0 68 -45 114.5t-115 46.5q-69 0 -112 -46 t-43 -115zM858 299q0 136 95.5 232t236.5 96q146 0 242 -95.5t96 -232.5t-96 -231.5t-240 -94.5t-239 93.5t-95 232.5zM1034 299q0 -69 44.5 -115.5t113.5 -46.5q71 0 114.5 46.5t43.5 115.5t-44.5 115.5t-115.5 46.5q-68 0 -112 -47t-44 -115z" />
<glyph unicode="&#x26;" horiz-adv-x="1312" d="M66 406q0 241 245 393q-64 69 -100.5 138.5t-36.5 158.5q0 154 109.5 259t296.5 105q191 0 301 -101.5t110 -266.5q0 -125 -75.5 -220t-217.5 -178l277 -266q31 59 42 115t11 143h209q0 -125 -23.5 -224t-83.5 -194l146 -149l-154 -146l-139 148q-70 -67 -174 -107.5 t-229 -40.5q-237 0 -375.5 122.5t-138.5 310.5zM289 420q0 -114 85 -180t208 -66q77 0 145 28.5t111 71.5l-389 379q-72 -33 -116 -93t-44 -140zM381 1085q0 -75 46 -135t136 -135q225 122 225 270q0 85 -56 139t-150 54q-88 0 -144.5 -55t-56.5 -138z" />
<glyph unicode="'" horiz-adv-x="374" d="M94 1434h187l-13 -447h-164z" />
<glyph unicode="(" horiz-adv-x="653" d="M115 94v1112q0 199 97.5 297.5t297.5 98.5v-193q-174 0 -174 -178v-1161q0 -179 174 -179v-192q-200 0 -297.5 98t-97.5 297z" />
<glyph unicode=")" horiz-adv-x="653" d="M143 -109q174 0 174 179v1161q0 178 -174 178v193q200 0 298 -98.5t98 -297.5v-1112q0 -199 -98 -297t-298 -98v192z" />
<glyph unicode="*" horiz-adv-x="882" d="M88 963l197 110l-197 113l80 133l192 -111v226h160v-228l193 113l78 -131l-195 -113l197 -110l-80 -136l-193 113v-225h-160v225l-192 -113z" />
<glyph unicode="+" horiz-adv-x="1126" d="M78 547v182h389v416h192v-416h390v-182h-390v-416h-192v416h-389z" />
<glyph unicode="," horiz-adv-x="466" d="M88 117q0 60 41.5 102.5t101.5 42.5q64 0 107 -42.5t43 -113.5q0 -119 -52.5 -218t-140.5 -169l-94 99q39 27 73.5 70t41.5 87q-55 10 -88 51.5t-33 90.5z" />
<glyph unicode="-" horiz-adv-x="724" d="M88 518v203h547v-203h-547z" />
<glyph unicode="." horiz-adv-x="468" d="M88 117q0 60 42.5 102.5t102.5 42.5t103 -42.5t43 -102.5q0 -59 -43 -101.5t-103 -42.5t-102.5 42.5t-42.5 101.5z" />
<glyph unicode="/" horiz-adv-x="899" d="M41 -221l618 1757h199l-618 -1757h-199z" />
<glyph unicode="0" horiz-adv-x="1157" d="M100 717q0 185 24.5 319t80 231t148 145t225.5 48t226.5 -48t148.5 -145t79.5 -231t24.5 -319t-24.5 -319t-79.5 -231.5t-148.5 -145.5t-226.5 -48t-225.5 48t-148 145.5t-80 231.5t-24.5 319zM330 717q0 -89 3 -152t12 -128t26 -107t44 -77t68 -51t95 -16q47 0 84 13.5 t62.5 35.5t44 60t29.5 78.5t17 99.5t8 113.5t2 130.5q0 89 -3 151t-11.5 127.5t-25.5 107.5t-44 77t-67.5 51t-95.5 16q-54 0 -95 -16.5t-68 -51t-44 -77t-26 -107t-12 -127.5t-3 -151z" />
<glyph unicode="1" horiz-adv-x="667" d="M63 1337l261 97h184v-1434h-225v1208l-158 -59z" />
<glyph unicode="2" horiz-adv-x="1077" d="M88 0v82q0 82 36 163t94 148.5t128 133.5t140.5 128.5t128.5 122.5t94 126t36 130q0 97 -59.5 156t-163.5 59q-181 0 -235 -194l-199 57q10 43 28.5 86.5t54.5 92t83 85t119 60.5t157 24q204 0 325.5 -116t121.5 -302q0 -83 -32.5 -162t-85 -143t-116.5 -124.5 t-129.5 -114t-120.5 -102t-93.5 -99.5t-45.5 -96h641v-201h-907z" />
<glyph unicode="3" horiz-adv-x="1091" d="M76 307l194 64q27 -84 92 -136.5t170 -52.5q106 0 175 68.5t69 175.5q0 110 -66.5 173t-191.5 63h-162v178l340 393h-569v201h825v-205l-336 -375q74 0 142 -25t125 -74t91 -132.5t34 -190.5q0 -199 -134 -329t-337 -130q-106 0 -190.5 30.5t-137.5 82t-85 106t-48 115.5 z" />
<glyph unicode="4" horiz-adv-x="1175" d="M59 348v166l621 920h256v-889h178v-197h-178v-348h-223v348h-654zM299 545h414v620z" />
<glyph unicode="5" horiz-adv-x="1089" d="M76 307l196 64q25 -85 91.5 -137t173.5 -52q112 0 179.5 78t67.5 197q0 114 -69.5 193t-194.5 79q-112 0 -205 -84l-188 31l31 758h770v-203h-568l-16 -367q97 60 221 60q193 0 321 -126.5t128 -326.5q0 -215 -131 -356.5t-336 -141.5q-84 0 -157 21t-124 54t-91 78 t-63 89.5t-36 91.5z" />
<glyph unicode="6" horiz-adv-x="1134" d="M92 614q0 149 17.5 272.5t58 231.5t103.5 182.5t159 117t219 42.5q184 0 330 -98l-94 -180q-94 65 -223 65q-77 0 -136.5 -27.5t-95 -71t-58.5 -102.5t-31.5 -115t-8.5 -116q101 127 286 127q195 0 309.5 -127.5t114.5 -341.5q0 -228 -127 -364t-340 -136 q-111 0 -195.5 33t-138.5 89t-88 139t-47.5 175t-13.5 205zM322 582q0 -49 2 -87.5t9 -81t18.5 -74.5t31 -62t46 -49t65 -30.5t86.5 -11.5q110 0 173.5 73.5t63.5 207.5q0 120 -63 195t-179 75q-80 0 -145 -41.5t-108 -113.5z" />
<glyph unicode="7" horiz-adv-x="1017" d="M55 1231v203h914v-166l-488 -1268h-243l481 1231h-664z" />
<glyph unicode="8" horiz-adv-x="1140" d="M84 412q0 70 21 131t55.5 103.5t70 71t72.5 46.5q-67 38 -121.5 117t-54.5 184q0 175 123 285t319 110q197 0 321 -110t124 -285q0 -106 -55 -184.5t-123 -116.5q38 -18 74 -46.5t70.5 -71t55.5 -103.5t21 -131q0 -197 -135 -318t-353 -121t-351.5 120.5t-133.5 318.5z M315 414q0 -99 68 -166.5t186 -67.5q119 0 186.5 67.5t67.5 166.5q0 108 -70.5 172.5t-183.5 64.5q-112 0 -183 -65t-71 -172zM354 1055q0 -87 60.5 -145t154.5 -58q95 0 156 58t61 145q0 85 -57.5 141.5t-159.5 56.5t-158.5 -56t-56.5 -142z" />
<glyph unicode="9" horiz-adv-x="1134" d="M92 961q0 228 127 363.5t340 135.5q111 0 195.5 -33t138.5 -89t88 -139t47.5 -175t13.5 -205q0 -149 -17.5 -272.5t-58 -231.5t-103.5 -182.5t-159 -117t-219 -42.5q-182 0 -329 99l94 180q96 -66 223 -66q77 0 136.5 27.5t95 71t58.5 102.5t31.5 115t8.5 116 q-100 -126 -287 -126q-195 0 -309.5 127.5t-114.5 341.5zM317 967q0 -120 63 -195.5t179 -75.5q80 0 145.5 42t108.5 114q0 70 -4.5 121.5t-20.5 106t-43 89t-75.5 56.5t-114.5 22q-110 0 -174 -73.5t-64 -206.5z" />
<glyph unicode=":" horiz-adv-x="466" d="M88 117q0 60 42.5 102.5t102.5 42.5t103 -42.5t43 -102.5q0 -59 -43 -101.5t-103 -42.5t-102.5 42.5t-42.5 101.5zM88 879q0 60 42.5 102.5t102.5 42.5t103 -42.5t43 -102.5t-43 -103t-103 -43t-102.5 43t-42.5 103z" />
<glyph unicode=";" horiz-adv-x="466" d="M88 117q0 60 41.5 102.5t101.5 42.5q64 0 107 -42.5t43 -113.5q0 -119 -52.5 -218t-140.5 -169l-94 99q39 28 73.5 69.5t41.5 87.5q-55 10 -88 51.5t-33 90.5zM88 879q0 60 42.5 102.5t102.5 42.5t103 -42.5t43 -102.5t-43 -103t-103 -43t-102.5 43t-42.5 103z" />
<glyph unicode="&#x3c;" horiz-adv-x="1026" d="M90 555v168l844 383v-199l-625 -266l625 -270v-199z" />
<glyph unicode="=" horiz-adv-x="1126" d="M78 356v183h971v-183h-971zM78 721v180h971v-180h-971z" />
<glyph unicode="&#x3e;" horiz-adv-x="1026" d="M90 172v199l627 270l-627 266v199l846 -383v-168z" />
<glyph unicode="?" horiz-adv-x="972" d="M70 1186q13 37 32.5 71.5t54 72.5t77 66t105 46t134.5 18q193 0 310.5 -109t117.5 -280q0 -65 -19.5 -123t-50.5 -100t-69 -80.5t-76 -72.5t-69 -67.5t-50.5 -73.5t-19.5 -83v-86h-217v98q0 56 19 106t49 88.5t66.5 74.5t73 70t66.5 68.5t49 78t19 90.5q0 88 -55.5 144.5 t-153.5 56.5q-47 0 -85 -14.5t-63.5 -40.5t-40 -48t-28.5 -51zM295 117q0 60 42.5 102.5t102.5 42.5t103 -42.5t43 -102.5q0 -59 -43 -101.5t-103 -42.5t-102.5 42.5t-42.5 101.5z" />
<glyph unicode="@" horiz-adv-x="1839" d="M80 537q0 181 64.5 338.5t177.5 269t271.5 175.5t340.5 64q188 0 344 -59t260 -161.5t161.5 -241.5t57.5 -299q0 -238 -94 -367t-258 -129q-87 0 -147 40.5t-84 106.5q-12 -20 -31.5 -41t-52.5 -47t-83.5 -42.5t-107.5 -16.5q-169 0 -278 112t-109 291q0 177 109 290.5 t272 113.5q62 0 117 -21t79 -40t41 -39v88h175v-504q0 -137 114 -137q75 0 120.5 85.5t45.5 249.5q0 282 -175.5 448.5t-479.5 166.5q-149 0 -275.5 -54t-213 -147t-135 -219.5t-48.5 -269.5q0 -198 84 -353t237.5 -242t352.5 -87q215 0 385 98l78 -125q-79 -57 -200.5 -93 t-262.5 -36q-240 0 -434.5 106t-306 297.5t-111.5 430.5zM700 530q0 -106 61.5 -173.5t156.5 -67.5q94 0 156.5 65.5t62.5 180.5q0 103 -60.5 169t-158.5 66q-94 0 -156 -66t-62 -174z" />
<glyph unicode="A" horiz-adv-x="1323" d="M20 0l523 1434h235l522 -1434h-229l-147 418h-525l-149 -418h-230zM463 608h397l-198 580z" />
<glyph unicode="B" horiz-adv-x="1142" d="M150 0v1434h421q207 0 330 -103t123 -270q0 -101 -48.5 -182.5t-131.5 -126.5q107 -45 167 -130.5t60 -199.5q0 -125 -63 -222t-168.5 -148.5t-233.5 -51.5h-456zM377 197h207q112 0 182 58t70 167q0 111 -70 168t-182 57h-207v-450zM377 834h203q93 0 152 56t59 148 q0 91 -57.5 144t-155.5 53h-201v-401z" />
<glyph unicode="C" horiz-adv-x="1325" d="M72 717q0 156 56 294t153.5 236.5t234 155.5t291.5 57q249 0 434 -139l-67 -201q-63 49 -156.5 88t-204.5 39q-146 0 -262.5 -70.5t-180 -191t-63.5 -268.5q0 -227 141 -379t367 -152q197 0 377 136l68 -199q-76 -58 -190.5 -104t-260.5 -46q-213 0 -382 97.5t-262 267.5 t-93 379z" />
<glyph unicode="D" horiz-adv-x="1323" d="M150 0v1434h337q359 0 561.5 -190t202.5 -527q0 -346 -202.5 -531.5t-561.5 -185.5h-337zM377 199h133q235 0 370.5 133t135.5 385q0 244 -136.5 380t-369.5 136h-133v-1034z" />
<glyph unicode="E" horiz-adv-x="978" d="M150 0v1434h708v-205h-481v-400h418v-202h-418v-422h502v-205h-729z" />
<glyph unicode="F" horiz-adv-x="960" d="M150 0v1434h706v-205h-479v-416h420v-203h-420v-610h-227z" />
<glyph unicode="G" horiz-adv-x="1519" d="M72 717q0 154 55 291t150.5 236.5t233 157.5t294.5 58q107 0 201 -22.5t160.5 -59.5t109 -70.5t76.5 -70.5l-144 -150q-162 162 -395 162q-225 0 -364.5 -150.5t-139.5 -379.5q0 -237 142.5 -386t361.5 -149q144 0 241.5 42.5t139.5 86.5v242h-295v195h510v-547 q-122 -113 -267.5 -171.5t-340.5 -58.5q-203 0 -369 92.5t-263 263.5t-97 388z" />
<glyph unicode="H" horiz-adv-x="1433" d="M150 0v1434h227v-605h680v605h227v-1434h-227v623h-680v-623h-227z" />
<glyph unicode="I" horiz-adv-x="528" d="M150 0v1434h227v-1434h-227z" />
<glyph unicode="J" horiz-adv-x="737" d="M43 8l27 203q68 -16 127 -16q79 0 120 46t41 136v1057h228v-1094q0 -176 -98 -264t-265 -88q-106 0 -180 20z" />
<glyph unicode="K" horiz-adv-x="1208" d="M150 0v1434h227v-662l528 662h256l-559 -693l580 -741h-262l-543 709v-709h-227z" />
<glyph unicode="L" horiz-adv-x="925" d="M150 0v1434h227v-1229h502v-205h-729z" />
<glyph unicode="M" horiz-adv-x="1806" d="M147 0v1434h293l463 -1047l463 1047h293v-1434h-219v1110l-428 -983h-217l-428 983v-1110h-220z" />
<glyph unicode="N" horiz-adv-x="1452" d="M147 0v1434h230l702 -1078v1078h224v-1434h-226l-704 1071v-1071h-226z" />
<glyph unicode="O" horiz-adv-x="1617" d="M70 717q0 155 55.5 292.5t153 236.5t235 156.5t295.5 57.5t295.5 -57.5t234 -157t152 -236.5t55.5 -292q0 -209 -94.5 -379t-264 -267.5t-380.5 -97.5q-158 0 -295.5 57t-234 155.5t-152 236.5t-55.5 295zM307 717q0 -230 142.5 -380.5t359.5 -150.5q216 0 359 150.5 t143 380.5q0 227 -143.5 378.5t-358.5 151.5q-216 0 -359 -151t-143 -379z" />
<glyph unicode="P" horiz-adv-x="1075" d="M150 0v1434h415q203 0 331 -118.5t128 -311.5q0 -190 -130.5 -313.5t-326.5 -123.5h-190v-567h-227zM377 766h162q113 0 182.5 65.5t69.5 172.5q0 105 -69.5 168t-180.5 63h-164v-469z" />
<glyph unicode="Q" horiz-adv-x="1617" d="M70 717q0 155 55.5 292.5t153 236.5t235 156.5t295.5 57.5t295.5 -57.5t234 -157t152 -236.5t55.5 -292q0 -261 -151 -459l147 -139l-145 -150l-150 142q-187 -138 -440 -138q-158 0 -295.5 57t-234 155.5t-152 236.5t-55.5 295zM307 717q0 -230 142.5 -380.5 t359.5 -150.5q150 0 266 80l-145 140l143 149l144 -137q94 132 94 299q0 227 -143.5 378.5t-358.5 151.5q-216 0 -359 -151t-143 -379z" />
<glyph unicode="R" horiz-adv-x="1159" d="M150 0v1434h385q224 0 351.5 -118t127.5 -304q0 -125 -63 -225t-171 -144l348 -643h-251l-302 592h-198v-592h-227zM377 786h153q110 0 179 60t69 166q0 103 -63.5 163t-184.5 60h-153v-449z" />
<glyph unicode="S" horiz-adv-x="1052" d="M57 297l193 90q34 -88 102.5 -145.5t177.5 -57.5q98 0 156.5 51.5t58.5 141.5q0 48 -22 88t-59.5 69t-86 55t-102 51t-106.5 52.5t-101.5 63t-86 78.5t-59.5 104t-22 135q0 170 117.5 278.5t312.5 108.5q78 0 145 -21.5t112 -52.5t81 -73t55 -77t31 -69l-188 -84 q-79 168 -240 168q-92 0 -145 -50t-53 -126q0 -57 36 -102.5t93 -78t126 -64t138.5 -69.5t126.5 -84.5t93 -119t36 -164.5q0 -184 -124.5 -302t-332.5 -118q-84 0 -156.5 22t-121 55t-88 78.5t-61.5 86t-36 82.5z" />
<glyph unicode="T" horiz-adv-x="1046" d="M41 1229v205h948v-205h-360v-1229h-228v1229h-360z" />
<glyph unicode="U" horiz-adv-x="1394" d="M143 526v908h228v-906q0 -161 84.5 -252.5t242.5 -91.5q156 0 242 93t86 253v904h225v-906q0 -249 -148 -402t-405 -153q-264 0 -409.5 149.5t-145.5 403.5z" />
<glyph unicode="V" horiz-adv-x="1349" d="M16 1434h250l408 -1166l409 1166h250l-536 -1434h-246z" />
<glyph unicode="W" horiz-adv-x="1966" d="M20 1434h244l293 -1151l317 1151h216l319 -1151l293 1151h242l-396 -1434h-256l-309 1094l-309 -1094h-256z" />
<glyph unicode="X" horiz-adv-x="1271" d="M20 0l478 735l-453 699h270l318 -523l319 523h269l-453 -699l479 -735h-256l-360 565l-357 -565h-254z" />
<glyph unicode="Y" horiz-adv-x="1142" d="M16 1434h258l297 -560l303 560h252l-442 -770v-664h-225v664z" />
<glyph unicode="Z" horiz-adv-x="1226" d="M70 0v156l774 1075h-752v203h1051v-156l-776 -1075h782v-203h-1079z" />
<glyph unicode="[" horiz-adv-x="653" d="M115 -301v1903h395v-193h-174v-1518h174v-192h-395z" />
<glyph unicode="\" horiz-adv-x="899" d="M41 1536h199l618 -1757h-199z" />
<glyph unicode="]" horiz-adv-x="647" d="M143 -109h174v1518h-174v193h396v-1903h-396v192z" />
<glyph unicode="^" horiz-adv-x="1105" d="M86 651l375 783h184l375 -783h-213l-254 566l-256 -566h-211z" />
<glyph unicode="_" horiz-adv-x="1249" d="M59 -59h1131v-179h-1131v179z" />
<glyph unicode="`" horiz-adv-x="995" d="M309 1485h236l143 -293h-190z" />
<glyph unicode="a" horiz-adv-x="1060" d="M59 330q0 156 115 254t299 98q85 0 153 -23t103 -55v101q0 92 -60.5 144t-166.5 52q-147 0 -299 -84l-86 156q192 123 407 123q116 0 200 -30t132.5 -86t71 -127.5t22.5 -162.5v-690h-194l-19 80q-96 -107 -274 -107q-172 0 -288 99.5t-116 257.5zM283 336q0 -80 63 -132 t164 -52q99 0 162 50.5t63 133.5q0 84 -62.5 134t-164.5 50q-100 0 -162.5 -52t-62.5 -132z" />
<glyph unicode="b" horiz-adv-x="1261" d="M125 0v1481h223v-555q13 22 39 47t67.5 55t105 49t134.5 19q227 0 367.5 -157.5t140.5 -406.5q0 -246 -146.5 -402.5t-375.5 -156.5q-72 0 -135 19.5t-106 51t-64 52.5t-39 43v-139h-211zM340 530q0 -153 86.5 -256.5t230.5 -103.5q139 0 229.5 99t90.5 261 q0 161 -89 264t-229 103q-138 0 -228.5 -98.5t-90.5 -268.5z" />
<glyph unicode="c" horiz-adv-x="1026" d="M59 535q0 118 43 222t116.5 178.5t177 117.5t220.5 43q206 0 357 -131l-68 -189q-122 117 -282 117q-150 0 -244 -102t-94 -256t98.5 -258.5t247.5 -104.5q147 0 278 119l64 -185q-57 -50 -147.5 -91.5t-207.5 -41.5q-243 0 -401 159.5t-158 402.5z" />
<glyph unicode="d" horiz-adv-x="1261" d="M59 532q0 249 140.5 406.5t367.5 157.5q71 0 134.5 -19t105 -49t67.5 -55t39 -47v555h224v-1481h-211v139q-18 -22 -39 -43t-64 -52.5t-106 -51t-135 -19.5q-229 0 -376 156.5t-147 402.5zM285 530q0 -162 90 -261t229 -99q144 0 231 104t87 256q0 170 -91 268.5 t-229 98.5q-139 0 -228 -103t-89 -264z" />
<glyph unicode="e" horiz-adv-x="1150" d="M61 530q0 163 69 293t188 201.5t264 71.5q240 0 377 -152t137 -407q0 -38 -2 -56h-805q3 -141 95.5 -227t236.5 -86q108 0 180.5 45t113.5 104l148 -110q-22 -38 -57 -74.5t-89 -74.5t-132.5 -61.5t-168.5 -23.5q-249 0 -402 156t-153 401zM297 635h571q-6 128 -85.5 201 t-198.5 73q-117 0 -197 -74.5t-90 -199.5z" />
<glyph unicode="f" horiz-adv-x="634" d="M49 885v184h117v47q0 98 29.5 170.5t82 113.5t115 60t137.5 19l80 -4v-191q-28 4 -53 4q-168 0 -168 -176v-43h207v-184h-207v-885h-223v885h-117z" />
<glyph unicode="g" horiz-adv-x="1251" d="M59 532q0 248 144.5 406t371.5 158q70 0 133 -19t105.5 -48.5t69 -54.5t41.5 -48v143h211v-928q0 -117 -28 -209t-77.5 -152.5t-120.5 -100t-151.5 -56t-177.5 -16.5q-102 0 -207 29t-180 73l71 172q47 -28 131.5 -55t182.5 -27q70 0 128 14t106 44t74.5 84t26.5 127v71 q-11 -15 -25 -31t-45.5 -42t-67 -45t-90 -33.5t-114.5 -14.5q-229 0 -370.5 156t-141.5 403zM283 535q0 -162 90.5 -262.5t228.5 -100.5q143 0 230.5 101.5t87.5 261.5q0 162 -90 262t-230 100q-139 0 -228 -101t-89 -261z" />
<glyph unicode="h" horiz-adv-x="1136" d="M125 0v1481h223v-551q39 69 118.5 117.5t180.5 48.5q100 0 174 -37.5t116.5 -102.5t62.5 -143t20 -170v-643h-221v662q0 108 -60 170.5t-155 62.5q-105 0 -170.5 -70t-65.5 -180v-645h-223z" />
<glyph unicode="i" d="M96 1333q0 59 41 99.5t99 40.5t98.5 -40.5t40.5 -99.5t-40.5 -99t-98.5 -40q-59 0 -99.5 40.5t-40.5 98.5zM125 0v1069h223v-1069h-223z" />
<glyph unicode="j" d="M-86 -199q29 -2 47 -2q164 0 164 185v1085h223v-1094q0 -100 -28.5 -173t-80.5 -114t-117 -60t-147 -19l-61 4v188zM96 1333q0 59 41 99.5t99 40.5t98.5 -40.5t40.5 -99.5t-40.5 -99t-98.5 -40q-59 0 -99.5 40.5t-40.5 98.5z" />
<glyph unicode="k" horiz-adv-x="1034" d="M125 0v1481h223v-869l395 457h254l-428 -483l457 -586h-264l-414 561v-561h-223z" />
<glyph unicode="l" d="M125 0v1481h223v-1481h-223z" />
<glyph unicode="m" horiz-adv-x="1751" d="M125 0v1069h219v-139q32 68 109.5 117t179.5 49q110 0 189 -47t118 -131q47 85 133.5 131.5t196.5 46.5q176 0 270 -109t94 -289v-698h-221v641q0 124 -52.5 189t-152.5 65q-96 0 -156.5 -68t-60.5 -188v-639h-223v662q0 109 -55 171t-150 62q-93 0 -154 -69.5 t-61 -182.5v-643h-223z" />
<glyph unicode="n" horiz-adv-x="1134" d="M125 0v1069h219v-139q38 69 119 117.5t182 48.5q100 0 174 -37.5t116.5 -102.5t62.5 -143t20 -170v-643h-221v662q0 108 -60 170.5t-155 62.5q-105 0 -169.5 -70t-64.5 -180v-645h-223z" />
<glyph unicode="o" horiz-adv-x="1251" d="M59 532q0 242 162 403t404 161q163 0 292.5 -72.5t202 -201t72.5 -287.5t-73.5 -287.5t-203 -201.5t-290.5 -73q-246 0 -406 158t-160 401zM285 532q0 -158 95.5 -259t244.5 -101t246.5 103t97.5 260t-97.5 259.5t-246.5 102.5q-150 0 -245 -103.5t-95 -261.5z" />
<glyph unicode="p" horiz-adv-x="1263" d="M125 -383v1452h211v-141q16 22 38.5 44t65 53.5t105.5 51t135 19.5q229 0 375.5 -157t146.5 -402q0 -250 -140 -407t-368 -157q-58 0 -111 13.5t-90 32.5t-69 43.5t-49 43.5t-27 35v-524h-223zM340 537q0 -169 90.5 -267t228.5 -98q140 0 229 102t89 263q0 162 -90.5 261 t-229.5 99q-144 0 -230.5 -103.5t-86.5 -256.5z" />
<glyph unicode="q" horiz-adv-x="1263" d="M61 537q0 245 146.5 402t376.5 157q72 0 135 -19.5t105 -50.5t64.5 -54t37.5 -44v141h211v-1452h-222v524q-10 -16 -27 -35t-49 -43.5t-69 -43.5t-90 -32.5t-111 -13.5q-228 0 -368 157t-140 407zM285 537q0 -161 89.5 -263t227.5 -102t229 98.5t91 266.5 q0 153 -86.5 256.5t-231.5 103.5q-139 0 -229 -99t-90 -261z" />
<glyph unicode="r" horiz-adv-x="690" d="M125 0v1069h219v-168q32 84 114 139.5t191 55.5v-226q-68 0 -120.5 -20.5t-86.5 -56.5t-55 -88.5t-30 -112t-9 -131.5v-461h-223z" />
<glyph unicode="s" horiz-adv-x="872" d="M49 186l139 111q95 -139 256 -139q73 0 118.5 35t45.5 98q0 41 -28.5 72.5t-74.5 52.5t-101.5 41.5t-111 47.5t-101.5 62t-74.5 93t-28.5 133q0 138 104 220.5t263 82.5q71 0 132 -19t102.5 -50.5t69 -63.5t44.5 -66l-154 -102q-75 118 -207 118q-63 0 -103 -31t-40 -85 q0 -41 29 -71.5t75 -51t101.5 -39.5t111 -45.5t101.5 -61t75 -92.5t29 -135q0 -147 -110 -237.5t-277 -90.5q-77 0 -143 19t-112 52t-77 67.5t-53 74.5z" />
<glyph unicode="t" horiz-adv-x="643" d="M25 885v184h118v223h222v-223h217v-184h-217v-498q0 -118 43 -160.5t139 -42.5l43 2v-192q-39 -8 -109 -8q-95 0 -162 30.5t-105 90t-54.5 136t-16.5 179.5v463h-118z" />
<glyph unicode="u" horiz-adv-x="1126" d="M117 426v643h221v-661q0 -108 60.5 -171t154.5 -63q105 0 169 69.5t64 180.5v645h224v-1069h-219v139q-38 -69 -119 -117.5t-183 -48.5q-100 0 -174 37.5t-116 102.5t-62 143t-20 170z" />
<glyph unicode="v" horiz-adv-x="1064" d="M10 1069h238l287 -827l284 827h234l-394 -1069h-251z" />
<glyph unicode="w" horiz-adv-x="1683" d="M14 1069h242l233 -819q2 6 246 819h213l244 -819l235 819h242l-340 -1069h-248l-239 766l-242 -766h-246z" />
<glyph unicode="x" horiz-adv-x="1060" d="M16 0l387 549l-364 520h254l237 -362l238 362h254l-365 -520l387 -549h-245l-269 383l-268 -383h-246z" />
<glyph unicode="y" horiz-adv-x="1073" d="M12 1069h240l289 -778l284 778h234l-559 -1436h-215l151 385z" />
<glyph unicode="z" horiz-adv-x="952" d="M61 0v145l547 736h-530v188h801v-147l-545 -736h553v-186h-826z" />
<glyph unicode="{" horiz-adv-x="753" d="M66 547v207q77 0 113 51t36 182v219q0 199 97.5 297.5t297.5 98.5v-193q-174 0 -174 -178v-313q0 -67 -17.5 -120.5t-44 -83t-48 -44.5t-39.5 -21q18 -5 39.5 -20t48 -44.5t44 -82.5t17.5 -119v-313q0 -179 174 -179v-192q-200 0 -297.5 98t-97.5 297v219 q0 130 -37.5 182t-111.5 52z" />
<glyph unicode="|" horiz-adv-x="546" d="M168 -453v2100h211v-2100h-211z" />
<glyph unicode="}" horiz-adv-x="751" d="M143 -109q174 0 174 179v313q0 66 17.5 119t44 82.5t48.5 44.5t40 20q-18 6 -39.5 21t-48.5 44.5t-44.5 83t-17.5 120.5v313q0 178 -174 178v193q200 0 298 -98.5t98 -297.5v-219q0 -131 36 -182t113 -51v-207q-74 0 -111.5 -52t-37.5 -182v-219q0 -199 -98 -297 t-298 -98v192z" />
<glyph unicode="~" horiz-adv-x="1107" d="M82 463q0 143 75.5 233t204.5 90q65 0 135.5 -30.5t131.5 -61t104 -30.5q55 0 84 34.5t31 87.5h178q-1 -83 -31 -154.5t-94 -119t-151 -47.5q-60 0 -114.5 19t-89 41.5t-81 41.5t-92.5 19q-55 0 -84 -35t-31 -88h-176z" />
<glyph unicode="&#xa1;" horiz-adv-x="563" d="M137 1001q0 60 43 103t103 43t102.5 -43t42.5 -103t-42.5 -102.5t-102.5 -42.5t-103 42.5t-43 102.5zM166 -313l16 1048h199l18 -1048h-233z" />
<glyph unicode="&#xa2;" horiz-adv-x="1034" d="M61 690q0 222 137.5 378t350.5 179v187h151v-189q158 -19 273 -123l-66 -190q-124 119 -282 119q-150 0 -244 -103t-94 -256q0 -156 97.5 -260t246.5 -104q157 0 278 121l64 -187q-118 -107 -273 -127v-135h-151v135q-217 23 -352.5 177.5t-135.5 377.5z" />
<glyph unicode="&#xa3;" horiz-adv-x="1155" d="M76 0v201h129v422h-113v176h113v237q0 189 117 306.5t317 117.5q72 0 134 -18.5t104.5 -47.5t76 -67.5t52.5 -74.5t30 -72l-184 -80q-21 59 -74 104t-137 45q-101 0 -156 -61t-55 -164v-225h332v-176h-332v-422h639v-201h-993z" />
<glyph unicode="&#xa5;" horiz-adv-x="1167" d="M29 1434h258l297 -560l303 560h252l-355 -617h230v-153h-318v-166h318v-154h-318v-344h-225v344h-317v154h317v166h-317v153h229z" />
<glyph unicode="&#xa7;" horiz-adv-x="1011" d="M70 578q0 93 49 164.5t133 109.5q-154 122 -154 291q0 159 111.5 258.5t296.5 99.5q77 0 144 -20t112 -50t81.5 -70t56 -74t32.5 -68l-184 -78q-30 64 -89.5 109.5t-152.5 45.5q-86 0 -133 -41.5t-47 -115.5q0 -62 38.5 -107.5t112.5 -89.5l232 -137q109 -65 170 -144 t61 -184q0 -94 -49 -166t-133 -110q153 -118 153 -289q0 -160 -110.5 -259t-296.5 -99q-77 0 -144 20t-112 49.5t-81.5 69t-56 73.5t-32.5 68l184 80q30 -64 89.5 -110t152.5 -46q85 0 132.5 41.5t47.5 114.5q0 62 -38.5 107.5t-113.5 91.5l-272 163q-190 114 -190 302z M279 582q0 -88 77 -133l222 -127q68 3 110.5 46t42.5 105q0 94 -119 160l-180 98q-68 -1 -110.5 -44.5t-42.5 -104.5z" />
<glyph unicode="&#xa8;" horiz-adv-x="995" d="M197 1337q0 50 34 85.5t86 35.5t86.5 -35.5t34.5 -85.5q0 -51 -34.5 -85.5t-86.5 -34.5t-86 34.5t-34 85.5zM555 1337q0 51 34 86t87 35q52 0 86.5 -35.5t34.5 -85.5q0 -51 -34.5 -85.5t-86.5 -34.5q-53 0 -87 34t-34 86z" />
<glyph unicode="&#xa9;" horiz-adv-x="1632" d="M80 713q0 206 94.5 377t263 270.5t375.5 99.5q158 0 295.5 -58t234 -158t152 -238t55.5 -293q0 -206 -93.5 -375.5t-262.5 -268t-379 -98.5q-209 0 -378 98.5t-263 268t-94 375.5zM240 715q0 -170 72 -306.5t204 -215t299 -78.5q168 0 300 78t204 215t72 309 q0 169 -72 305t-204.5 214.5t-301.5 78.5q-166 0 -297.5 -78.5t-203.5 -215t-72 -306.5zM446 713q0 169 104 282t273 113q58 0 109.5 -15t88.5 -39.5t61.5 -48t43.5 -49.5l-118 -102q-77 94 -185 94q-95 0 -147.5 -65t-52.5 -168q0 -104 52.5 -169t147.5 -65q110 0 185 92 l118 -100q-44 -60 -119 -107t-184 -47q-169 0 -273 112.5t-104 281.5z" />
<glyph unicode="&#xaa;" horiz-adv-x="839" d="M80 885q0 119 86 192.5t225 73.5q119 0 189 -53v65q0 67 -44.5 105.5t-121.5 38.5q-112 0 -226 -64l-67 123q144 94 311 94q320 0 320 -309v-518h-150l-14 55q-74 -74 -203 -74q-132 0 -218.5 74.5t-86.5 196.5zM252 889q0 -59 47 -97t121 -38q73 0 119.5 37t46.5 98 t-46.5 97t-119.5 36q-74 0 -121 -37.5t-47 -95.5z" />
<glyph unicode="&#xab;" horiz-adv-x="940" d="M63 600l252 381h205l-252 -381l252 -379h-205zM418 600l254 381h205l-254 -381l254 -379h-205z" />
<glyph unicode="&#xad;" horiz-adv-x="724" d="M88 518v203h547v-203h-547z" />
<glyph unicode="&#xae;" horiz-adv-x="925" d="M35 1098q0 180 118 301t304 121q194 0 312 -119.5t118 -300.5q0 -177 -117.5 -298.5t-308.5 -121.5q-190 0 -308 119t-118 299zM139 1098q0 -140 87.5 -232t234.5 -92q149 0 235 91t86 235q0 145 -87 234t-238 89q-145 0 -231.5 -91t-86.5 -234zM309 879v442h168 q74 0 114 -37.5t40 -101.5q0 -45 -19 -75.5t-49 -43.5l82 -184h-113l-65 161h-49v-161h-109zM418 1130h53q21 0 34 14t13 36q0 23 -12.5 36t-34.5 13h-53v-99z" />
<glyph unicode="&#xaf;" horiz-adv-x="917" d="M197 1262v168h522v-168h-522z" />
<glyph unicode="&#xb0;" horiz-adv-x="751" d="M57 1147q0 131 91 222t227 91q138 0 227.5 -90t89.5 -221q0 -132 -89 -221.5t-228 -89.5t-228.5 89t-89.5 220zM223 1149q0 -68 41.5 -112t110.5 -44t110 44t41 112q0 67 -41 111.5t-110 44.5q-68 0 -110 -45t-42 -111z" />
<glyph unicode="&#xb2;" horiz-adv-x="718" d="M82 1247q11 35 31 67.5t51.5 64.5t80.5 51.5t109 19.5q125 0 203 -69t78 -185q0 -60 -33.5 -113t-82.5 -92t-98.5 -73.5t-88 -73.5t-45.5 -78h360v-145h-561v90q0 57 27.5 109.5t69 90t90 76t90 68.5t69 66t27.5 71q0 44 -30 73t-81 29q-86 0 -129 -98z" />
<glyph unicode="&#xb3;" horiz-adv-x="714" d="M72 807l137 53q43 -102 141 -102q54 0 87.5 30.5t33.5 85.5q0 58 -36.5 89.5t-104.5 31.5h-84v119l162 174h-299v146h512v-119l-199 -207q96 -5 160.5 -70t64.5 -170q0 -124 -83 -194t-208 -70q-62 0 -112.5 18.5t-83.5 50.5t-54 64.5t-34 69.5z" />
<glyph unicode="&#xb4;" horiz-adv-x="995" d="M307 1192l142 293h237l-190 -293h-189z" />
<glyph unicode="&#xb6;" horiz-adv-x="1075" d="M80 1053q0 161 111 271t272 110h182v-1526h-180v760q-163 2 -274 113t-111 272zM772 -92v1526h180v-1526h-180z" />
<glyph unicode="&#xb7;" horiz-adv-x="487" d="M98 643q0 60 42 102.5t102 42.5t102.5 -42.5t42.5 -102.5t-42.5 -102.5t-102.5 -42.5t-102 42.5t-42 102.5z" />
<glyph unicode="&#xb8;" horiz-adv-x="917" d="M279 -455l26 125q32 -8 64 -8q44 0 73 18t29 58q0 36 -32 55t-81 19l-34 -2l30 213h125l-16 -111q76 -13 118 -60.5t42 -121.5q0 -100 -68 -149.5t-174 -49.5q-53 0 -102 14z" />
<glyph unicode="&#xb9;" horiz-adv-x="552" d="M90 1372l168 62h141v-813h-172v643l-94 -37z" />
<glyph unicode="&#xba;" horiz-adv-x="970" d="M57 1034q0 184 121.5 305t306.5 121t305.5 -120t120.5 -304q0 -182 -122 -302t-306 -120q-186 0 -306 119t-120 301zM231 1034q0 -116 71 -191t181 -75t182 76t72 192q0 117 -72 193t-182 76t-181 -77t-71 -194z" />
<glyph unicode="&#xbb;" horiz-adv-x="940" d="M63 221l254 379l-254 381h205l254 -381l-254 -379h-205zM420 221l252 379l-252 381h205l252 -381l-252 -379h-205z" />
<glyph unicode="&#xbc;" horiz-adv-x="1658" d="M129 1372l168 62h141v-813h-172v643l-94 -37zM332 -84l782 1602h197l-783 -1602h-196zM940 156v129l373 528h180v-508h100v-149h-100v-156h-168v156h-385zM1108 305h217v316z" />
<glyph unicode="&#xbd;" horiz-adv-x="1681" d="M129 1372l168 62h141v-813h-172v643l-94 -37zM297 -84l782 1602h197l-782 -1602h-197zM1014 627q11 35 31 67.5t51.5 64.5t80.5 51t109 19q125 0 203 -69t78 -185q0 -60 -33.5 -113t-82.5 -92t-98.5 -73.5t-88 -73.5t-45.5 -78h360v-145h-561v90q0 57 27.5 109.5t69 90 t90 76t90 68.5t69 66t27.5 71q0 44 -30 73.5t-81 29.5q-86 0 -129 -99z" />
<glyph unicode="&#xbe;" horiz-adv-x="1761" d="M92 807l137 53q43 -102 142 -102q54 0 87.5 30.5t33.5 85.5q0 57 -37 89t-105 32h-84v119l162 174h-299v146h512v-119l-199 -207q96 -5 161 -70t65 -170q0 -124 -83 -194t-208 -70q-62 0 -113 18.5t-84 50.5t-54 64.5t-34 69.5zM436 -84l783 1602h196l-782 -1602h-197z M1018 156v129l373 528h180v-508h100v-149h-100v-156h-168v156h-385zM1186 305h217v316z" />
<glyph unicode="&#xbf;" horiz-adv-x="972" d="M70 49q0 65 19.5 122t50.5 99t69 80.5t76 72.5t69 67.5t50.5 73.5t19.5 83v88h217v-98q0 -57 -19 -107.5t-49 -89t-66.5 -74.5t-73 -70t-66.5 -69t-49 -78t-19 -90q0 -88 55.5 -144t153.5 -56q48 0 86.5 14.5t64 40t40 47.5t28.5 51l174 -80q-13 -37 -32.5 -71.5t-54 -72 t-77 -65t-105 -45.5t-134.5 -18q-193 0 -310.5 108.5t-117.5 280.5zM387 1001q0 60 42.5 103t102.5 43t102 -43t42 -103t-42 -102.5t-102 -42.5t-102.5 42.5t-42.5 102.5z" />
<glyph unicode="&#xc0;" horiz-adv-x="1323" d="M20 0l523 1434h235l522 -1434h-229l-147 418h-525l-149 -418h-230zM381 1810h235l144 -292h-191zM463 608h397l-198 580z" />
<glyph unicode="&#xc1;" horiz-adv-x="1323" d="M20 0l523 1434h235l522 -1434h-229l-147 418h-525l-149 -418h-230zM463 608h397l-198 580zM551 1518l141 292h238l-191 -292h-188z" />
<glyph unicode="&#xc2;" horiz-adv-x="1323" d="M20 0l523 1434h235l522 -1434h-229l-147 418h-525l-149 -418h-230zM352 1524l195 276h229l193 -276h-195l-112 157l-113 -157h-197zM463 608h397l-198 580z" />
<glyph unicode="&#xc3;" horiz-adv-x="1323" d="M20 0l523 1434h235l522 -1434h-229l-147 418h-525l-149 -418h-230zM322 1538q0 110 58 178t150 68q46 0 95 -21t90 -42t69 -21q32 0 52 23t20 61h148q0 -112 -56 -179t-149 -67q-46 0 -94.5 21t-90.5 42t-73 21q-32 0 -51.5 -22t-20.5 -62h-147zM463 608h397l-198 580z " />
<glyph unicode="&#xc4;" horiz-adv-x="1323" d="M20 0l523 1434h235l522 -1434h-229l-147 418h-525l-149 -418h-230zM369 1663q0 50 34 85.5t86 35.5t86.5 -35.5t34.5 -85.5q0 -51 -34.5 -86t-86.5 -35t-86 35t-34 86zM463 608h397l-198 580zM727 1663q0 51 34 86t87 35q52 0 86.5 -35.5t34.5 -85.5q0 -51 -34.5 -86 t-86.5 -35q-53 0 -87 34.5t-34 86.5z" />
<glyph unicode="&#xc5;" horiz-adv-x="1323" d="M20 0l523 1434h235l522 -1434h-229l-147 418h-525l-149 -418h-230zM459 1698q0 84 56.5 137t143.5 53q89 0 146 -52.5t57 -135.5q0 -84 -57.5 -138.5t-145.5 -54.5q-86 0 -143 54t-57 137zM463 608h397l-198 580zM580 1698q0 -37 22.5 -59.5t59.5 -22.5t58 23t21 61 q0 36 -22 59t-60 23q-35 0 -57 -23.5t-22 -60.5z" />
<glyph unicode="&#xc6;" horiz-adv-x="1708" d="M16 0l740 1434h833v-205h-481v-400h416v-202h-416v-422h500v-205h-727v418h-412l-205 -418h-248zM557 608h324v621h-21z" />
<glyph unicode="&#xc7;" horiz-adv-x="1325" d="M72 717q0 156 56 294t153.5 236.5t234 155.5t291.5 57q249 0 434 -139l-67 -201q-63 49 -156.5 88t-204.5 39q-146 0 -262.5 -70.5t-180 -191t-63.5 -268.5q0 -227 141 -379t367 -152q197 0 377 136l68 -199q-76 -58 -190.5 -104t-260.5 -46l-33 2l-8 -63 q76 -13 118 -60.5t42 -121.5q0 -100 -68 -149.5t-174 -49.5q-53 0 -102 14l26 125q32 -8 64 -8q44 0 73 18t29 58q0 36 -31.5 55t-80.5 19l-35 -2l24 178q-262 49 -421.5 249.5t-159.5 479.5z" />
<glyph unicode="&#xc8;" horiz-adv-x="978" d="M150 0v1434h708v-205h-481v-400h418v-202h-418v-422h502v-205h-729zM268 1810h236l143 -292h-190z" />
<glyph unicode="&#xc9;" horiz-adv-x="978" d="M150 0v1434h708v-205h-481v-400h418v-202h-418v-422h502v-205h-729zM391 1518l141 292h238l-190 -292h-189z" />
<glyph unicode="&#xca;" horiz-adv-x="978" d="M150 0v1434h708v-205h-481v-400h418v-202h-418v-422h502v-205h-729zM205 1524l194 276h230l192 -276h-194l-113 157l-113 -157h-196z" />
<glyph unicode="&#xcb;" horiz-adv-x="978" d="M150 0v1434h708v-205h-481v-400h418v-202h-418v-422h502v-205h-729zM225 1663q0 50 34.5 85.5t86.5 35.5t86.5 -35.5t34.5 -85.5q0 -51 -34.5 -86t-86.5 -35t-86.5 35t-34.5 86zM584 1663q0 51 34 86t87 35q52 0 86 -35.5t34 -85.5q0 -51 -34 -86t-86 -35q-53 0 -87 34.5 t-34 86.5z" />
<glyph unicode="&#xcc;" horiz-adv-x="528" d="M8 1810h236l143 -292h-190zM150 0v1434h227v-1434h-227z" />
<glyph unicode="&#xcd;" horiz-adv-x="528" d="M147 1518l142 292h237l-190 -292h-189zM150 0v1434h227v-1434h-227z" />
<glyph unicode="&#xce;" horiz-adv-x="528" d="M-41 1524l195 276h229l192 -276h-194l-113 157l-112 -157h-197zM150 0v1434h227v-1434h-227z" />
<glyph unicode="&#xcf;" horiz-adv-x="528" d="M-23 1663q0 50 34.5 85.5t86.5 35.5t86.5 -35.5t34.5 -85.5q0 -51 -34.5 -86t-86.5 -35t-86.5 35t-34.5 86zM150 0v1434h227v-1434h-227zM336 1663q0 51 34 86t87 35q52 0 86.5 -35.5t34.5 -85.5q0 -51 -34.5 -86t-86.5 -35q-53 0 -87 34.5t-34 86.5z" />
<glyph unicode="&#xd0;" horiz-adv-x="1337" d="M47 623v200h117v611h338q359 0 561.5 -190t202.5 -527q0 -346 -202.5 -531.5t-561.5 -185.5h-338v623h-117zM391 199h133q235 0 370.5 133t135.5 385q0 244 -136.5 380t-369.5 136h-133v-410h260v-200h-260v-424z" />
<glyph unicode="&#xd1;" horiz-adv-x="1452" d="M147 0v1434h230l702 -1078v1078h224v-1434h-226l-704 1071v-1071h-226zM416 1538q0 110 58 178t151 68q46 0 95 -21t90 -42t69 -21q32 0 51.5 23t19.5 61h148q0 -112 -56 -179t-149 -67q-46 0 -94.5 21t-90.5 42t-73 21q-32 0 -51.5 -22t-20.5 -62h-147z" />
<glyph unicode="&#xd2;" horiz-adv-x="1617" d="M70 717q0 155 55.5 292.5t153 236.5t235 156.5t295.5 57.5t295.5 -57.5t234 -157t152 -236.5t55.5 -292q0 -209 -94.5 -379t-264 -267.5t-380.5 -97.5q-158 0 -295.5 57t-234 155.5t-152 236.5t-55.5 295zM307 717q0 -230 142.5 -380.5t359.5 -150.5q216 0 359 150.5 t143 380.5q0 227 -143.5 378.5t-358.5 151.5q-216 0 -359 -151t-143 -379zM541 1810h235l144 -292h-191z" />
<glyph unicode="&#xd3;" horiz-adv-x="1617" d="M70 717q0 155 55.5 292.5t153 236.5t235 156.5t295.5 57.5t295.5 -57.5t234 -157t152 -236.5t55.5 -292q0 -209 -94.5 -379t-264 -267.5t-380.5 -97.5q-158 0 -295.5 57t-234 155.5t-152 236.5t-55.5 295zM307 717q0 -230 142.5 -380.5t359.5 -150.5q216 0 359 150.5 t143 380.5q0 227 -143.5 378.5t-358.5 151.5q-216 0 -359 -151t-143 -379zM684 1518l141 292h238l-191 -292h-188z" />
<glyph unicode="&#xd4;" horiz-adv-x="1617" d="M70 717q0 155 55.5 292.5t153 236.5t235 156.5t295.5 57.5t295.5 -57.5t234 -157t152 -236.5t55.5 -292q0 -209 -94.5 -379t-264 -267.5t-380.5 -97.5q-158 0 -295.5 57t-234 155.5t-152 236.5t-55.5 295zM307 717q0 -230 142.5 -380.5t359.5 -150.5q216 0 359 150.5 t143 380.5q0 227 -143.5 378.5t-358.5 151.5q-216 0 -359 -151t-143 -379zM498 1524l194 276h230l192 -276h-194l-113 157l-113 -157h-196z" />
<glyph unicode="&#xd5;" horiz-adv-x="1617" d="M70 717q0 155 55.5 292.5t153 236.5t235 156.5t295.5 57.5t295.5 -57.5t234 -157t152 -236.5t55.5 -292q0 -209 -94.5 -379t-264 -267.5t-380.5 -97.5q-158 0 -295.5 57t-234 155.5t-152 236.5t-55.5 295zM307 717q0 -230 142.5 -380.5t359.5 -150.5q216 0 359 150.5 t143 380.5q0 227 -143.5 378.5t-358.5 151.5q-216 0 -359 -151t-143 -379zM471 1538q0 110 58 178t151 68q46 0 95 -21t90 -42t69 -21q32 0 52 23t20 61h147q0 -112 -56 -179t-149 -67q-46 0 -94.5 21t-90.5 42t-73 21q-32 0 -51.5 -22t-20.5 -62h-147z" />
<glyph unicode="&#xd6;" horiz-adv-x="1617" d="M70 717q0 155 55.5 292.5t153 236.5t235 156.5t295.5 57.5t295.5 -57.5t234 -157t152 -236.5t55.5 -292q0 -209 -94.5 -379t-264 -267.5t-380.5 -97.5q-158 0 -295.5 57t-234 155.5t-152 236.5t-55.5 295zM307 717q0 -230 142.5 -380.5t359.5 -150.5q216 0 359 150.5 t143 380.5q0 227 -143.5 378.5t-358.5 151.5q-216 0 -359 -151t-143 -379zM516 1663q0 50 34.5 85.5t86.5 35.5t86.5 -35.5t34.5 -85.5q0 -51 -34.5 -86t-86.5 -35t-86.5 35t-34.5 86zM874 1663q0 51 34 86t87 35q52 0 86.5 -35.5t34.5 -85.5q0 -51 -34.5 -86t-86.5 -35 q-53 0 -87 34.5t-34 86.5z" />
<glyph unicode="&#xd7;" horiz-adv-x="1085" d="M82 279l334 354l-334 356l129 129l330 -354l333 354l125 -127l-333 -356l335 -359l-127 -126l-333 354l-330 -354z" />
<glyph unicode="&#xd8;" horiz-adv-x="1617" d="M72 717q0 156 55.5 293t152 236t234 156.5t295.5 57.5q217 0 393 -108l101 127l129 -103l-99 -127q103 -101 159 -237.5t56 -294.5q0 -156 -55.5 -294t-153 -237t-235 -156t-295.5 -57q-223 0 -399 109l-101 -127l-129 102l101 127q-100 101 -154.5 238t-54.5 295z M307 717q0 -205 121 -348l635 807q-114 71 -254 71q-216 0 -359 -151t-143 -379zM549 258q116 -72 260 -72q216 0 359 150.5t143 380.5q0 204 -123 350z" />
<glyph unicode="&#xd9;" horiz-adv-x="1394" d="M143 526v908h228v-906q0 -161 84.5 -252.5t242.5 -91.5q156 0 242 93t86 253v904h225v-906q0 -249 -148 -402t-405 -153q-264 0 -409.5 149.5t-145.5 403.5zM446 1810h236l143 -292h-190z" />
<glyph unicode="&#xda;" horiz-adv-x="1394" d="M143 526v908h228v-906q0 -161 84.5 -252.5t242.5 -91.5q156 0 242 93t86 253v904h225v-906q0 -249 -148 -402t-405 -153q-264 0 -409.5 149.5t-145.5 403.5zM586 1518l141 292h238l-191 -292h-188z" />
<glyph unicode="&#xdb;" horiz-adv-x="1394" d="M143 526v908h228v-906q0 -161 84.5 -252.5t242.5 -91.5q156 0 242 93t86 253v904h225v-906q0 -249 -148 -402t-405 -153q-264 0 -409.5 149.5t-145.5 403.5zM387 1524l195 276h229l193 -276h-195l-113 157l-112 -157h-197z" />
<glyph unicode="&#xdc;" horiz-adv-x="1394" d="M143 526v908h228v-906q0 -161 84.5 -252.5t242.5 -91.5q156 0 242 93t86 253v904h225v-906q0 -249 -148 -402t-405 -153q-264 0 -409.5 149.5t-145.5 403.5zM399 1663q0 50 34.5 85.5t86.5 35.5t86.5 -35.5t34.5 -85.5q0 -51 -34.5 -86t-86.5 -35t-86.5 35t-34.5 86z M758 1663q0 51 34 86t87 35q52 0 86 -35.5t34 -85.5q0 -51 -34 -86t-86 -35q-53 0 -87 34.5t-34 86.5z" />
<glyph unicode="&#xdd;" horiz-adv-x="1142" d="M16 1434h258l297 -560l303 560h252l-442 -770v-664h-225v664zM463 1518l141 292h238l-191 -292h-188z" />
<glyph unicode="&#xde;" horiz-adv-x="1097" d="M150 0v1434h227v-267h223q203 0 321.5 -114.5t118.5 -313.5t-121.5 -318.5t-318.5 -119.5h-223v-301h-227zM377 500h196q109 0 171.5 64.5t62.5 172.5t-62 170t-170 62h-198v-469z" />
<glyph unicode="&#xdf;" horiz-adv-x="1124" d="M123 0v1116q0 185 110.5 274t292.5 89q193 0 298.5 -88t105.5 -234q0 -90 -38.5 -153.5t-96.5 -94.5q124 -52 199 -155.5t75 -264.5q0 -236 -155 -362.5t-412 -126.5v186q68 0 127.5 17.5t109 53t78.5 95t29 137.5t-29.5 137t-79.5 92.5t-109 49.5t-126 16v185 q86 0 144.5 44t58.5 122q0 66 -48 109.5t-131 43.5q-84 0 -132 -46t-48 -136v-1106h-223z" />
<glyph unicode="&#xe0;" horiz-adv-x="1060" d="M59 330q0 156 115 254t299 98q85 0 153 -23t103 -55v101q0 92 -60.5 144t-166.5 52q-147 0 -299 -84l-86 156q192 123 407 123q116 0 200 -30t132.5 -86t71 -127.5t22.5 -162.5v-690h-194l-19 80q-96 -107 -274 -107q-172 0 -288 99.5t-116 257.5zM281 1485h235l143 -293 h-190zM283 336q0 -80 63 -132t164 -52q99 0 162 50.5t63 133.5q0 84 -62.5 134t-164.5 50q-100 0 -162.5 -52t-62.5 -132z" />
<glyph unicode="&#xe1;" horiz-adv-x="1060" d="M59 330q0 156 115 254t299 98q85 0 153 -23t103 -55v101q0 92 -60.5 144t-166.5 52q-147 0 -299 -84l-86 156q192 123 407 123q116 0 200 -30t132.5 -86t71 -127.5t22.5 -162.5v-690h-194l-19 80q-96 -107 -274 -107q-172 0 -288 99.5t-116 257.5zM283 336q0 -80 63 -132 t164 -52q99 0 162 50.5t63 133.5q0 84 -62.5 134t-164.5 50q-100 0 -162.5 -52t-62.5 -132zM412 1192l141 293h238l-191 -293h-188z" />
<glyph unicode="&#xe2;" horiz-adv-x="1060" d="M59 330q0 156 115 254t299 98q85 0 153 -23t103 -55v101q0 92 -60.5 144t-166.5 52q-147 0 -299 -84l-86 156q192 123 407 123q116 0 200 -30t132.5 -86t71 -127.5t22.5 -162.5v-690h-194l-19 80q-96 -107 -274 -107q-172 0 -288 99.5t-116 257.5zM221 1206l195 277h229 l193 -277h-195l-113 158l-112 -158h-197zM283 336q0 -80 63 -132t164 -52q99 0 162 50.5t63 133.5q0 84 -62.5 134t-164.5 50q-100 0 -162.5 -52t-62.5 -132z" />
<glyph unicode="&#xe3;" horiz-adv-x="1060" d="M59 330q0 156 115 254t299 98q85 0 153 -23t103 -55v101q0 92 -60.5 144t-166.5 52q-147 0 -299 -84l-86 156q192 123 407 123q116 0 200 -30t132.5 -86t71 -127.5t22.5 -162.5v-690h-194l-19 80q-96 -107 -274 -107q-172 0 -288 99.5t-116 257.5zM182 1217 q0 110 58 177.5t151 67.5q46 0 95 -21t90 -42t69 -21q32 0 52 23t20 61h147q0 -112 -56 -178.5t-149 -66.5q-46 0 -94.5 20.5t-90.5 41.5t-73 21q-32 0 -51 -21.5t-20 -61.5h-148zM283 336q0 -80 63 -132t164 -52q99 0 162 50.5t63 133.5q0 84 -62.5 134t-164.5 50 q-100 0 -162.5 -52t-62.5 -132z" />
<glyph unicode="&#xe4;" horiz-adv-x="1060" d="M59 330q0 156 115 254t299 98q85 0 153 -23t103 -55v101q0 92 -60.5 144t-166.5 52q-147 0 -299 -84l-86 156q192 123 407 123q116 0 200 -30t132.5 -86t71 -127.5t22.5 -162.5v-690h-194l-19 80q-96 -107 -274 -107q-172 0 -288 99.5t-116 257.5zM246 1337 q0 50 34.5 85.5t86.5 35.5t86 -35.5t34 -85.5q0 -51 -34 -85.5t-86 -34.5t-86.5 34.5t-34.5 85.5zM283 336q0 -80 63 -132t164 -52q99 0 162 50.5t63 133.5q0 84 -62.5 134t-164.5 50q-100 0 -162.5 -52t-62.5 -132zM604 1337q0 51 34 86t87 35q52 0 86.5 -35.5t34.5 -85.5 q0 -51 -34.5 -85.5t-86.5 -34.5q-53 0 -87 34t-34 86z" />
<glyph unicode="&#xe5;" horiz-adv-x="1060" d="M59 330q0 156 115 254t299 98q85 0 153 -23t103 -55v101q0 92 -60.5 144t-166.5 52q-147 0 -299 -84l-86 156q192 123 407 123q116 0 200 -30t132.5 -86t71 -127.5t22.5 -162.5v-690h-194l-19 80q-96 -107 -274 -107q-172 0 -288 99.5t-116 257.5zM283 336q0 -80 63 -132 t164 -52q99 0 162 50.5t63 133.5q0 84 -62.5 134t-164.5 50q-100 0 -162.5 -52t-62.5 -132zM336 1360q0 84 57 137t144 53q89 0 145.5 -52.5t56.5 -135.5q0 -85 -57 -139t-145 -54q-87 0 -144 54t-57 137zM457 1360q0 -37 22.5 -59.5t59.5 -22.5t58 23t21 61q0 36 -22 59 t-59 23q-35 0 -57.5 -23.5t-22.5 -60.5z" />
<glyph unicode="&#xe6;" horiz-adv-x="1812" d="M59 330q0 156 115 254t299 98q85 0 153 -23t103 -55v101q0 92 -60.5 144t-166.5 52q-147 0 -299 -84l-86 156q192 123 407 123q259 0 350 -172q66 82 161.5 127t205.5 45q240 0 377 -152t137 -407q0 -38 -2 -56h-803q3 -141 94.5 -227t235.5 -86q109 0 182.5 45 t114.5 104l145 -110q-21 -37 -55.5 -74t-88 -75t-132 -61.5t-168.5 -23.5q-143 0 -256 52.5t-180 150.5q-47 -89 -140.5 -146t-238.5 -57q-172 0 -288 99.5t-116 257.5zM283 336q0 -80 63 -132t164 -52q99 0 160 50.5t61 133.5q0 84 -60.5 134t-162.5 50q-100 0 -162.5 -52 t-62.5 -132zM958 635h570q-6 128 -86 201t-199 73q-116 0 -195.5 -75t-89.5 -199z" />
<glyph unicode="&#xe7;" horiz-adv-x="1026" d="M59 535q0 118 43 222t116.5 178.5t177 117.5t220.5 43q206 0 357 -131l-68 -189q-122 117 -282 117q-150 0 -244 -102t-94 -256t98.5 -258.5t247.5 -104.5q147 0 278 119l64 -185q-57 -50 -147.5 -91.5t-209.5 -41.5l-8 -61q76 -13 118 -60.5t42 -121.5 q0 -100 -68 -149.5t-174 -49.5q-53 0 -102 14l27 125q32 -8 63 -8q44 0 73 18t29 58q0 36 -31.5 55t-80.5 19l-35 -2l25 176q-195 38 -315 188.5t-120 360.5z" />
<glyph unicode="&#xe8;" horiz-adv-x="1150" d="M61 530q0 163 69 293t188 201.5t264 71.5q240 0 377 -152t137 -407q0 -38 -2 -56h-805q3 -141 95.5 -227t236.5 -86q108 0 180.5 45t113.5 104l148 -110q-22 -38 -57 -74.5t-89 -74.5t-132.5 -61.5t-168.5 -23.5q-249 0 -402 156t-153 401zM297 635h571q-6 128 -85.5 201 t-198.5 73q-117 0 -197 -74.5t-90 -199.5zM332 1485h235l144 -293h-191z" />
<glyph unicode="&#xe9;" horiz-adv-x="1150" d="M61 530q0 163 69 293t188 201.5t264 71.5q240 0 377 -152t137 -407q0 -38 -2 -56h-805q3 -141 95.5 -227t236.5 -86q108 0 180.5 45t113.5 104l148 -110q-22 -38 -57 -74.5t-89 -74.5t-132.5 -61.5t-168.5 -23.5q-249 0 -402 156t-153 401zM297 635h571q-6 128 -85.5 201 t-198.5 73q-117 0 -197 -74.5t-90 -199.5zM459 1192l141 293h238l-191 -293h-188z" />
<glyph unicode="&#xea;" horiz-adv-x="1150" d="M61 530q0 163 69 293t188 201.5t264 71.5q240 0 377 -152t137 -407q0 -38 -2 -56h-805q3 -141 95.5 -227t236.5 -86q108 0 180.5 45t113.5 104l148 -110q-22 -38 -57 -74.5t-89 -74.5t-132.5 -61.5t-168.5 -23.5q-249 0 -402 156t-153 401zM279 1206l194 277h229 l193 -277h-195l-112 158l-113 -158h-196zM297 635h571q-6 128 -85.5 201t-198.5 73q-117 0 -197 -74.5t-90 -199.5z" />
<glyph unicode="&#xeb;" horiz-adv-x="1150" d="M61 530q0 163 69 293t188 201.5t264 71.5q240 0 377 -152t137 -407q0 -38 -2 -56h-805q3 -141 95.5 -227t236.5 -86q108 0 180.5 45t113.5 104l148 -110q-22 -38 -57 -74.5t-89 -74.5t-132.5 -61.5t-168.5 -23.5q-249 0 -402 156t-153 401zM295 1337q0 50 34.5 85.5 t86.5 35.5t86.5 -35.5t34.5 -85.5q0 -51 -34.5 -85.5t-86.5 -34.5t-86.5 34.5t-34.5 85.5zM297 635h571q-6 128 -85.5 201t-198.5 73q-117 0 -197 -74.5t-90 -199.5zM653 1337q0 51 34 86t87 35q52 0 86.5 -35.5t34.5 -85.5q0 -51 -34.5 -85.5t-86.5 -34.5q-53 0 -87 34 t-34 86z" />
<glyph unicode="&#xec;" d="M-20 1485h235l143 -293h-190zM125 0v1069h223v-1069h-223z" />
<glyph unicode="&#xed;" d="M113 1192l141 293h238l-191 -293h-188zM125 0v1069h223v-1069h-223z" />
<glyph unicode="&#xee;" d="M-68 1206l195 277h229l193 -277h-195l-112 158l-113 -158h-197zM125 0v1069h223v-1069h-223z" />
<glyph unicode="&#xef;" d="M-59 1337q0 50 34 85.5t86 35.5t86.5 -35.5t34.5 -85.5q0 -51 -34.5 -85.5t-86.5 -34.5t-86 34.5t-34 85.5zM125 0v1069h223v-1069h-223zM299 1337q0 51 34 86t87 35q52 0 86.5 -35.5t34.5 -85.5q0 -51 -34.5 -85.5t-86.5 -34.5q-53 0 -87 34t-34 86z" />
<glyph unicode="&#xf0;" horiz-adv-x="1208" d="M61 510q0 226 148.5 370t378.5 144q91 0 155 -31q-33 51 -79.5 97t-90.5 77l-327 -123l-23 150l213 82q-90 64 -198 123l133 110q135 -57 282 -157l262 100l23 -152l-156 -59q357 -301 357 -684q0 -119 -34 -223.5t-100 -185.5t-171.5 -128t-239.5 -47q-157 0 -280 72.5 t-188 194.5t-65 270zM287 510q0 -144 84 -242t223 -98q154 0 236.5 100.5t82.5 255.5q0 132 -86 224t-221 92q-149 0 -234 -95t-85 -237z" />
<glyph unicode="&#xf1;" horiz-adv-x="1134" d="M125 0v1069h219v-139q38 69 119 117.5t182 48.5q100 0 174 -37.5t116.5 -102.5t62.5 -143t20 -170v-643h-221v662q0 108 -60 170.5t-155 62.5q-105 0 -169.5 -70t-64.5 -180v-645h-223zM236 1217q0 110 57.5 177.5t150.5 67.5q46 0 95 -21t90 -42t69 -21q32 0 52 23 t20 61h148q0 -112 -56 -178.5t-149 -66.5q-46 0 -94.5 20.5t-90.5 41.5t-73 21q-32 0 -51.5 -21.5t-20.5 -61.5h-147z" />
<glyph unicode="&#xf2;" horiz-adv-x="1251" d="M59 532q0 242 162 403t404 161q163 0 292.5 -72.5t202 -201t72.5 -287.5t-73.5 -287.5t-203 -201.5t-290.5 -73q-246 0 -406 158t-160 401zM285 532q0 -158 95.5 -259t244.5 -101t246.5 103t97.5 260t-97.5 259.5t-246.5 102.5q-150 0 -245 -103.5t-95 -261.5zM352 1485 h236l143 -293h-190z" />
<glyph unicode="&#xf3;" horiz-adv-x="1251" d="M59 532q0 242 162 403t404 161q163 0 292.5 -72.5t202 -201t72.5 -287.5t-73.5 -287.5t-203 -201.5t-290.5 -73q-246 0 -406 158t-160 401zM285 532q0 -158 95.5 -259t244.5 -101t246.5 103t97.5 260t-97.5 259.5t-246.5 102.5q-150 0 -245 -103.5t-95 -261.5zM500 1192 l141 293h238l-191 -293h-188z" />
<glyph unicode="&#xf4;" horiz-adv-x="1251" d="M59 532q0 242 162 403t404 161q163 0 292.5 -72.5t202 -201t72.5 -287.5t-73.5 -287.5t-203 -201.5t-290.5 -73q-246 0 -406 158t-160 401zM285 532q0 -158 95.5 -259t244.5 -101t246.5 103t97.5 260t-97.5 259.5t-246.5 102.5q-150 0 -245 -103.5t-95 -261.5zM324 1206 l194 277h230l192 -277h-195l-112 158l-113 -158h-196z" />
<glyph unicode="&#xf5;" horiz-adv-x="1251" d="M59 532q0 242 162 403t404 161q163 0 292.5 -72.5t202 -201t72.5 -287.5t-73.5 -287.5t-203 -201.5t-290.5 -73q-246 0 -406 158t-160 401zM285 532q0 -158 95.5 -259t244.5 -101t246.5 103t97.5 260t-97.5 259.5t-246.5 102.5q-150 0 -245 -103.5t-95 -261.5zM291 1217 q0 110 58 177.5t151 67.5q46 0 95 -21t90 -42t69 -21q32 0 51.5 23t19.5 61h148q0 -112 -56 -178.5t-149 -66.5q-46 0 -94.5 20.5t-90.5 41.5t-73 21q-32 0 -51.5 -21.5t-20.5 -61.5h-147z" />
<glyph unicode="&#xf6;" horiz-adv-x="1251" d="M59 532q0 242 162 403t404 161q163 0 292.5 -72.5t202 -201t72.5 -287.5t-73.5 -287.5t-203 -201.5t-290.5 -73q-246 0 -406 158t-160 401zM285 532q0 -158 95.5 -259t244.5 -101t246.5 103t97.5 260t-97.5 259.5t-246.5 102.5q-150 0 -245 -103.5t-95 -261.5zM338 1337 q0 50 34.5 85.5t86.5 35.5t86.5 -35.5t34.5 -85.5q0 -51 -34.5 -85.5t-86.5 -34.5t-86.5 34.5t-34.5 85.5zM696 1337q0 51 34 86t87 35q52 0 86.5 -35.5t34.5 -85.5q0 -51 -34.5 -85.5t-86.5 -34.5q-53 0 -87 34t-34 86z" />
<glyph unicode="&#xf7;" horiz-adv-x="1128" d="M80 547v182h969v-182h-969zM438 264q0 52 36 88.5t89 36.5t89 -36.5t36 -88.5q0 -51 -36.5 -88t-88.5 -37t-88.5 37t-36.5 88zM438 1010q0 53 36.5 90t88.5 37t88.5 -37t36.5 -90q0 -51 -36.5 -87t-88.5 -36t-88.5 36t-36.5 87z" />
<glyph unicode="&#xf8;" horiz-adv-x="1253" d="M59 532q0 242 162 403t404 161q161 0 295 -78l77 98l115 -90l-76 -96q156 -159 156 -395q0 -159 -73.5 -287.5t-203 -201.5t-290.5 -73q-157 0 -285 70l-80 -100l-113 90l76 94q-164 161 -164 405zM285 532q0 -139 75 -229l428 549q-73 45 -163 45q-150 0 -245 -103.5 t-95 -261.5zM471 209q64 -37 154 -37q149 0 246.5 103t97.5 260q0 125 -72 219z" />
<glyph unicode="&#xf9;" horiz-adv-x="1126" d="M117 426v643h221v-661q0 -108 60.5 -171t154.5 -63q105 0 169 69.5t64 180.5v645h224v-1069h-219v139q-38 -69 -119 -117.5t-183 -48.5q-100 0 -174 37.5t-116 102.5t-62 143t-20 170zM322 1485h235l143 -293h-190z" />
<glyph unicode="&#xfa;" horiz-adv-x="1126" d="M117 426v643h221v-661q0 -108 60.5 -171t154.5 -63q105 0 169 69.5t64 180.5v645h224v-1069h-219v139q-38 -69 -119 -117.5t-183 -48.5q-100 0 -174 37.5t-116 102.5t-62 143t-20 170zM442 1192l142 293h237l-190 -293h-189z" />
<glyph unicode="&#xfb;" horiz-adv-x="1126" d="M117 426v643h221v-661q0 -108 60.5 -171t154.5 -63q105 0 169 69.5t64 180.5v645h224v-1069h-219v139q-38 -69 -119 -117.5t-183 -48.5q-100 0 -174 37.5t-116 102.5t-62 143t-20 170zM258 1206l195 277h229l192 -277h-194l-113 158l-112 -158h-197z" />
<glyph unicode="&#xfc;" horiz-adv-x="1126" d="M117 426v643h221v-661q0 -108 60.5 -171t154.5 -63q105 0 169 69.5t64 180.5v645h224v-1069h-219v139q-38 -69 -119 -117.5t-183 -48.5q-100 0 -174 37.5t-116 102.5t-62 143t-20 170zM279 1337q0 50 34 85.5t86 35.5t86.5 -35.5t34.5 -85.5q0 -51 -34.5 -85.5 t-86.5 -34.5t-86 34.5t-34 85.5zM637 1337q0 51 34 86t87 35q52 0 86.5 -35.5t34.5 -85.5q0 -51 -34.5 -85.5t-86.5 -34.5q-53 0 -87 34t-34 86z" />
<glyph unicode="&#xfd;" horiz-adv-x="1073" d="M12 1069h240l289 -778l284 778h234l-559 -1436h-215l151 385zM424 1192l141 293h238l-191 -293h-188z" />
<glyph unicode="&#xfe;" horiz-adv-x="1263" d="M125 -383v1864h223v-543q135 158 332 158q229 0 375.5 -157t146.5 -402q0 -250 -140 -407t-368 -157q-58 0 -111 13.5t-90 32.5t-69 43.5t-49 43.5t-27 35v-524h-223zM340 537q0 -169 90.5 -267t228.5 -98q140 0 229 102t89 263q0 162 -90.5 261t-229.5 99 q-144 0 -230.5 -103.5t-86.5 -256.5z" />
<glyph unicode="&#xff;" horiz-adv-x="1073" d="M12 1069h240l289 -778l284 778h234l-559 -1436h-215l151 385zM248 1337q0 50 34.5 85.5t86.5 35.5t86 -35.5t34 -85.5q0 -51 -34 -85.5t-86 -34.5t-86.5 34.5t-34.5 85.5zM606 1337q0 51 34 86t87 35q52 0 86.5 -35.5t34.5 -85.5q0 -51 -34.5 -85.5t-86.5 -34.5 q-53 0 -87 34t-34 86z" />
<glyph unicode="&#x100;" horiz-adv-x="1323" d="M20 0l523 1434h235l522 -1434h-229l-147 418h-525l-149 -418h-230zM399 1552v168h523v-168h-523zM463 608h397l-198 580z" />
<glyph unicode="&#x101;" horiz-adv-x="1060" d="M59 330q0 156 115 254t299 98q85 0 153 -23t103 -55v101q0 92 -60.5 144t-166.5 52q-147 0 -299 -84l-86 156q192 123 407 123q116 0 200 -30t132.5 -86t71 -127.5t22.5 -162.5v-690h-194l-19 80q-96 -107 -274 -107q-172 0 -288 99.5t-116 257.5zM276 1262v168h523v-168 h-523zM283 336q0 -80 63 -132t164 -52q99 0 162 50.5t63 133.5q0 84 -62.5 134t-164.5 50q-100 0 -162.5 -52t-62.5 -132z" />
<glyph unicode="&#x102;" horiz-adv-x="1323" d="M20 0l523 1434h235l522 -1434h-229l-147 418h-525l-149 -418h-230zM375 1800h166q0 -61 27.5 -99t90.5 -38t92 38.5t29 98.5h166q0 -122 -75.5 -199t-211.5 -77q-134 0 -209 77t-75 199zM463 608h397l-198 580z" />
<glyph unicode="&#x103;" horiz-adv-x="1060" d="M59 330q0 156 115 254t299 98q85 0 153 -23t103 -55v101q0 92 -60.5 144t-166.5 52q-147 0 -299 -84l-86 156q192 123 407 123q116 0 200 -30t132.5 -86t71 -127.5t22.5 -162.5v-690h-194l-19 80q-96 -107 -274 -107q-172 0 -288 99.5t-116 257.5zM244 1473h166 q0 -61 27.5 -99.5t90.5 -38.5t92 39t29 99h166q0 -122 -75.5 -199.5t-211.5 -77.5q-134 0 -209 77.5t-75 199.5zM283 336q0 -80 63 -132t164 -52q99 0 162 50.5t63 133.5q0 84 -62.5 134t-164.5 50q-100 0 -162.5 -52t-62.5 -132z" />
<glyph unicode="&#x104;" horiz-adv-x="1323" d="M20 0l523 1434h235l522 -1434q-15 -6 -34 -17.5t-42 -30t-38 -46.5t-15 -58q0 -38 29 -61t74 -23v-174q-24 -4 -51 -4q-99 0 -170.5 51t-71.5 148q0 73 49 130t107 85h-66l-147 418h-525l-149 -418h-230zM463 608h397l-198 580z" />
<glyph unicode="&#x105;" horiz-adv-x="1060" d="M59 330q0 156 115 254t299 98q85 0 153 -23t103 -55v101q0 92 -60.5 144t-166.5 52q-147 0 -299 -84l-86 156q192 123 407 123q116 0 200 -30t132.5 -86t71 -127.5t22.5 -162.5v-690q-15 -6 -34 -17.5t-42 -30t-38 -46.5t-15 -58q0 -38 29 -61t74 -23v-174q-25 -4 -52 -4 q-99 0 -170 51t-71 148q0 73 48.5 130.5t106.5 84.5h-30l-19 80q-96 -107 -274 -107q-172 0 -288 99.5t-116 257.5zM283 336q0 -80 63 -132t164 -52q99 0 162 50.5t63 133.5q0 84 -62.5 134t-164.5 50q-100 0 -162.5 -52t-62.5 -132z" />
<glyph unicode="&#x106;" horiz-adv-x="1325" d="M72 717q0 156 56 294t153.5 236.5t234 155.5t291.5 57q249 0 434 -139l-67 -201q-63 49 -156.5 88t-204.5 39q-146 0 -262.5 -70.5t-180 -191t-63.5 -268.5q0 -227 141 -379t367 -152q197 0 377 136l68 -199q-76 -58 -190.5 -104t-260.5 -46q-213 0 -382 97.5t-262 267.5 t-93 379zM643 1518l141 292h238l-191 -292h-188z" />
<glyph unicode="&#x107;" horiz-adv-x="1026" d="M59 535q0 118 43 222t116.5 178.5t177 117.5t220.5 43q206 0 357 -131l-68 -189q-122 117 -282 117q-150 0 -244 -102t-94 -256t98.5 -258.5t247.5 -104.5q147 0 278 119l64 -185q-57 -50 -147.5 -91.5t-207.5 -41.5q-243 0 -401 159.5t-158 402.5zM471 1192l141 293h238 l-191 -293h-188z" />
<glyph unicode="&#x108;" horiz-adv-x="1325" d="M72 717q0 156 56 294t153.5 236.5t234 155.5t291.5 57q249 0 434 -139l-67 -201q-63 49 -156.5 88t-204.5 39q-146 0 -262.5 -70.5t-180 -191t-63.5 -268.5q0 -227 141 -379t367 -152q197 0 377 136l68 -199q-76 -58 -190.5 -104t-260.5 -46q-213 0 -382 97.5t-262 267.5 t-93 379zM496 1524l194 276h230l192 -276h-194l-113 157l-113 -157h-196z" />
<glyph unicode="&#x109;" horiz-adv-x="1026" d="M59 535q0 118 43 222t116.5 178.5t177 117.5t220.5 43q206 0 357 -131l-68 -189q-122 117 -282 117q-150 0 -244 -102t-94 -256t98.5 -258.5t247.5 -104.5q147 0 278 119l64 -185q-57 -50 -147.5 -91.5t-207.5 -41.5q-243 0 -401 159.5t-158 402.5zM303 1206l195 277h229 l193 -277h-195l-113 158l-112 -158h-197z" />
<glyph unicode="&#x10a;" horiz-adv-x="1325" d="M72 717q0 156 56 294t153.5 236.5t234 155.5t291.5 57q249 0 434 -139l-67 -201q-63 49 -156.5 88t-204.5 39q-146 0 -262.5 -70.5t-180 -191t-63.5 -268.5q0 -227 141 -379t367 -152q197 0 377 136l68 -199q-76 -58 -190.5 -104t-260.5 -46q-213 0 -382 97.5t-262 267.5 t-93 379zM670 1657q0 59 40 99t99 40t99 -40t40 -99t-40 -99t-99 -40t-99 40t-40 99z" />
<glyph unicode="&#x10b;" horiz-adv-x="1026" d="M57 535q0 118 43 222t116.5 178.5t177 117.5t220.5 43q206 0 357 -131l-68 -189q-122 117 -282 117q-150 0 -244 -102t-94 -256t98.5 -258.5t247.5 -104.5q147 0 278 119l64 -185q-57 -50 -147.5 -91.5t-207.5 -41.5q-243 0 -401 159.5t-158 402.5zM477 1333 q0 59 40.5 99.5t98.5 40.5t99 -40.5t41 -99.5q0 -58 -40.5 -98.5t-99.5 -40.5q-58 0 -98.5 40t-40.5 99z" />
<glyph unicode="&#x10c;" horiz-adv-x="1325" d="M72 717q0 156 56 294t153.5 236.5t234 155.5t291.5 57q249 0 434 -139l-67 -201q-63 49 -156.5 88t-204.5 39q-146 0 -262.5 -70.5t-180 -191t-63.5 -268.5q0 -227 141 -379t367 -152q197 0 377 136l68 -199q-76 -58 -190.5 -104t-260.5 -46q-213 0 -382 97.5t-262 267.5 t-93 379zM494 1800h196l113 -155l112 155h195l-192 -276h-230z" />
<glyph unicode="&#x10d;" horiz-adv-x="1026" d="M59 535q0 118 43 222t116.5 178.5t177 117.5t220.5 43q206 0 357 -131l-68 -189q-122 117 -282 117q-150 0 -244 -102t-94 -256t98.5 -258.5t247.5 -104.5q147 0 278 119l64 -185q-57 -50 -147.5 -91.5t-207.5 -41.5q-243 0 -401 159.5t-158 402.5zM295 1483h197 l112 -156l113 156h194l-192 -277h-230z" />
<glyph unicode="&#x10e;" horiz-adv-x="1323" d="M150 0v1434h337q359 0 561.5 -190t202.5 -527q0 -346 -202.5 -531.5t-561.5 -185.5h-337zM258 1800h197l112 -155l113 155h194l-192 -276h-229zM377 199h133q235 0 370.5 133t135.5 385q0 244 -136.5 380t-369.5 136h-133v-1034z" />
<glyph unicode="&#x10f;" horiz-adv-x="1271" d="M59 532q0 249 140.5 406.5t367.5 157.5q71 0 134.5 -19t105 -49t67.5 -55t39 -47v555h224v-1481h-211v139q-18 -22 -39 -43t-64 -52.5t-106 -51t-135 -19.5q-229 0 -376 156.5t-147 402.5zM285 530q0 -162 90 -261t229 -99q144 0 231 104t87 256q0 170 -91 268.5 t-229 98.5q-139 0 -228 -103t-89 -264zM1229 1124l14 357h230l-91 -357h-153z" />
<glyph unicode="&#x110;" horiz-adv-x="1323" d="M47 623v200h117v611h338q359 0 561.5 -190t202.5 -527q0 -346 -202.5 -531.5t-561.5 -185.5h-338v623h-117zM391 199h133q235 0 370.5 133t135.5 385q0 244 -136.5 380t-369.5 136h-133v-410h260v-200h-260v-424z" />
<glyph unicode="&#x111;" horiz-adv-x="1261" d="M59 532q0 249 140.5 406.5t367.5 157.5q71 0 134.5 -19t105 -49t67.5 -55t39 -47v256h-262v151h262v148h224v-148h127v-151h-127v-1182h-211v139q-18 -22 -39 -43t-64 -52.5t-106 -51t-135 -19.5q-229 0 -376 156.5t-147 402.5zM285 530q0 -162 90 -261t229 -99 q144 0 231 104t87 256q0 170 -91 268.5t-229 98.5q-139 0 -228 -103t-89 -264z" />
<glyph unicode="&#x112;" horiz-adv-x="978" d="M150 0v1434h708v-205h-481v-400h418v-202h-418v-422h502v-205h-729zM258 1552v168h522v-168h-522z" />
<glyph unicode="&#x113;" horiz-adv-x="1150" d="M61 530q0 163 69 293t188 201.5t264 71.5q240 0 377 -152t137 -407q0 -38 -2 -56h-805q3 -141 95.5 -227t236.5 -86q108 0 180.5 45t113.5 104l148 -110q-22 -38 -57 -74.5t-89 -74.5t-132.5 -61.5t-168.5 -23.5q-249 0 -402 156t-153 401zM297 635h571q-6 128 -85.5 201 t-198.5 73q-117 0 -197 -74.5t-90 -199.5zM332 1262v168h522v-168h-522z" />
<glyph unicode="&#x114;" horiz-adv-x="978" d="M150 0v1434h708v-205h-481v-400h418v-202h-418v-422h502v-205h-729zM225 1800h166q0 -60 28 -98.5t91 -38.5t92 38.5t29 98.5h166q0 -122 -75.5 -199t-211.5 -77q-134 0 -209.5 77t-75.5 199z" />
<glyph unicode="&#x115;" horiz-adv-x="1150" d="M61 530q0 163 69 293t188 201.5t264 71.5q240 0 377 -152t137 -407q0 -38 -2 -56h-805q3 -141 95.5 -227t236.5 -86q108 0 180.5 45t113.5 104l148 -110q-22 -38 -57 -74.5t-89 -74.5t-132.5 -61.5t-168.5 -23.5q-249 0 -402 156t-153 401zM297 635h571q-6 128 -85.5 201 t-198.5 73q-117 0 -197 -74.5t-90 -199.5zM297 1473h166q0 -61 28 -99.5t91 -38.5t91.5 39t28.5 99h166q0 -123 -75 -200t-211 -77q-134 0 -209.5 77.5t-75.5 199.5z" />
<glyph unicode="&#x116;" horiz-adv-x="978" d="M150 0v1434h708v-205h-481v-400h418v-202h-418v-422h502v-205h-729zM393 1657q0 59 40.5 99t98.5 40q59 0 99.5 -40.5t40.5 -98.5t-40.5 -98.5t-99.5 -40.5q-58 0 -98.5 40t-40.5 99z" />
<glyph unicode="&#x117;" horiz-adv-x="1150" d="M61 530q0 163 69 293t188 201.5t264 71.5q240 0 377 -152t137 -407q0 -38 -2 -56h-805q3 -141 95.5 -227t236.5 -86q108 0 180.5 45t113.5 104l148 -110q-22 -38 -57 -74.5t-89 -74.5t-132.5 -61.5t-168.5 -23.5q-249 0 -402 156t-153 401zM297 635h571q-6 128 -85.5 201 t-198.5 73q-117 0 -197 -74.5t-90 -199.5zM451 1333q0 59 40.5 99.5t98.5 40.5t98.5 -40.5t40.5 -99.5t-40.5 -99t-98.5 -40t-98.5 40t-40.5 99z" />
<glyph unicode="&#x118;" horiz-adv-x="978" d="M150 0v1434h708v-205h-481v-400h418v-202h-418v-422h502v-205q-15 -6 -34 -17.5t-42 -30t-38 -46.5t-15 -58q0 -38 28.5 -61t73.5 -23v-174q-24 -4 -51 -4q-99 0 -170.5 51t-71.5 148q0 73 49 130t107 85h-565z" />
<glyph unicode="&#x119;" horiz-adv-x="1150" d="M61 530q0 163 69 293t188 201.5t264 71.5q240 0 377 -152t137 -407q0 -38 -2 -56h-805q3 -141 95.5 -227t236.5 -86q108 0 180.5 45t113.5 104l148 -110q-60 -98 -184 -172q-46 -28 -86.5 -74t-40.5 -104q0 -39 29 -66t73 -27v-174q-24 -4 -51 -4q-99 0 -170.5 51 t-71.5 148q0 104 98 190q-14 -2 -43 -2q-249 0 -402 156t-153 401zM297 635h571q-6 128 -85.5 201t-198.5 73q-117 0 -197 -74.5t-90 -199.5z" />
<glyph unicode="&#x11a;" horiz-adv-x="978" d="M150 0v1434h708v-205h-481v-400h418v-202h-418v-422h502v-205h-729zM223 1800h197l112 -155l113 155h195l-193 -276h-229z" />
<glyph unicode="&#x11b;" horiz-adv-x="1150" d="M61 530q0 163 69 293t188 201.5t264 71.5q240 0 377 -152t137 -407q0 -38 -2 -56h-805q3 -141 95.5 -227t236.5 -86q108 0 180.5 45t113.5 104l148 -110q-22 -38 -57 -74.5t-89 -74.5t-132.5 -61.5t-168.5 -23.5q-249 0 -402 156t-153 401zM276 1483h197l113 -156 l112 156h195l-193 -277h-229zM297 635h571q-6 128 -85.5 201t-198.5 73q-117 0 -197 -74.5t-90 -199.5z" />
<glyph unicode="&#x11c;" horiz-adv-x="1519" d="M72 717q0 154 55 291t150.5 236.5t233 157.5t294.5 58q107 0 201 -22.5t160.5 -59.5t109 -70.5t76.5 -70.5l-144 -150q-162 162 -395 162q-225 0 -364.5 -150.5t-139.5 -379.5q0 -237 142.5 -386t361.5 -149q144 0 241.5 42.5t139.5 86.5v242h-295v195h510v-547 q-122 -113 -267.5 -171.5t-340.5 -58.5q-203 0 -369 92.5t-263 263.5t-97 388zM504 1524l194 276h230l192 -276h-194l-113 157l-113 -157h-196z" />
<glyph unicode="&#x11d;" horiz-adv-x="1251" d="M59 532q0 248 144.5 406t371.5 158q70 0 133 -19t105.5 -48.5t69 -54.5t41.5 -48v143h211v-928q0 -117 -28 -209t-77.5 -152.5t-120.5 -100t-151.5 -56t-177.5 -16.5q-102 0 -207 29t-180 73l71 172q47 -28 131.5 -55t182.5 -27q70 0 128 14t106 44t74.5 84t26.5 127v71 q-11 -15 -25 -31t-45.5 -42t-67 -45t-90 -33.5t-114.5 -14.5q-229 0 -370.5 156t-141.5 403zM283 535q0 -162 90.5 -262.5t228.5 -100.5q143 0 230.5 101.5t87.5 261.5q0 162 -90 262t-230 100q-139 0 -228 -101t-89 -261zM315 1206l195 277h229l193 -277h-195l-112 158 l-113 -158h-197z" />
<glyph unicode="&#x11e;" horiz-adv-x="1519" d="M72 717q0 154 55 291t150.5 236.5t233 157.5t294.5 58q107 0 201 -22.5t160.5 -59.5t109 -70.5t76.5 -70.5l-144 -150q-162 162 -395 162q-225 0 -364.5 -150.5t-139.5 -379.5q0 -237 142.5 -386t361.5 -149q144 0 241.5 42.5t139.5 86.5v242h-295v195h510v-547 q-122 -113 -267.5 -171.5t-340.5 -58.5q-203 0 -369 92.5t-263 263.5t-97 388zM518 1800h166q0 -60 28 -98.5t91 -38.5t92 38.5t29 98.5h166q0 -122 -75.5 -199t-211.5 -77q-134 0 -209.5 77t-75.5 199z" />
<glyph unicode="&#x11f;" horiz-adv-x="1251" d="M59 532q0 248 144.5 406t371.5 158q70 0 133 -19t105.5 -48.5t69 -54.5t41.5 -48v143h211v-928q0 -117 -28 -209t-77.5 -152.5t-120.5 -100t-151.5 -56t-177.5 -16.5q-102 0 -207 29t-180 73l71 172q47 -28 131.5 -55t182.5 -27q70 0 128 14t106 44t74.5 84t26.5 127v71 q-11 -15 -25 -31t-45.5 -42t-67 -45t-90 -33.5t-114.5 -14.5q-229 0 -370.5 156t-141.5 403zM283 535q0 -162 90.5 -262.5t228.5 -100.5q143 0 230.5 101.5t87.5 261.5q0 162 -90 262t-230 100q-139 0 -228 -101t-89 -261zM338 1473h166q0 -61 28 -99.5t91 -38.5t91.5 39 t28.5 99h166q0 -123 -75 -200t-211 -77q-134 0 -209.5 77.5t-75.5 199.5z" />
<glyph unicode="&#x120;" horiz-adv-x="1519" d="M72 717q0 154 55 291t150.5 236.5t233 157.5t294.5 58q107 0 201 -22.5t160.5 -59.5t109 -70.5t76.5 -70.5l-144 -150q-162 162 -395 162q-225 0 -364.5 -150.5t-139.5 -379.5q0 -237 142.5 -386t361.5 -149q144 0 241.5 42.5t139.5 86.5v242h-295v195h510v-547 q-122 -113 -267.5 -171.5t-340.5 -58.5q-203 0 -369 92.5t-263 263.5t-97 388zM676 1657q0 59 40 99t99 40t99 -40t40 -99t-40 -99t-99 -40t-99 40t-40 99z" />
<glyph unicode="&#x121;" horiz-adv-x="1251" d="M59 532q0 248 144.5 406t371.5 158q70 0 133 -19t105.5 -48.5t69 -54.5t41.5 -48v143h211v-928q0 -117 -28 -209t-77.5 -152.5t-120.5 -100t-151.5 -56t-177.5 -16.5q-102 0 -207 29t-180 73l71 172q47 -28 131.5 -55t182.5 -27q70 0 128 14t106 44t74.5 84t26.5 127v71 q-11 -15 -25 -31t-45.5 -42t-67 -45t-90 -33.5t-114.5 -14.5q-229 0 -370.5 156t-141.5 403zM283 535q0 -162 90.5 -262.5t228.5 -100.5q143 0 230.5 101.5t87.5 261.5q0 162 -90 262t-230 100q-139 0 -228 -101t-89 -261zM469 1333q0 59 40.5 99.5t98.5 40.5t99 -40.5 t41 -99.5q0 -58 -40.5 -98.5t-99.5 -40.5q-58 0 -98.5 40t-40.5 99z" />
<glyph unicode="&#x122;" horiz-adv-x="1519" d="M72 717q0 154 55 291t150.5 236.5t233 157.5t294.5 58q107 0 201 -22.5t160.5 -59.5t109 -70.5t76.5 -70.5l-144 -150q-162 162 -395 162q-225 0 -364.5 -150.5t-139.5 -379.5q0 -237 142.5 -386t361.5 -149q144 0 241.5 42.5t139.5 86.5v242h-295v195h510v-547 q-122 -113 -267.5 -171.5t-340.5 -58.5q-203 0 -369 92.5t-263 263.5t-97 388zM692 -193q0 54 37.5 92t91.5 38q60 0 98.5 -41t38.5 -107q0 -100 -47 -185.5t-123 -144.5l-83 86q78 64 94 136q-49 9 -78 45t-29 81z" />
<glyph unicode="&#x123;" horiz-adv-x="1251" d="M59 532q0 248 144.5 406t371.5 158q70 0 133 -19t105.5 -48.5t69 -54.5t41.5 -48v143h211v-928q0 -117 -28 -209t-77.5 -152.5t-120.5 -100t-151.5 -56t-177.5 -16.5q-102 0 -207 29t-180 73l71 172q47 -28 131.5 -55t182.5 -27q70 0 128 14t106 44t74.5 84t26.5 127v71 q-11 -15 -25 -31t-45.5 -42t-67 -45t-90 -33.5t-114.5 -14.5q-229 0 -370.5 156t-141.5 403zM283 535q0 -162 90.5 -262.5t228.5 -100.5q143 0 230.5 101.5t87.5 261.5q0 162 -90 262t-230 100q-139 0 -228 -101t-89 -261zM479 1325q0 100 47 185.5t123 144.5l84 -86 q-30 -25 -58 -61.5t-36 -73.5q49 -9 77.5 -45.5t28.5 -81.5q0 -54 -37.5 -91.5t-91.5 -37.5q-60 0 -98.5 40.5t-38.5 106.5z" />
<glyph unicode="&#x124;" horiz-adv-x="1433" d="M150 0v1434h227v-605h680v605h227v-1434h-227v623h-680v-623h-227zM416 1524l194 276h230l192 -276h-194l-113 157l-113 -157h-196z" />
<glyph unicode="&#x125;" horiz-adv-x="1136" d="M125 0v1481h223v-551q39 69 118.5 117.5t180.5 48.5q100 0 174 -37.5t116.5 -102.5t62.5 -143t20 -170v-643h-221v662q0 108 -60 170.5t-155 62.5q-105 0 -170.5 -70t-65.5 -180v-645h-223zM274 1534l195 276h229l193 -276h-195l-112 158l-113 -158h-197z" />
<glyph unicode="&#x126;" horiz-adv-x="1433" d="M29 1051v163h121v220h227v-220h680v220h227v-220h121v-163h-121v-1051h-227v623h-680v-623h-227v1051h-121zM377 829h680v222h-680v-222z" />
<glyph unicode="&#x127;" horiz-adv-x="1136" d="M8 1190v151h117v140h223v-140h264v-151h-264v-260q39 69 118.5 117.5t180.5 48.5q100 0 174 -37.5t116.5 -102.5t62.5 -143t20 -170v-643h-221v662q0 108 -60 170.5t-155 62.5q-105 0 -170.5 -70t-65.5 -180v-645h-223v1190h-117z" />
<glyph unicode="&#x128;" horiz-adv-x="528" d="M-76 1538q0 110 58 178t151 68q46 0 95 -21t90 -42t69 -21q32 0 52 23t20 61h147q0 -112 -56 -179t-149 -67q-46 0 -94.5 21t-90.5 42t-73 21q-32 0 -50.5 -22t-20.5 -62h-148zM150 0v1434h227v-1434h-227z" />
<glyph unicode="&#x129;" d="M-104 1217q0 110 57.5 177.5t150.5 67.5q46 0 95 -21t90 -42t69 -21q32 0 52 23t20 61h148q0 -112 -56 -178.5t-149 -66.5q-46 0 -94.5 20.5t-90.5 41.5t-73 21q-32 0 -51.5 -21.5t-20.5 -61.5h-147zM125 0v1069h223v-1069h-223z" />
<glyph unicode="&#x12a;" horiz-adv-x="528" d="M4 1552v168h522v-168h-522zM150 0v1434h227v-1434h-227z" />
<glyph unicode="&#x12b;" d="M-25 1262v168h523v-168h-523zM125 0v1069h223v-1069h-223z" />
<glyph unicode="&#x12c;" horiz-adv-x="528" d="M-20 1800h165q0 -60 28 -98.5t91 -38.5t92 38.5t29 98.5h166q0 -122 -75.5 -199t-211.5 -77q-134 0 -209 77t-75 199zM150 0v1434h227v-1434h-227z" />
<glyph unicode="&#x12d;" d="M-49 1473h166q0 -61 28 -99.5t91 -38.5t91.5 39t28.5 99h166q0 -123 -75 -200t-211 -77q-134 0 -209.5 77.5t-75.5 199.5zM125 0v1069h223v-1069h-223z" />
<glyph unicode="&#x12e;" horiz-adv-x="528" d="M57 -215q0 73 49 130t107 85h-63v1434h227v-1434q-15 -6 -34 -17.5t-42 -30t-38 -46.5t-15 -58q0 -38 28.5 -61t73.5 -23v-174q-24 -4 -51 -4q-99 0 -170.5 51t-71.5 148z" />
<glyph unicode="&#x12f;" d="M29 -215q0 73 48.5 130.5t106.5 84.5h-59v1069h223v-1069q-15 -6 -34 -17.5t-42 -30t-38 -46.5t-15 -58q0 -38 29 -61t74 -23v-174q-25 -4 -52 -4q-99 0 -170 51t-71 148zM96 1333q0 59 41 99.5t99 40.5t98.5 -40.5t40.5 -99.5t-40.5 -99t-98.5 -40q-59 0 -99.5 40.5 t-40.5 98.5z" />
<glyph unicode="&#x130;" horiz-adv-x="528" d="M129 1657q0 59 40.5 99t98.5 40q59 0 99.5 -40.5t40.5 -98.5t-40.5 -98.5t-99.5 -40.5q-58 0 -98.5 40t-40.5 99zM150 0v1434h227v-1434h-227z" />
<glyph unicode="&#x131;" d="M125 0v1069h223v-1069h-223z" />
<glyph unicode="&#x132;" horiz-adv-x="1265" d="M150 0v1434h227v-1434h-227zM571 8l27 203q68 -16 127 -16q79 0 120.5 46t41.5 136v1057h227v-1094q0 -176 -97.5 -264t-264.5 -88q-107 0 -181 20z" />
<glyph unicode="&#x133;" horiz-adv-x="948" d="M96 1333q0 59 41 99.5t99 40.5t98.5 -40.5t40.5 -99.5t-40.5 -99t-98.5 -40q-59 0 -99.5 40.5t-40.5 98.5zM125 0v1069h223v-1069h-223zM387 -199q29 -2 47 -2q164 0 164 185v1085h223v-1094q0 -100 -28 -173t-80 -114t-117 -60t-147 -19l-62 4v188zM569 1333 q0 59 40.5 99.5t99.5 40.5q58 0 98.5 -40.5t40.5 -99.5t-40 -99t-99 -40t-99.5 40.5t-40.5 98.5z" />
<glyph unicode="&#x134;" horiz-adv-x="737" d="M43 8l27 203q68 -16 127 -16q79 0 120 46t41 136v1057h228v-1094q0 -176 -98 -264t-265 -88q-106 0 -180 20zM147 1524l195 276h229l193 -276h-195l-112 157l-113 -157h-197z" />
<glyph unicode="&#x135;" d="M-86 -199q29 -2 47 -2q164 0 164 185v1085h223v-1094q0 -100 -28.5 -173t-80.5 -114t-117 -60t-147 -19l-61 4v188zM-72 1206l195 277h229l193 -277h-195l-112 158l-113 -158h-197z" />
<glyph unicode="&#x136;" horiz-adv-x="1208" d="M150 0v1434h227v-662l528 662h256l-559 -693l580 -741h-262l-543 709v-709h-227zM496 -193q0 54 37.5 92t91.5 38q60 0 98.5 -41t38.5 -107q0 -100 -47 -185.5t-123 -144.5l-84 86q78 64 94 136q-49 9 -77.5 45t-28.5 81z" />
<glyph unicode="&#x137;" horiz-adv-x="1034" d="M125 0v1481h223v-869l395 457h254l-428 -483l457 -586h-264l-414 561v-561h-223zM406 -193q0 54 37.5 92t91.5 38q60 0 98.5 -41t38.5 -107q0 -100 -47 -185.5t-123 -144.5l-84 86q78 64 94 136q-49 9 -77.5 45t-28.5 81z" />
<glyph unicode="&#x138;" horiz-adv-x="1034" d="M125 0v1069h223v-469l395 469h254l-428 -496l457 -573h-264l-414 549v-549h-223z" />
<glyph unicode="&#x139;" horiz-adv-x="925" d="M150 0v1434h227v-1229h502v-205h-729zM168 1518l141 292h238l-191 -292h-188z" />
<glyph unicode="&#x13a;" d="M125 0v1481h223v-1481h-223zM135 1536l141 293h238l-190 -293h-189z" />
<glyph unicode="&#x13b;" horiz-adv-x="925" d="M150 0v1434h227v-1229h502v-205h-729zM408 -193q0 54 37.5 92t91.5 38q60 0 98.5 -41t38.5 -107q0 -100 -47 -185.5t-123 -144.5l-84 86q78 64 94 136q-49 9 -77.5 45t-28.5 81z" />
<glyph unicode="&#x13c;" d="M106 -193q0 54 38 92t92 38q60 0 98.5 -41t38.5 -107q0 -100 -47 -185.5t-123 -144.5l-84 86q78 64 94 136q-49 9 -78 45t-29 81zM125 0v1481h223v-1481h-223z" />
<glyph unicode="&#x13d;" horiz-adv-x="925" d="M150 0v1434h227v-1229h502v-205h-729zM567 1075l15 357h229l-90 -357h-154z" />
<glyph unicode="&#x13e;" d="M125 0v1481h223v-1481h-223zM432 1124l14 357h232l-90 -357h-156z" />
<glyph unicode="&#x13f;" horiz-adv-x="925" d="M150 0v1434h227v-1229h502v-205h-729zM551 754q0 60 41.5 102.5t101.5 42.5t103 -42.5t43 -102.5t-43 -103t-103 -43t-101.5 43t-41.5 103z" />
<glyph unicode="&#x140;" horiz-adv-x="747" d="M125 0v1481h223v-1481h-223zM440 698q0 60 42 103t102 43t102.5 -43t42.5 -103t-42.5 -102.5t-102.5 -42.5t-102 42.5t-42 102.5z" />
<glyph unicode="&#x141;" horiz-adv-x="925" d="M33 444v213l117 68v709h227v-580l237 141v-221l-237 -137v-432h502v-205h-729v510z" />
<glyph unicode="&#x142;" horiz-adv-x="585" d="M53 524v217l121 76v664h223v-531l133 86v-223l-133 -84v-729h-223v600z" />
<glyph unicode="&#x143;" horiz-adv-x="1452" d="M147 0v1434h230l702 -1078v1078h224v-1434h-226l-704 1071v-1071h-226zM627 1518l141 292h238l-191 -292h-188z" />
<glyph unicode="&#x144;" horiz-adv-x="1134" d="M125 0v1069h219v-139q38 69 119 117.5t182 48.5q100 0 174 -37.5t116.5 -102.5t62.5 -143t20 -170v-643h-221v662q0 108 -60 170.5t-155 62.5q-105 0 -169.5 -70t-64.5 -180v-645h-223zM457 1192l141 293h238l-191 -293h-188z" />
<glyph unicode="&#x145;" horiz-adv-x="1452" d="M147 0v1434h230l702 -1078v1078h224v-1434h-226l-704 1071v-1071h-226zM592 -193q0 54 37.5 92t91.5 38q60 0 98.5 -41t38.5 -107q0 -100 -47 -185.5t-123 -144.5l-84 86q78 64 94 136q-49 9 -77.5 45t-28.5 81z" />
<glyph unicode="&#x146;" horiz-adv-x="1134" d="M125 0v1069h219v-139q38 69 119 117.5t182 48.5q100 0 174 -37.5t116.5 -102.5t62.5 -143t20 -170v-643h-221v662q0 108 -60 170.5t-155 62.5q-105 0 -169.5 -70t-64.5 -180v-645h-223zM434 -193q0 54 37.5 92t91.5 38q60 0 98.5 -41t38.5 -107q0 -100 -47 -185.5 t-123 -144.5l-84 86q31 25 59 62t36 74q-49 9 -78 45t-29 81z" />
<glyph unicode="&#x147;" horiz-adv-x="1452" d="M147 0v1434h230l702 -1078v1078h224v-1434h-226l-704 1071v-1071h-226zM424 1800h197l112 -155l113 155h194l-192 -276h-230z" />
<glyph unicode="&#x148;" horiz-adv-x="1134" d="M125 0v1069h219v-139q38 69 119 117.5t182 48.5q100 0 174 -37.5t116.5 -102.5t62.5 -143t20 -170v-643h-221v662q0 108 -60 170.5t-155 62.5q-105 0 -169.5 -70t-64.5 -180v-645h-223zM274 1483h197l113 -156l112 156h195l-193 -277h-229z" />
<glyph unicode="&#x149;" horiz-adv-x="1239" d="M-49 1350q0 54 37.5 91.5t91.5 37.5q60 0 98.5 -41t38.5 -107q0 -100 -47 -185.5t-123 -144.5l-84 86q78 64 94 136q-49 9 -77.5 45.5t-28.5 81.5zM227 0v1069h219v-139q38 69 119.5 117.5t182.5 48.5q100 0 174 -37.5t116 -102.5t62 -143t20 -170v-643h-221v662 q0 108 -60 170.5t-155 62.5q-105 0 -169 -70t-64 -180v-645h-224z" />
<glyph unicode="&#x14a;" horiz-adv-x="1452" d="M147 0v1434h230l702 -1078v1078h224v-1473q0 -177 -97 -264.5t-264 -87.5q-106 0 -180 20l26 203q68 -16 127 -16q79 0 120.5 46.5t41.5 137.5l-704 1071v-1071h-226z" />
<glyph unicode="&#x14b;" horiz-adv-x="1134" d="M125 0v1069h219v-139q38 69 119 117.5t182 48.5q100 0 174 -37.5t116.5 -102.5t62.5 -143t20 -170v-668q0 -366 -371 -366l-61 4v188q29 -2 47 -2q164 0 164 185v678q0 108 -60 170.5t-155 62.5q-105 0 -169.5 -70t-64.5 -180v-645h-223z" />
<glyph unicode="&#x14c;" horiz-adv-x="1617" d="M70 717q0 155 55.5 292.5t153 236.5t235 156.5t295.5 57.5t295.5 -57.5t234 -157t152 -236.5t55.5 -292q0 -209 -94.5 -379t-264 -267.5t-380.5 -97.5q-158 0 -295.5 57t-234 155.5t-152 236.5t-55.5 295zM307 717q0 -230 142.5 -380.5t359.5 -150.5q216 0 359 150.5 t143 380.5q0 227 -143.5 378.5t-358.5 151.5q-216 0 -359 -151t-143 -379zM547 1552v168h522v-168h-522z" />
<glyph unicode="&#x14d;" horiz-adv-x="1251" d="M59 532q0 242 162 403t404 161q163 0 292.5 -72.5t202 -201t72.5 -287.5t-73.5 -287.5t-203 -201.5t-290.5 -73q-246 0 -406 158t-160 401zM285 532q0 -158 95.5 -259t244.5 -101t246.5 103t97.5 260t-97.5 259.5t-246.5 102.5q-150 0 -245 -103.5t-95 -261.5zM369 1262 v168h522v-168h-522z" />
<glyph unicode="&#x14e;" horiz-adv-x="1617" d="M70 717q0 155 55.5 292.5t153 236.5t235 156.5t295.5 57.5t295.5 -57.5t234 -157t152 -236.5t55.5 -292q0 -209 -94.5 -379t-264 -267.5t-380.5 -97.5q-158 0 -295.5 57t-234 155.5t-152 236.5t-55.5 295zM307 717q0 -230 142.5 -380.5t359.5 -150.5q216 0 359 150.5 t143 380.5q0 227 -143.5 378.5t-358.5 151.5q-216 0 -359 -151t-143 -379zM526 1800h166q0 -60 28 -98.5t91 -38.5t92 38.5t29 98.5h166q0 -122 -75.5 -199t-211.5 -77q-134 0 -209.5 77t-75.5 199z" />
<glyph unicode="&#x14f;" horiz-adv-x="1251" d="M59 532q0 242 162 403t404 161q163 0 292.5 -72.5t202 -201t72.5 -287.5t-73.5 -287.5t-203 -201.5t-290.5 -73q-246 0 -406 158t-160 401zM285 532q0 -158 95.5 -259t244.5 -101t246.5 103t97.5 260t-97.5 259.5t-246.5 102.5q-150 0 -245 -103.5t-95 -261.5zM332 1473 h166q0 -61 27.5 -99.5t90.5 -38.5t92 39t29 99h166q0 -122 -75.5 -199.5t-211.5 -77.5q-134 0 -209 77.5t-75 199.5z" />
<glyph unicode="&#x150;" horiz-adv-x="1617" d="M70 717q0 155 55.5 292.5t153 236.5t235 156.5t295.5 57.5t295.5 -57.5t234 -157t152 -236.5t55.5 -292q0 -209 -94.5 -379t-264 -267.5t-380.5 -97.5q-158 0 -295.5 57t-234 155.5t-152 236.5t-55.5 295zM307 717q0 -230 142.5 -380.5t359.5 -150.5q216 0 359 150.5 t143 380.5q0 227 -143.5 378.5t-358.5 151.5q-216 0 -359 -151t-143 -379zM569 1518l142 292h221l-191 -292h-172zM889 1518l143 292h219l-188 -292h-174z" />
<glyph unicode="&#x151;" horiz-adv-x="1251" d="M59 532q0 242 162 403t404 161q163 0 292.5 -72.5t202 -201t72.5 -287.5t-73.5 -287.5t-203 -201.5t-290.5 -73q-246 0 -406 158t-160 401zM285 532q0 -158 95.5 -259t244.5 -101t246.5 103t97.5 260t-97.5 259.5t-246.5 102.5q-150 0 -245 -103.5t-95 -261.5zM391 1192 l141 293h222l-191 -293h-172zM711 1192l143 293h219l-188 -293h-174z" />
<glyph unicode="&#x152;" horiz-adv-x="2142" d="M70 717q0 155 55.5 292.5t153 236.5t235 156.5t295.5 57.5q98 0 205 -26h1007v-205h-667q148 -160 184 -400h420v-202h-418q-24 -245 -186 -422h688v-205h-1028q-111 -27 -207 -27q-158 0 -295.5 57t-234 155.5t-152 236.5t-55.5 295zM307 717q0 -230 142.5 -380.5 t359.5 -150.5q216 0 359 150.5t143 380.5q0 227 -143.5 378.5t-358.5 151.5q-216 0 -359 -151t-143 -379z" />
<glyph unicode="&#x153;" horiz-adv-x="2052" d="M59 532q0 242 162 403t404 161q143 0 259.5 -60.5t188.5 -167.5q65 107 173 167.5t237 60.5q240 0 377 -152t137 -407q0 -38 -2 -56h-805q3 -143 95.5 -228t236.5 -85q108 0 181 45t114 104l147 -110q-22 -38 -57 -74.5t-88.5 -74.5t-132 -61.5t-168.5 -23.5 q-147 0 -262.5 60.5t-182.5 167.5q-72 -106 -189.5 -167t-258.5 -61q-246 0 -406 158t-160 401zM285 532q0 -158 95.5 -259t244.5 -101t246.5 103t97.5 260t-97.5 259.5t-246.5 102.5q-150 0 -245 -103.5t-95 -261.5zM1198 635h571q-6 128 -85.5 201t-198.5 73 q-117 0 -197 -74.5t-90 -199.5z" />
<glyph unicode="&#x154;" horiz-adv-x="1159" d="M150 0v1434h385q224 0 351.5 -118t127.5 -304q0 -125 -63 -225t-171 -144l348 -643h-251l-302 592h-198v-592h-227zM377 786h153q110 0 179 60t69 166q0 103 -63.5 163t-184.5 60h-153v-449zM422 1518l141 292h238l-191 -292h-188z" />
<glyph unicode="&#x155;" horiz-adv-x="690" d="M125 0v1069h219v-168q32 84 114 139.5t191 55.5v-226q-68 0 -120.5 -20.5t-86.5 -56.5t-55 -88.5t-30 -112t-9 -131.5v-461h-223zM264 1192l142 293h237l-190 -293h-189z" />
<glyph unicode="&#x156;" horiz-adv-x="1159" d="M150 0v1434h385q224 0 351.5 -118t127.5 -304q0 -125 -63 -225t-171 -144l348 -643h-251l-302 592h-198v-592h-227zM377 786h153q110 0 179 60t69 166q0 103 -63.5 163t-184.5 60h-153v-449zM453 -193q0 54 37.5 92t91.5 38q60 0 98.5 -41t38.5 -107q0 -100 -47 -185.5 t-123 -144.5l-84 86q78 64 94 136q-49 9 -77.5 45t-28.5 81z" />
<glyph unicode="&#x157;" horiz-adv-x="690" d="M125 0v1069h219v-168q32 84 114 139.5t191 55.5v-226q-68 0 -120.5 -20.5t-86.5 -56.5t-55 -88.5t-30 -112t-9 -131.5v-461h-223zM154 -193q0 54 37.5 92t91.5 38q60 0 98.5 -41t38.5 -107q0 -100 -47 -185.5t-123 -144.5l-84 86q78 64 94 136q-49 9 -77.5 45t-28.5 81z " />
<glyph unicode="&#x158;" horiz-adv-x="1159" d="M150 0v1434h385q224 0 351.5 -118t127.5 -304q0 -125 -63 -225t-171 -144l348 -643h-251l-302 592h-198v-592h-227zM227 1800h197l113 -155l112 155h195l-193 -276h-229zM377 786h153q110 0 179 60t69 166q0 103 -63.5 163t-184.5 60h-153v-449z" />
<glyph unicode="&#x159;" horiz-adv-x="690" d="M55 1483h197l113 -156l112 156h195l-193 -277h-229zM125 0v1069h219v-168q32 84 114 139.5t191 55.5v-226q-68 0 -120.5 -20.5t-86.5 -56.5t-55 -88.5t-30 -112t-9 -131.5v-461h-223z" />
<glyph unicode="&#x15a;" horiz-adv-x="1052" d="M57 297l193 90q34 -88 102.5 -145.5t177.5 -57.5q98 0 156.5 51.5t58.5 141.5q0 48 -22 88t-59.5 69t-86 55t-102 51t-106.5 52.5t-101.5 63t-86 78.5t-59.5 104t-22 135q0 170 117.5 278.5t312.5 108.5q78 0 145 -21.5t112 -52.5t81 -73t55 -77t31 -69l-188 -84 q-79 168 -240 168q-92 0 -145 -50t-53 -126q0 -57 36 -102.5t93 -78t126 -64t138.5 -69.5t126.5 -84.5t93 -119t36 -164.5q0 -184 -124.5 -302t-332.5 -118q-84 0 -156.5 22t-121 55t-88 78.5t-61.5 86t-36 82.5zM406 1518l141 292h237l-190 -292h-188z" />
<glyph unicode="&#x15b;" horiz-adv-x="872" d="M49 186l139 111q95 -139 256 -139q73 0 118.5 35t45.5 98q0 41 -28.5 72.5t-74.5 52.5t-101.5 41.5t-111 47.5t-101.5 62t-74.5 93t-28.5 133q0 138 104 220.5t263 82.5q71 0 132 -19t102.5 -50.5t69 -63.5t44.5 -66l-154 -102q-75 118 -207 118q-63 0 -103 -31t-40 -85 q0 -41 29 -71.5t75 -51t101.5 -39.5t111 -45.5t101.5 -61t75 -92.5t29 -135q0 -147 -110 -237.5t-277 -90.5q-77 0 -143 19t-112 52t-77 67.5t-53 74.5zM315 1192l142 293h237l-190 -293h-189z" />
<glyph unicode="&#x15c;" horiz-adv-x="1052" d="M57 297l193 90q34 -88 102.5 -145.5t177.5 -57.5q98 0 156.5 51.5t58.5 141.5q0 48 -22 88t-59.5 69t-86 55t-102 51t-106.5 52.5t-101.5 63t-86 78.5t-59.5 104t-22 135q0 170 117.5 278.5t312.5 108.5q78 0 145 -21.5t112 -52.5t81 -73t55 -77t31 -69l-188 -84 q-79 168 -240 168q-92 0 -145 -50t-53 -126q0 -57 36 -102.5t93 -78t126 -64t138.5 -69.5t126.5 -84.5t93 -119t36 -164.5q0 -184 -124.5 -302t-332.5 -118q-84 0 -156.5 22t-121 55t-88 78.5t-61.5 86t-36 82.5zM221 1524l195 276h229l193 -276h-195l-113 157l-112 -157 h-197z" />
<glyph unicode="&#x15d;" horiz-adv-x="872" d="M49 186l139 111q95 -139 256 -139q73 0 118.5 35t45.5 98q0 41 -28.5 72.5t-74.5 52.5t-101.5 41.5t-111 47.5t-101.5 62t-74.5 93t-28.5 133q0 138 104 220.5t263 82.5q71 0 132 -19t102.5 -50.5t69 -63.5t44.5 -66l-154 -102q-75 118 -207 118q-63 0 -103 -31t-40 -85 q0 -41 29 -71.5t75 -51t101.5 -39.5t111 -45.5t101.5 -61t75 -92.5t29 -135q0 -147 -110 -237.5t-277 -90.5q-77 0 -143 19t-112 52t-77 67.5t-53 74.5zM147 1206l195 277h229l193 -277h-195l-112 158l-113 -158h-197z" />
<glyph unicode="&#x15e;" horiz-adv-x="1052" d="M57 297l193 90q34 -88 102.5 -145.5t177.5 -57.5q98 0 156.5 51.5t58.5 141.5q0 48 -22 88t-59.5 69t-86 55t-102 51t-106.5 52.5t-101.5 63t-86 78.5t-59.5 104t-22 135q0 170 117.5 278.5t312.5 108.5q78 0 145 -21.5t112 -52.5t81 -73t55 -77t31 -69l-188 -84 q-79 168 -240 168q-92 0 -145 -50t-53 -126q0 -57 36 -102.5t93 -78t126 -64t138.5 -69.5t126.5 -84.5t93 -119t36 -164.5q0 -170 -107 -284.5t-290 -131.5l-9 -65q76 -13 118 -60.5t42 -121.5q0 -100 -68 -149.5t-174 -49.5q-53 0 -102 14l27 125q32 -8 63 -8q45 0 74 18 t29 58q0 36 -32 55t-81 19l-35 -2l25 167q-88 9 -160.5 43t-119 83t-75.5 96.5t-45 97.5z" />
<glyph unicode="&#x15f;" horiz-adv-x="872" d="M49 186l139 111q95 -139 256 -139q73 0 118.5 35t45.5 98q0 41 -28.5 72.5t-74.5 52.5t-101.5 41.5t-111 47.5t-101.5 62t-74.5 93t-28.5 133q0 138 104 220.5t263 82.5q71 0 132 -19t102.5 -50.5t69 -63.5t44.5 -66l-154 -102q-75 118 -207 118q-63 0 -103 -31t-40 -85 q0 -41 29 -71.5t75 -51t101.5 -39.5t111 -45.5t101.5 -61t75 -92.5t29 -135q0 -134 -93.5 -222t-240.5 -102l-8 -65q76 -13 118 -60.5t42 -121.5q0 -100 -68 -149.5t-174 -49.5q-53 0 -102 14l27 125q32 -8 63 -8q44 0 73 18t29 58q0 36 -31.5 55t-80.5 19l-35 -2l25 167 q-217 29 -316 209z" />
<glyph unicode="&#x160;" horiz-adv-x="1052" d="M57 297l193 90q34 -88 102.5 -145.5t177.5 -57.5q98 0 156.5 51.5t58.5 141.5q0 48 -22 88t-59.5 69t-86 55t-102 51t-106.5 52.5t-101.5 63t-86 78.5t-59.5 104t-22 135q0 170 117.5 278.5t312.5 108.5q78 0 145 -21.5t112 -52.5t81 -73t55 -77t31 -69l-188 -84 q-79 168 -240 168q-92 0 -145 -50t-53 -126q0 -57 36 -102.5t93 -78t126 -64t138.5 -69.5t126.5 -84.5t93 -119t36 -164.5q0 -184 -124.5 -302t-332.5 -118q-84 0 -156.5 22t-121 55t-88 78.5t-61.5 86t-36 82.5zM215 1800h197l112 -155l113 155h194l-192 -276h-229z" />
<glyph unicode="&#x161;" horiz-adv-x="872" d="M49 186l139 111q95 -139 256 -139q73 0 118.5 35t45.5 98q0 41 -28.5 72.5t-74.5 52.5t-101.5 41.5t-111 47.5t-101.5 62t-74.5 93t-28.5 133q0 138 104 220.5t263 82.5q71 0 132 -19t102.5 -50.5t69 -63.5t44.5 -66l-154 -102q-75 118 -207 118q-63 0 -103 -31t-40 -85 q0 -41 29 -71.5t75 -51t101.5 -39.5t111 -45.5t101.5 -61t75 -92.5t29 -135q0 -147 -110 -237.5t-277 -90.5q-77 0 -143 19t-112 52t-77 67.5t-53 74.5zM143 1483h197l113 -156l112 156h195l-193 -277h-229z" />
<glyph unicode="&#x162;" horiz-adv-x="1046" d="M41 1229v205h948v-205h-360v-1229h-228v1229h-360zM377 -193q0 54 37.5 92t91.5 38q60 0 98.5 -41t38.5 -107q0 -100 -47 -185.5t-123 -144.5l-84 86q78 64 94 136q-49 9 -77.5 45t-28.5 81z" />
<glyph unicode="&#x163;" horiz-adv-x="643" d="M25 885v184h118v223h222v-223h217v-184h-217v-498q0 -118 43 -160.5t139 -42.5l43 2v-192q-39 -8 -109 -8q-95 0 -162 30.5t-105 90t-54.5 136t-16.5 179.5v463h-118zM231 -193q0 54 37.5 92t91.5 38q60 0 99 -41t39 -107q0 -100 -47 -185.5t-123 -144.5l-84 86 q78 64 94 136q-49 9 -78 45t-29 81z" />
<glyph unicode="&#x164;" horiz-adv-x="1046" d="M41 1229v205h948v-205h-360v-1229h-228v1229h-360zM211 1800h197l112 -155l113 155h194l-192 -276h-229z" />
<glyph unicode="&#x165;" horiz-adv-x="643" d="M25 885v184h118v223h222v-223h217v-184h-217v-498q0 -118 43 -160.5t139 -42.5l43 2v-192q-39 -8 -109 -8q-95 0 -162 30.5t-105 90t-54.5 136t-16.5 179.5v463h-118zM434 1133l15 348h229l-90 -348h-154z" />
<glyph unicode="&#x166;" horiz-adv-x="1046" d="M41 1229v205h948v-205h-360v-389h268v-172h-268v-668h-228v668h-245v172h245v389h-360z" />
<glyph unicode="&#x167;" horiz-adv-x="643" d="M23 532v154h120v199h-118v184h118v223h222v-223h217v-184h-217v-199h206v-154h-206v-145q0 -118 43 -160.5t139 -42.5l43 2v-192q-48 -8 -109 -8q-286 0 -325 276q-13 93 -13 193v77h-120z" />
<glyph unicode="&#x168;" horiz-adv-x="1394" d="M143 526v908h228v-906q0 -161 84.5 -252.5t242.5 -91.5q156 0 242 93t86 253v904h225v-906q0 -249 -148 -402t-405 -153q-264 0 -409.5 149.5t-145.5 403.5zM379 1538q0 110 58 178t151 68q46 0 95 -21t90 -42t69 -21q32 0 51.5 23t19.5 61h148q0 -112 -56 -179t-149 -67 q-46 0 -94.5 21t-90.5 42t-73 21q-32 0 -51.5 -22t-20.5 -62h-147z" />
<glyph unicode="&#x169;" horiz-adv-x="1126" d="M117 426v643h221v-661q0 -108 60.5 -171t154.5 -63q105 0 169 69.5t64 180.5v645h224v-1069h-219v139q-38 -69 -119 -117.5t-183 -48.5q-100 0 -174 37.5t-116 102.5t-62 143t-20 170zM227 1217q0 110 58 177.5t151 67.5q46 0 95 -21t90 -42t69 -21q32 0 52 23t20 61h147 q0 -112 -55.5 -178.5t-148.5 -66.5q-46 0 -95 20.5t-91 41.5t-73 21q-32 0 -51 -21.5t-20 -61.5h-148z" />
<glyph unicode="&#x16a;" horiz-adv-x="1406" d="M143 526v908h228v-906q0 -161 84.5 -252.5t242.5 -91.5q156 0 242 93t86 253v904h225v-906q0 -249 -148 -402t-405 -153q-264 0 -409.5 149.5t-145.5 403.5zM453 1552v168h522v-168h-522z" />
<glyph unicode="&#x16b;" horiz-adv-x="1126" d="M117 426v643h221v-661q0 -108 60.5 -171t154.5 -63q105 0 169 69.5t64 180.5v645h224v-1069h-219v139q-38 -69 -119 -117.5t-183 -48.5q-100 0 -174 37.5t-116 102.5t-62 143t-20 170zM311 1262v168h523v-168h-523z" />
<glyph unicode="&#x16c;" horiz-adv-x="1394" d="M143 526v908h228v-906q0 -161 84.5 -252.5t242.5 -91.5q156 0 242 93t86 253v904h225v-906q0 -249 -148 -402t-405 -153q-264 0 -409.5 149.5t-145.5 403.5zM428 1800h166q0 -60 28 -98.5t91 -38.5t92 38.5t29 98.5h165q0 -122 -75 -199t-211 -77q-134 0 -209.5 77 t-75.5 199z" />
<glyph unicode="&#x16d;" horiz-adv-x="1126" d="M117 426v643h221v-661q0 -108 60.5 -171t154.5 -63q105 0 169 69.5t64 180.5v645h224v-1069h-219v139q-38 -69 -119 -117.5t-183 -48.5q-100 0 -174 37.5t-116 102.5t-62 143t-20 170zM283 1473h166q0 -61 27.5 -99.5t90.5 -38.5t92 39t29 99h166q0 -122 -75.5 -199.5 t-211.5 -77.5q-134 0 -209 77.5t-75 199.5z" />
<glyph unicode="&#x16e;" horiz-adv-x="1394" d="M143 526v908h228v-906q0 -161 84.5 -252.5t242.5 -91.5q156 0 242 93t86 253v904h225v-906q0 -249 -148 -402t-405 -153q-264 0 -409.5 149.5t-145.5 403.5zM506 1698q0 84 57 137t144 53q89 0 145.5 -52.5t56.5 -135.5q0 -85 -57 -139t-145 -54q-87 0 -144 54t-57 137z M627 1698q0 -37 22.5 -59.5t59.5 -22.5t58 23t21 61q0 36 -22 59t-59 23q-35 0 -57.5 -23.5t-22.5 -60.5z" />
<glyph unicode="&#x16f;" horiz-adv-x="1126" d="M117 426v643h221v-661q0 -108 60.5 -171t154.5 -63q105 0 169 69.5t64 180.5v645h224v-1069h-219v139q-38 -69 -119 -117.5t-183 -48.5q-100 0 -174 37.5t-116 102.5t-62 143t-20 170zM369 1360q0 84 56.5 137t143.5 53q89 0 146 -52.5t57 -135.5q0 -84 -57.5 -138.5 t-145.5 -54.5q-86 0 -143 54t-57 137zM489 1360q0 -37 22.5 -59.5t59.5 -22.5t58.5 23t21.5 61q0 36 -22 59t-60 23q-35 0 -57.5 -23.5t-22.5 -60.5z" />
<glyph unicode="&#x170;" horiz-adv-x="1406" d="M143 526v908h228v-906q0 -161 84.5 -252.5t242.5 -91.5q156 0 242 93t86 253v904h225v-906q0 -249 -148 -402t-405 -153q-264 0 -409.5 149.5t-145.5 403.5zM459 1518l141 292h221l-190 -292h-172zM778 1518l144 292h219l-189 -292h-174z" />
<glyph unicode="&#x171;" horiz-adv-x="1126" d="M117 426v643h221v-661q0 -108 60.5 -171t154.5 -63q105 0 169 69.5t64 180.5v645h224v-1069h-219v139q-38 -69 -119 -117.5t-183 -48.5q-100 0 -174 37.5t-116 102.5t-62 143t-20 170zM301 1192l141 293h222l-191 -293h-172zM621 1192l143 293h219l-188 -293h-174z" />
<glyph unicode="&#x172;" horiz-adv-x="1394" d="M143 526v908h228v-906q0 -161 84.5 -252.5t242.5 -91.5q156 0 242 93t86 253v904h225v-906q0 -198 -96.5 -339.5t-269.5 -190.5q-16 -7 -34 -18.5t-40 -30t-36.5 -45.5t-14.5 -56q0 -38 28.5 -61t73.5 -23v-174q-24 -4 -51 -4q-99 0 -170.5 51t-71.5 148q0 109 111 188 q-257 6 -397 155t-140 398z" />
<glyph unicode="&#x173;" horiz-adv-x="1126" d="M117 426v643h221v-661q0 -108 60.5 -171t154.5 -63q105 0 169 69.5t64 180.5v645h224v-1069q-15 -6 -34 -17.5t-42 -30t-38 -46.5t-15 -58q0 -38 28.5 -61t73.5 -23v-174q-24 -4 -51 -4q-99 0 -170.5 51t-71.5 148q0 73 49 130t107 85h-55v139q-38 -69 -119 -117.5 t-183 -48.5q-100 0 -174 37.5t-116 102.5t-62 143t-20 170z" />
<glyph unicode="&#x174;" horiz-adv-x="1966" d="M20 1434h244l293 -1151l317 1151h216l319 -1151l293 1151h242l-396 -1434h-256l-309 1094l-309 -1094h-256zM676 1524l194 276h230l192 -276h-194l-113 157l-113 -157h-196z" />
<glyph unicode="&#x175;" horiz-adv-x="1683" d="M14 1069h242l233 -819q2 6 246 819h213l244 -819l235 819h242l-340 -1069h-248l-239 766l-242 -766h-246zM532 1206l195 277h229l193 -277h-195l-112 158l-113 -158h-197z" />
<glyph unicode="&#x176;" horiz-adv-x="1142" d="M16 1434h258l297 -560l303 560h252l-442 -770v-664h-225v664zM264 1524l195 276h229l193 -276h-195l-113 157l-112 -157h-197z" />
<glyph unicode="&#x177;" horiz-adv-x="1073" d="M12 1069h240l289 -778l284 778h234l-559 -1436h-215l151 385zM236 1206l194 277h229l193 -277h-195l-112 158l-113 -158h-196z" />
<glyph unicode="&#x178;" horiz-adv-x="1142" d="M16 1434h258l297 -560l303 560h252l-442 -770v-664h-225v664zM281 1686q0 50 34 85t86 35t86.5 -35t34.5 -85q0 -51 -34.5 -86t-86.5 -35t-86 35t-34 86zM639 1686q0 50 34 85t87 35q52 0 86.5 -35t34.5 -85q0 -51 -34.5 -86t-86.5 -35q-53 0 -87 34.5t-34 86.5z" />
<glyph unicode="&#x179;" horiz-adv-x="1226" d="M70 0v156l774 1075h-752v203h1051v-156l-776 -1075h782v-203h-1079zM487 1518l142 292h237l-190 -292h-189z" />
<glyph unicode="&#x17a;" horiz-adv-x="952" d="M61 0v145l547 736h-530v188h801v-147l-545 -736h553v-186h-826zM342 1192l141 293h238l-191 -293h-188z" />
<glyph unicode="&#x17b;" horiz-adv-x="1226" d="M70 0v156l774 1075h-752v203h1051v-156l-776 -1075h782v-203h-1079zM475 1657q0 59 40.5 99t98.5 40q59 0 99.5 -40.5t40.5 -98.5t-40.5 -98.5t-99.5 -40.5q-58 0 -98.5 40t-40.5 99z" />
<glyph unicode="&#x17c;" horiz-adv-x="952" d="M61 0v145l547 736h-530v188h801v-147l-545 -736h553v-186h-826zM344 1333q0 59 40.5 99.5t98.5 40.5q59 0 99.5 -40.5t40.5 -99.5q0 -58 -40.5 -98.5t-99.5 -40.5t-99 40t-40 99z" />
<glyph unicode="&#x17d;" horiz-adv-x="1226" d="M70 0v156l774 1075h-752v203h1051v-156l-776 -1075h782v-203h-1079zM303 1800h197l112 -155l113 155h195l-193 -276h-229z" />
<glyph unicode="&#x17e;" horiz-adv-x="952" d="M61 0v145l547 736h-530v188h801v-147l-545 -736h553v-186h-826zM172 1483h197l112 -156l113 156h194l-192 -277h-229z" />
<glyph unicode="&#x192;" horiz-adv-x="954" d="M-68 -381l27 186q43 -8 84 -8q90 0 133 54.5t62 191.5l88 647h-136v184h160l31 228q13 96 51.5 166.5t93.5 109.5t116 57.5t128 18.5q27 0 58.5 -3t49.5 -6l17 -3l-25 -189q-33 11 -84 11q-80 0 -127 -44t-61 -149l-29 -197h197v-184h-221l-92 -686q-2 -20 -17 -96 q-18 -84 -57.5 -145t-92 -93.5t-109 -47.5t-120.5 -15q-77 0 -125 12z" />
<glyph unicode="&#x1fa;" horiz-adv-x="1320" d="M20 0l500 1374q-63 53 -63 144q0 84 56.5 137t143.5 53q89 0 146 -52.5t57 -135.5q0 -89 -61 -144l501 -1376h-229l-147 418h-525l-149 -418h-230zM463 608h397l-198 580zM551 1751l141 293h238l-191 -293h-188zM578 1518q0 -37 22 -59.5t59 -22.5t58.5 23t21.5 61 q0 36 -22 59t-60 23q-35 0 -57 -23.5t-22 -60.5z" />
<glyph unicode="&#x1fb;" horiz-adv-x="1060" d="M59 330q0 156 115 254t299 98q85 0 153 -23t103 -55v101q0 92 -60.5 144t-166.5 52q-147 0 -299 -84l-86 156q192 123 407 123q116 0 200 -30t132.5 -86t71 -127.5t22.5 -162.5v-690h-194l-19 80q-96 -107 -274 -107q-172 0 -288 99.5t-116 257.5zM283 336q0 -80 63 -132 t164 -52q99 0 162 50.5t63 133.5q0 84 -62.5 134t-164.5 50q-100 0 -162.5 -52t-62.5 -132zM336 1341q0 84 57 137.5t144 53.5q89 0 145.5 -53t56.5 -136q0 -84 -57 -138t-145 -54q-87 0 -144 53.5t-57 136.5zM428 1583l141 293h238l-191 -293h-188zM457 1341 q0 -37 22.5 -59t59.5 -22t58 22.5t21 60.5q0 36 -22 59t-59 23q-35 0 -57.5 -23.5t-22.5 -60.5z" />
<glyph unicode="&#x1fc;" horiz-adv-x="1710" d="M16 0l740 1434h833v-205h-481v-400h416v-202h-416v-422h500v-205h-727v418h-412l-205 -418h-248zM557 608h324v621h-21zM932 1518l141 292h238l-191 -292h-188z" />
<glyph unicode="&#x1fd;" horiz-adv-x="1810" d="M59 330q0 156 115 254t299 98q85 0 153 -23t103 -55v101q0 92 -60.5 144t-166.5 52q-147 0 -299 -84l-86 156q192 123 407 123q259 0 350 -172q66 82 161.5 127t205.5 45q240 0 377 -152t137 -407q0 -38 -2 -56h-803q3 -141 94.5 -227t235.5 -86q109 0 182.5 45 t114.5 104l145 -110q-21 -37 -55.5 -74t-88 -75t-132 -61.5t-168.5 -23.5q-143 0 -256 52.5t-180 150.5q-47 -89 -140.5 -146t-238.5 -57q-172 0 -288 99.5t-116 257.5zM283 336q0 -80 63 -132t164 -52q99 0 160 50.5t61 133.5q0 84 -60.5 134t-162.5 50q-100 0 -162.5 -52 t-62.5 -132zM758 1192l141 293h238l-191 -293h-188zM958 635h570q-6 128 -86 201t-199 73q-116 0 -195.5 -75t-89.5 -199z" />
<glyph unicode="&#x1fe;" horiz-adv-x="1619" d="M72 717q0 156 55.5 293t152 236t234 156.5t295.5 57.5q217 0 393 -108l101 127l129 -103l-99 -127q103 -101 159 -237.5t56 -294.5q0 -156 -55.5 -294t-153 -237t-235 -156t-295.5 -57q-223 0 -399 109l-101 -127l-129 102l101 127q-100 101 -154.5 238t-54.5 295z M307 717q0 -205 121 -348l635 807q-114 71 -254 71q-216 0 -359 -151t-143 -379zM549 258q116 -72 260 -72q216 0 359 150.5t143 380.5q0 204 -123 350zM684 1518l141 292h238l-191 -292h-188z" />
<glyph unicode="&#x1ff;" horiz-adv-x="1234" d="M59 532q0 242 162 403t404 161q161 0 295 -78l77 98l115 -90l-76 -96q156 -159 156 -395q0 -159 -73.5 -287.5t-203 -201.5t-290.5 -73q-157 0 -285 70l-80 -100l-113 90l76 94q-164 161 -164 405zM285 532q0 -139 75 -229l428 549q-73 45 -163 45q-150 0 -245 -103.5 t-95 -261.5zM471 209q64 -37 154 -37q149 0 246.5 103t97.5 260q0 125 -72 219zM500 1192l141 293h238l-191 -293h-188z" />
<glyph unicode="&#x218;" horiz-adv-x="1052" d="M57 297l193 90q34 -88 102.5 -145.5t177.5 -57.5q98 0 156.5 51.5t58.5 141.5q0 48 -22 88t-59.5 69t-86 55t-102 51t-106.5 52.5t-101.5 63t-86 78.5t-59.5 104t-22 135q0 170 117.5 278.5t312.5 108.5q78 0 145 -21.5t112 -52.5t81 -73t55 -77t31 -69l-188 -84 q-79 168 -240 168q-92 0 -145 -50t-53 -126q0 -57 36 -102.5t93 -78t126 -64t138.5 -69.5t126.5 -84.5t93 -119t36 -164.5q0 -184 -124.5 -302t-332.5 -118q-84 0 -156.5 22t-121 55t-88 78.5t-61.5 86t-36 82.5zM389 -193q0 54 37.5 92t91.5 38q60 0 98.5 -41t38.5 -107 q0 -100 -47 -185.5t-123 -144.5l-84 86q31 25 59 62t36 74q-49 9 -78 45t-29 81z" />
<glyph unicode="&#x219;" horiz-adv-x="872" d="M49 186l139 111q95 -139 256 -139q73 0 118.5 35t45.5 98q0 41 -28.5 72.5t-74.5 52.5t-101.5 41.5t-111 47.5t-101.5 62t-74.5 93t-28.5 133q0 138 104 220.5t263 82.5q71 0 132 -19t102.5 -50.5t69 -63.5t44.5 -66l-154 -102q-75 118 -207 118q-63 0 -103 -31t-40 -85 q0 -41 29 -71.5t75 -51t101.5 -39.5t111 -45.5t101.5 -61t75 -92.5t29 -135q0 -147 -110 -237.5t-277 -90.5q-77 0 -143 19t-112 52t-77 67.5t-53 74.5zM313 -193q0 54 37.5 92t91.5 38q60 0 99 -41t39 -107q0 -100 -47 -185.5t-123 -144.5l-84 86q78 64 94 136 q-49 9 -78 45t-29 81z" />
<glyph unicode="&#x237;" d="M-86 -199q29 -2 47 -2q164 0 164 185v1085h223v-1094q0 -100 -28.5 -173t-80.5 -114t-117 -60t-147 -19l-61 4v188z" />
<glyph unicode="&#x2c6;" horiz-adv-x="917" d="M150 1206l194 277h229l193 -277h-195l-112 158l-113 -158h-196z" />
<glyph unicode="&#x2c7;" horiz-adv-x="917" d="M150 1483h196l113 -156l112 156h195l-193 -277h-229z" />
<glyph unicode="&#x2d8;" horiz-adv-x="917" d="M172 1473h166q0 -61 28 -99.5t91 -38.5t92 39t29 99h165q0 -123 -75 -200t-211 -77q-134 0 -209.5 77.5t-75.5 199.5z" />
<glyph unicode="&#x2d9;" horiz-adv-x="917" d="M319 1333q0 59 40.5 99.5t99.5 40.5q58 0 98.5 -40.5t40.5 -99.5t-40 -99t-99 -40t-99.5 40.5t-40.5 98.5z" />
<glyph unicode="&#x2da;" horiz-adv-x="917" d="M256 1360q0 84 57 137t144 53q89 0 145.5 -52.5t56.5 -135.5q0 -85 -57 -139t-145 -54q-87 0 -144 54t-57 137zM377 1360q0 -37 22.5 -59.5t59.5 -22.5t58.5 23t21.5 61q0 36 -22 59t-60 23q-35 0 -57.5 -23.5t-22.5 -60.5z" />
<glyph unicode="&#x2db;" horiz-adv-x="917" d="M299 -215q0 73 49 130t107 85h163q-15 -6 -34 -17.5t-42 -30t-38 -46.5t-15 -58q0 -38 29 -61t74 -23v-174q-24 -4 -51 -4q-99 0 -170.5 51t-71.5 148z" />
<glyph unicode="&#x2dc;" horiz-adv-x="917" d="M117 1217q0 110 58 177.5t151 67.5q46 0 95 -21t90 -42t69 -21q32 0 51.5 23t19.5 61h148q0 -112 -56 -178.5t-149 -66.5q-46 0 -94.5 20.5t-90.5 41.5t-73 21q-32 0 -51.5 -21.5t-20.5 -61.5h-147z" />
<glyph unicode="&#x2dd;" horiz-adv-x="944" d="M131 1192l141 293h222l-191 -293h-172zM451 1192l143 293h219l-188 -293h-174z" />
<glyph unicode="&#x1e80;" horiz-adv-x="1966" d="M20 1434h244l293 -1151l317 1151h216l319 -1151l293 1151h242l-396 -1434h-256l-309 1094l-309 -1094h-256zM688 1810h236l143 -292h-190z" />
<glyph unicode="&#x1e81;" horiz-adv-x="1683" d="M14 1069h242l233 -819q2 6 246 819h213l244 -819l235 819h242l-340 -1069h-248l-239 766l-242 -766h-246zM561 1485h236l143 -293h-190z" />
<glyph unicode="&#x1e82;" horiz-adv-x="1966" d="M20 1434h244l293 -1151l317 1151h216l319 -1151l293 1151h242l-396 -1434h-256l-309 1094l-309 -1094h-256zM854 1518l141 292h238l-191 -292h-188z" />
<glyph unicode="&#x1e83;" horiz-adv-x="1683" d="M14 1069h242l233 -819q2 6 246 819h213l244 -819l235 819h242l-340 -1069h-248l-239 766l-242 -766h-246zM735 1192l142 293h237l-190 -293h-189z" />
<glyph unicode="&#x1e84;" horiz-adv-x="1966" d="M20 1434h244l293 -1151l317 1151h216l319 -1151l293 1151h242l-396 -1434h-256l-309 1094l-309 -1094h-256zM686 1663q0 50 34.5 85.5t86.5 35.5t86.5 -35.5t34.5 -85.5q0 -51 -34.5 -86t-86.5 -35t-86.5 35t-34.5 86zM1044 1663q0 51 34 86t87 35q52 0 86.5 -35.5 t34.5 -85.5q0 -51 -34.5 -86t-86.5 -35q-53 0 -87 34.5t-34 86.5z" />
<glyph unicode="&#x1e85;" horiz-adv-x="1683" d="M14 1069h242l233 -819q2 6 246 819h213l244 -819l235 819h242l-340 -1069h-248l-239 766l-242 -766h-246zM541 1337q0 50 34.5 85.5t86.5 35.5t86 -35.5t34 -85.5q0 -51 -34 -85.5t-86 -34.5t-86.5 34.5t-34.5 85.5zM899 1337q0 51 34 86t87 35q52 0 86.5 -35.5 t34.5 -85.5q0 -51 -34.5 -85.5t-86.5 -34.5q-53 0 -87 34t-34 86z" />
<glyph unicode="&#x1ef2;" horiz-adv-x="1142" d="M16 1434h258l297 -560l303 560h252l-442 -770v-664h-225v664zM311 1810h236l143 -292h-190z" />
<glyph unicode="&#x1ef3;" horiz-adv-x="1079" d="M12 1069h240l289 -778l284 778h234l-559 -1436h-215l151 385zM301 1485h236l143 -293h-191z" />
<glyph unicode="&#x2000;" horiz-adv-x="1022" />
<glyph unicode="&#x2001;" horiz-adv-x="2044" />
<glyph unicode="&#x2002;" horiz-adv-x="1022" />
<glyph unicode="&#x2003;" horiz-adv-x="2044" />
<glyph unicode="&#x2004;" horiz-adv-x="681" />
<glyph unicode="&#x2005;" horiz-adv-x="511" />
<glyph unicode="&#x2006;" horiz-adv-x="340" />
<glyph unicode="&#x2007;" horiz-adv-x="340" />
<glyph unicode="&#x2008;" horiz-adv-x="255" />
<glyph unicode="&#x2009;" horiz-adv-x="408" />
<glyph unicode="&#x200a;" horiz-adv-x="113" />
<glyph unicode="&#x2010;" horiz-adv-x="724" d="M88 518v203h547v-203h-547z" />
<glyph unicode="&#x2011;" horiz-adv-x="724" d="M88 518v203h547v-203h-547z" />
<glyph unicode="&#x2012;" horiz-adv-x="724" d="M88 518v203h547v-203h-547z" />
<glyph unicode="&#x2013;" horiz-adv-x="1277" d="M88 530v187h1102v-187h-1102z" />
<glyph unicode="&#x2014;" horiz-adv-x="1826" d="M88 530v187h1649v-187h-1649z" />
<glyph unicode="&#x2018;" horiz-adv-x="419" d="M61 1098q0 118 52.5 217.5t140.5 167.5l94 -99q-37 -25 -72.5 -68.5t-42.5 -88.5q55 -10 88 -50.5t33 -91.5q0 -60 -41.5 -102.5t-101.5 -42.5q-64 0 -107 42.5t-43 115.5z" />
<glyph unicode="&#x2019;" horiz-adv-x="419" d="M66 1337q0 60 40.5 103t100.5 43q65 0 107 -42t42 -114q0 -120 -51.5 -219t-140.5 -168l-94 98q38 27 72.5 70t41.5 88q-55 10 -86.5 50.5t-31.5 90.5z" />
<glyph unicode="&#x201a;" horiz-adv-x="466" d="M88 117q0 60 41.5 102.5t101.5 42.5q64 0 107 -42.5t43 -113.5q0 -119 -52.5 -218t-140.5 -169l-94 99q39 27 73.5 70t41.5 87q-55 10 -88 51.5t-33 90.5z" />
<glyph unicode="&#x201c;" horiz-adv-x="776" d="M61 1098q0 118 52.5 217.5t140.5 167.5l94 -99q-37 -25 -72.5 -68.5t-42.5 -88.5q55 -10 88 -50.5t33 -91.5q0 -60 -41.5 -102.5t-101.5 -42.5q-64 0 -107 42.5t-43 115.5zM418 1098q0 118 52 217.5t140 167.5l95 -99q-37 -25 -72.5 -68.5t-42.5 -88.5q55 -10 88 -50.5 t33 -91.5q0 -60 -42 -102.5t-102 -42.5q-64 0 -106.5 42.5t-42.5 115.5z" />
<glyph unicode="&#x201d;" horiz-adv-x="776" d="M66 1337q0 60 40.5 103t100.5 43q65 0 107 -42t42 -114q0 -120 -51.5 -219t-140.5 -168l-94 98q38 27 72.5 70t41.5 88q-55 10 -86.5 50.5t-31.5 90.5zM422 1337q0 60 40.5 103t100.5 43q65 0 107.5 -42t42.5 -114q0 -120 -52 -219t-141 -168l-94 98q38 27 73 70t42 88 q-55 10 -87 50.5t-32 90.5z" />
<glyph unicode="&#x201e;" horiz-adv-x="776" d="M66 117q0 60 40.5 102.5t100.5 42.5q65 0 107 -42t42 -114q0 -120 -51.5 -219t-140.5 -168l-94 99q38 27 72.5 69.5t41.5 87.5q-55 10 -86.5 51t-31.5 91zM422 117q0 60 40.5 102.5t100.5 42.5q65 0 107.5 -42t42.5 -114q0 -120 -52 -219t-141 -168l-94 99q39 27 73.5 70 t41.5 87q-55 10 -87 51t-32 91z" />
<glyph unicode="&#x2020;" horiz-adv-x="823" d="M61 893v194h238v347h219v-347h242v-194h-242v-893h-219v893h-238z" />
<glyph unicode="&#x2021;" horiz-adv-x="817" d="M61 367v194h238v309h-238v195h238v369h219v-369h242v-195h-242v-309h242v-194h-242v-367h-219v367h-238z" />
<glyph unicode="&#x2022;" horiz-adv-x="831" d="M63 635q0 148 101 250t252 102t251.5 -102t100.5 -250t-100.5 -250t-251.5 -102t-252 102t-101 250z" />
<glyph unicode="&#x202f;" horiz-adv-x="408" />
<glyph unicode="&#x2030;" horiz-adv-x="2365" d="M70 1133q0 137 94 232t235 95q146 0 242 -94.5t96 -232.5t-95.5 -232t-240.5 -94q-144 0 -237.5 93.5t-93.5 232.5zM145 0l1088 1434h221l-1089 -1434h-220zM246 1133q0 -68 44.5 -115t112.5 -47q71 0 114.5 46.5t43.5 115.5q0 68 -45 114.5t-115 46.5q-69 0 -112 -46 t-43 -115zM858 299q0 136 95.5 232t236.5 96q146 0 242 -95.5t96 -232.5t-96 -231.5t-240 -94.5t-239 93.5t-95 232.5zM1034 299q0 -69 44.5 -115.5t113.5 -46.5q71 0 114.5 46.5t43.5 115.5t-44.5 115.5t-115.5 46.5q-68 0 -112 -47t-44 -115zM1626 299q0 136 95.5 232 t236.5 96q146 0 242 -95.5t96 -232.5t-96 -231.5t-240 -94.5t-239 93.5t-95 232.5zM1802 299q0 -69 44.5 -115.5t113.5 -46.5q71 0 114.5 46.5t43.5 115.5t-44.5 115.5t-115.5 46.5q-68 0 -112 -47t-44 -115z" />
<glyph unicode="&#x2039;" horiz-adv-x="585" d="M63 600l252 381h205l-252 -381l252 -379h-205z" />
<glyph unicode="&#x203a;" horiz-adv-x="585" d="M63 221l252 379l-252 381h205l252 -381l-252 -379h-205z" />
<glyph unicode="&#x2044;" horiz-adv-x="901" d="M-39 -84l782 1602h197l-782 -1602h-197z" />
<glyph unicode="&#x205f;" horiz-adv-x="511" />
<glyph unicode="&#x20ac;" horiz-adv-x="1302" d="M53 492v155h105q-4 32 -4 70q0 44 4 84h-105v155h135q66 222 245 363t417 141q218 0 358 -90l-94 -184q-115 65 -254 65q-149 0 -262.5 -80.5t-161.5 -214.5h510l-14 -155h-535q-6 -41 -6 -82q0 -37 6 -72h523l-15 -155h-463q47 -135 159.5 -219.5t264.5 -84.5 q85 0 157.5 23t113.5 51l90 -182q-45 -40 -144 -73.5t-215 -33.5q-257 0 -438.5 145.5t-243.5 373.5h-133z" />
<glyph unicode="&#x2116;" horiz-adv-x="2318" d="M147 0v1434h230l702 -1078v1078h224v-1434h-226l-704 1071v-1071h-226zM1468 1090q0 153 105 261.5t268 108.5t268 -108.5t105 -261.5t-104.5 -260t-268.5 -107t-268.5 107t-104.5 260zM1497 414v188h686v-188h-686zM1645 1090q0 -83 53.5 -141t142.5 -58q87 0 142 58.5 t55 140.5q0 83 -54 142.5t-143 59.5t-142.5 -59.5t-53.5 -142.5z" />
<glyph unicode="&#x2122;" horiz-adv-x="1542" d="M63 1290v144h527v-144h-184v-594h-158v594h-185zM664 696v738h196l211 -473l211 473h197v-738h-152v480l-182 -398h-148l-180 398v-480h-153z" />
<glyph unicode="&#x2212;" horiz-adv-x="1126" d="M78 547v182h971v-182h-971z" />
<glyph unicode="&#x25fc;" horiz-adv-x="1064" d="M0 0v1065h1065v-1065h-1065z" />
<glyph unicode="&#xf6c3;" horiz-adv-x="534" d="M135 -193q0 54 37.5 92t91.5 38q60 0 98.5 -41t38.5 -107q0 -100 -47 -185.5t-123 -144.5l-84 86q31 25 59 62t36 74q-49 9 -78 45t-29 81z" />
<glyph horiz-adv-x="724" d="M88 614v203h547v-203h-547z" />
<glyph horiz-adv-x="1277" d="M88 629v186h1102v-186h-1102z" />
<glyph horiz-adv-x="1826" d="M88 629v186h1649v-186h-1649z" />
<glyph horiz-adv-x="940" d="M63 731l252 381h205l-252 -381l252 -379h-205zM418 731l254 381h205l-254 -381l254 -379h-205z" />
<glyph horiz-adv-x="940" d="M63 352l254 379l-254 381h205l254 -381l-254 -379h-205zM420 352l252 379l-252 381h205l252 -381l-252 -379h-205z" />
<glyph horiz-adv-x="585" d="M63 731l252 381h205l-252 -381l252 -379h-205z" />
<glyph horiz-adv-x="585" d="M63 352l254 379l-254 381h205l254 -381l-254 -379h-205z" />
<glyph horiz-adv-x="653" d="M115 156v1112q0 199 97.5 297t297.5 98v-193q-174 0 -174 -178v-1161q0 -178 174 -178v-193q-200 0 -297.5 98.5t-97.5 297.5z" />
<glyph horiz-adv-x="653" d="M143 -47q174 0 174 178v1161q0 178 -174 178v193q200 0 298 -98t98 -297v-1112q0 -199 -98 -297.5t-298 -98.5v193z" />
<glyph horiz-adv-x="653" d="M115 -240v1903h395v-193h-174v-1517h174v-193h-395z" />
<glyph horiz-adv-x="647" d="M143 -47h174v1517h-174v193h396v-1903h-396v193z" />
<glyph horiz-adv-x="753" d="M66 608v207q77 0 113 51.5t36 182.5v219q0 199 97.5 297t297.5 98v-193q-174 0 -174 -178v-313q0 -67 -17.5 -120.5t-44 -82.5t-48 -44t-39.5 -21q13 -4 29.5 -13.5t38.5 -30.5t39.5 -49.5t29.5 -74t12 -99.5v-313q0 -178 174 -178v-193q-200 0 -297.5 98.5t-97.5 297.5 v219q0 130 -37.5 181.5t-111.5 51.5z" />
<glyph horiz-adv-x="546" d="M168 -383v2099h211v-2099h-211z" />
<glyph horiz-adv-x="751" d="M143 -47q174 0 174 178v313q0 66 17.5 119.5t44 82.5t48.5 44.5t40 20.5q-19 6 -40 21t-48 44t-44.5 82.5t-17.5 120.5v313q0 178 -174 178v193q200 0 298 -98t98 -297v-219q0 -131 36 -182.5t113 -51.5v-207q-74 0 -111.5 -51.5t-37.5 -181.5v-219q0 -199 -98 -297.5 t-298 -98.5v193z" />
<glyph horiz-adv-x="899" d="M41 -166l618 1757h199l-618 -1757h-199z" />
<glyph horiz-adv-x="899" d="M41 1591h199l618 -1757h-199z" />
<glyph horiz-adv-x="563" d="M137 1315q0 60 43 102.5t103 42.5t102.5 -42.5t42.5 -102.5t-42.5 -103t-102.5 -43t-103 43t-43 103zM166 0l16 1049h199l18 -1049h-233z" />
<glyph horiz-adv-x="972" d="M70 362q0 65 19.5 122t50.5 99.5t69 81t76 72.5t69 67.5t50.5 73.5t19.5 83v88h217v-99q0 -57 -19 -107.5t-49 -89t-66.5 -74t-73 -69.5t-66.5 -69t-49 -78t-19 -90q0 -88 55.5 -144.5t153.5 -56.5q48 0 86.5 14.5t64 40.5t40 48t28.5 51l174 -80q-13 -37 -32.5 -71.5 t-54 -72t-77 -65.5t-105 -46t-134.5 -18q-193 0 -310.5 108.5t-117.5 280.5zM387 1315q0 60 42.5 102.5t102.5 42.5t102 -42.5t42 -102.5t-42 -103t-102 -43t-102.5 43t-42.5 103z" />
<glyph horiz-adv-x="487" d="M98 729q0 60 42 102.5t102 42.5t102.5 -42.5t42.5 -102.5t-42.5 -102.5t-102.5 -42.5t-102 42.5t-42 102.5z" />
<glyph horiz-adv-x="831" d="M63 725q0 148 101 250t252 102t251.5 -102t100.5 -250t-100.5 -250t-251.5 -102t-252 102t-101 250z" />
<glyph horiz-adv-x="1175" d="M109 717q0 185 24.5 319t79.5 231t147.5 145t225.5 48t226.5 -48t148.5 -145t79.5 -231t24.5 -319t-24.5 -319t-79.5 -231.5t-148.5 -145.5t-226.5 -48t-225.5 48t-147.5 145.5t-79.5 231.5t-24.5 319zM338 717q0 -89 3 -152t12 -128t26 -107t44 -77t68 -51t95 -16 q41 0 74.5 9.5t58.5 29t43.5 45t31 63t20.5 76t12.5 91.5t6 102.5t1.5 114.5q0 75 -2 130t-8 114t-17 99.5t-29.5 78t-44.5 60t-63 35.5t-84 13q-54 0 -95 -16.5t-68 -51t-44 -77t-26 -107t-12 -127.5t-3 -151z" />
<glyph horiz-adv-x="1175" d="M143 1251l414 183h184v-1229h291v-205h-850v205h334v1003l-291 -131z" />
<glyph horiz-adv-x="1175" d="M129 0v82q0 82 36.5 163t95.5 148.5t130 133.5t142 128.5t130 122.5t95.5 126t36.5 130q0 96 -61.5 155.5t-166.5 59.5q-97 0 -156 -54t-83 -140l-199 57q10 43 29 86.5t55.5 92t84 85t120 60.5t157.5 24q204 0 327.5 -116t123.5 -302q0 -83 -33 -162t-86 -143 t-118 -124.5t-131 -114t-122 -102t-95 -99.5t-46 -96h649v-201h-915z" />
<glyph horiz-adv-x="1175" d="M121 307l194 64q27 -84 92.5 -136.5t170.5 -52.5q106 0 174.5 68.5t68.5 175.5q0 110 -66.5 173t-191.5 63h-162v178l340 393h-569v201h825v-205l-335 -375q74 0 141.5 -25t124.5 -74t91 -132.5t34 -190.5q0 -199 -134 -329t-337 -130q-106 0 -190.5 30.5t-137.5 82 t-85 106t-48 115.5z" />
<glyph horiz-adv-x="1175" d="M59 348v166l621 920h256v-889h178v-197h-178v-348h-223v348h-654zM299 545h414v620z" />
<glyph horiz-adv-x="1175" d="M119 307l196 64q25 -85 91.5 -137t173.5 -52q112 0 179.5 78t67.5 197q0 114 -69.5 193t-194.5 79q-112 0 -205 -84l-188 31l31 758h770v-203h-568l-16 -367q97 60 221 60q193 0 321 -126.5t128 -326.5q0 -215 -131 -356.5t-336 -141.5q-84 0 -157 21t-124 54t-91 78 t-63 89.5t-36 91.5z" />
<glyph horiz-adv-x="1175" d="M113 614q0 149 17.5 272.5t58 231.5t103.5 182.5t159 117t219 42.5q183 0 329 -98l-94 -180q-94 65 -223 65q-77 0 -136.5 -27.5t-95 -71t-58.5 -102.5t-31.5 -115t-8.5 -116q101 127 287 127q195 0 309.5 -127.5t114.5 -341.5q0 -228 -127 -364t-340 -136 q-111 0 -195.5 33t-138.5 89t-88 139t-47.5 175t-13.5 205zM342 582q0 -49 2 -87.5t9 -81t18.5 -74.5t31 -62t46 -49t65 -30.5t86.5 -11.5q110 0 174 74t64 207q0 120 -63 195t-179 75q-81 0 -146 -41.5t-108 -113.5z" />
<glyph horiz-adv-x="1175" d="M121 1231v203h932v-166l-506 -1268h-244l500 1231h-682z" />
<glyph horiz-adv-x="1175" d="M100 412q0 70 21 131t55.5 103.5t70 71t72.5 46.5q-67 38 -121.5 117t-54.5 184q0 175 123.5 285t319.5 110t320 -110t124 -285q0 -106 -55 -184.5t-123 -116.5q38 -18 74 -46.5t70.5 -71t55.5 -103.5t21 -131q0 -197 -135 -318t-352 -121q-218 0 -352 120.5t-134 318.5z M332 414q0 -99 68 -166.5t186 -67.5q119 0 186.5 67.5t67.5 166.5q0 108 -70.5 172.5t-183.5 64.5q-112 0 -183 -65t-71 -172zM371 1055q0 -87 60.5 -145t154.5 -58q95 0 156 58t61 145q0 85 -57.5 141.5t-159.5 56.5t-158.5 -56t-56.5 -142z" />
<glyph horiz-adv-x="1175" d="M113 961q0 228 127 363.5t340 135.5q111 0 195.5 -33t138.5 -89t88 -139t47.5 -175t13.5 -205q0 -149 -17.5 -272.5t-58 -231.5t-103.5 -182.5t-159 -117t-219 -42.5q-183 0 -330 99l94 180q96 -66 224 -66q64 0 116.5 19t87.5 52.5t60 75t39 92t20 97.5t6 96 q-100 -126 -286 -126q-195 0 -309.5 127.5t-114.5 341.5zM338 967q0 -120 63 -195.5t179 -75.5q80 0 145.5 42t108.5 114q0 70 -5 121.5t-20.5 106t-43 89t-76 56.5t-114.5 22q-110 0 -173.5 -73.5t-63.5 -206.5z" />
</font>
</defs>
</svg>
